<?xml version="1.0" encoding="utf-8"?>
<!-- Generator: Adobe Illustrator 16.0.0, SVG Export Plug-In . SVG Version: 6.00 Build 0)  -->
<!DOCTYPE svg PUBLIC "-//W3C//DTD SVG 1.1//EN" "http://www.w3.org/Graphics/SVG/1.1/DTD/svg11.dtd">
<svg version="1.1" id="armado_fondo" xmlns="http://www.w3.org/2000/svg" xmlns:xlink="http://www.w3.org/1999/xlink" x="0px"
	 y="0px" width="1280px" height="800px" viewBox="0 0 1280 800" enable-background="new 0 0 1280 800" xml:space="preserve">
<g id="XMLID_2_">
	<g>
		<linearGradient id="SVGID_1_" gradientUnits="userSpaceOnUse" x1="922.4902" y1="490.3896" x2="1280" y2="490.3896">
			<stop  offset="0" style="stop-color:#ECBC6E"/>
			<stop  offset="1" style="stop-color:#ECA533"/>
		</linearGradient>
		<polygon fill="url(#SVGID_1_)" points="1280,180.78 1280,800 922.49,800 		"/>
		<linearGradient id="SVGID_2_" gradientUnits="userSpaceOnUse" x1="736.5996" y1="400" x2="1280" y2="400">
			<stop  offset="0" style="stop-color:#ECBC6E"/>
			<stop  offset="1" style="stop-color:#ECA533"/>
		</linearGradient>
		<polygon fill="url(#SVGID_2_)" points="1280,0 1280,180.78 922.49,800 736.6,800 1198.49,0 		"/>
		<linearGradient id="SVGID_3_" gradientUnits="userSpaceOnUse" x1="82.8696" y1="400" x2="1198.4902" y2="400">
			<stop  offset="0" style="stop-color:#ECBC6E"/>
			<stop  offset="1" style="stop-color:#ECA533"/>
		</linearGradient>
		<polygon fill="url(#SVGID_3_)" points="1198.49,0 736.6,800 82.87,800 544.76,0 		"/>
		<linearGradient id="SVGID_4_" gradientUnits="userSpaceOnUse" x1="0" y1="400" x2="544.7598" y2="400">
			<stop  offset="0" style="stop-color:#ECBC6E"/>
			<stop  offset="1" style="stop-color:#ECA533"/>
		</linearGradient>
		<polygon fill="url(#SVGID_4_)" points="544.76,0 82.87,800 0,800 0,618.779 357.26,0 		"/>
		<linearGradient id="SVGID_5_" gradientUnits="userSpaceOnUse" x1="0" y1="309.3896" x2="357.2598" y2="309.3896">
			<stop  offset="0" style="stop-color:#ECBC6E"/>
			<stop  offset="1" style="stop-color:#ECA533"/>
		</linearGradient>
		<polygon fill="url(#SVGID_5_)" points="357.26,0 0,618.779 0,0 		"/>
	</g>
</g>
</svg>
