<?xml version="1.0" encoding="utf-8"?>
<!-- Generator: Adobe Illustrator 16.0.0, SVG Export Plug-In . SVG Version: 6.00 Build 0)  -->
<!DOCTYPE svg PUBLIC "-//W3C//DTD SVG 1.1//EN" "http://www.w3.org/Graphics/SVG/1.1/DTD/svg11.dtd">
<svg version="1.1" id="Capa_1" xmlns="http://www.w3.org/2000/svg" xmlns:xlink="http://www.w3.org/1999/xlink" x="0px" y="0px"
	 width="750px" height="750px" viewBox="0 0 750 750" enable-background="new 0 0 750 750" xml:space="preserve">
<g>
	<g>
		<g>
			<g>
				<g>
					<g>
						<path fill="#5D5D5D" d="M551.595,257.029c-0.852,4.28-1.016,7.779-0.415,7.779c0.623,0,2.419-3.324,3.963-7.414
							c1.476-3.865,2.971-7.758,4.467-11.634c1.539-4.089,1.195-7.414-0.786-7.414c-1.954,0-4.259,3.511-5.11,7.791
							C553.025,249.751,552.288,253.394,551.595,257.029z"/>
					</g>
				</g>
				<path fill="#5D5D5D" d="M158.552,311.532c-5.596,0-10.362-0.874-14.32-2.637c-3.958-1.748-7.021-4.188-9.21-7.3
					c-2.184-3.096-3.45-6.792-3.8-11.04c-0.344-4.247,0.278-8.85,1.823-13.774c1.889-6.011,4.553-11.432,8.009-16.264
					c3.456-4.826,7.3-8.921,11.58-12.306c4.236-3.385,8.746-5.961,13.49-7.747c4.724-1.796,9.325-2.697,13.813-2.697
					c3.57,0,6.792,0.382,9.69,1.12c2.882,0.748,5.273,1.818,7.206,3.249c1.89,1.414,3.178,3.172,3.871,5.268
					c0.688,2.086,0.595,4.444-0.207,7.092c-0.716,2.151-1.704,4.051-3.042,5.662c-1.31,1.638-2.854,2.97-4.603,4.051
					c-1.773,1.086-3.685,1.911-5.76,2.489c-2.068,0.574-4.208,0.862-6.376,0.862c-2.506,0-4.532-0.393-6.05-1.163
					c-1.496-0.78-2.604-1.703-3.318-2.784c-0.688-1.081-1.104-2.233-1.196-3.456c-0.093-1.218,0-2.299,0.301-3.232
					c0.365-1.212,0.394-2.129,0.065-2.752c-0.316-0.601-0.781-0.901-1.376-0.901c-1.038,0-1.704,0.442-1.981,1.316
					c-0.115,0.333-0.115,0.781,0.021,1.321c-0.3,0.268-0.76,0.508-1.338,0.705c-0.572,0.208-1.168,0.312-1.769,0.312
					c-1.567,0-2.533-0.382-2.905-1.119c-0.343-0.748-0.343-1.693,0-2.828c0.486-1.567,1.523-2.774,3.112-3.653
					c1.562-0.884,3.107-1.321,4.603-1.321c1.774,0,3.085,0.344,3.915,1.01c0.83,0.682,1.566,1.441,2.14,2.282
					c0.578,0.852,1.223,1.61,1.867,2.276c0.623,0.693,1.703,1.016,3.199,1.016c1.77,0,3.292-0.519,4.559-1.567
					c1.267-1.059,2.091-2.173,2.463-3.396c0.437-1.348,0.458-2.484,0.064-3.396c-0.387-0.896-1.031-1.66-1.976-2.233
					c-0.923-0.574-2.097-0.967-3.479-1.218c-1.38-0.235-2.806-0.349-4.302-0.349c-3.662,0-7.135,0.737-10.433,2.233
					c-3.287,1.485-6.306,3.456-9.047,5.918c-2.763,2.484-5.153,5.339-7.229,8.62c-2.091,3.282-3.658,6.666-4.766,10.188
					c-1.403,4.444-1.747,8.424-1.032,11.902c0.666,3.478,2.048,6.398,4.096,8.762c2.046,2.358,4.629,4.176,7.735,5.422
					c3.106,1.239,6.377,1.872,9.805,1.872c2.004,0,4.122-0.147,6.334-0.458c2.232-0.3,4.399-0.841,6.491-1.622
					c2.118-0.758,4.078-1.796,5.891-3.084c1.824-1.277,3.342-2.904,4.536-4.87c1.524,0.218,2.534,1.07,3.063,2.588
					c0.53,1.522,0.372,3.592-0.459,6.24c-0.759,2.418-2.211,4.602-4.329,6.524c-2.14,1.928-4.744,3.548-7.779,4.87
					c-3.063,1.316-6.47,2.304-10.177,2.98C166.332,311.199,162.488,311.532,158.552,311.532z"/>
				<path fill="#5D5D5D" d="M200.105,302.311c6.054-19.278,12.108-38.572,18.162-57.855c-1.746-0.595-3.105-1.228-4.121-1.862
					c-0.967-0.644-1.359-1.337-1.131-2.096c0.258-0.802,0.924-1.359,2.01-1.654c1.032-0.3,2.37-0.464,3.909-0.464
					c5.41,0,10.799,0,16.209,0c1.567,0,2.878,0.164,3.958,0.464c1.038,0.295,1.452,0.852,1.174,1.654
					c-0.25,0.83-1.08,1.589-2.484,2.282c-1.43,0.721-3.155,1.278-5.224,1.676c-2.098,6.655-4.166,13.311-6.24,19.96
					c1.244-0.208,2.62-0.645,4.143-1.311c1.496-0.666,3.13-1.392,4.859-2.14c1.704-0.737,3.587-1.403,5.591-2.025
					c2.025-0.601,4.193-0.9,6.491-0.9c2.676,0,4.881,0.344,6.563,1.004c1.682,0.677,2.948,1.622,3.778,2.795
					c0.802,1.174,1.217,2.555,1.244,4.145c0.022,1.599-0.257,3.27-0.785,5.017c-3.293,10.444-6.563,20.883-9.828,31.311
					c-0.163,0.469,0.044,0.895,0.595,1.266c0.552,0.366,1.174,0.759,1.89,1.174c0.666,0.393,1.288,0.83,1.818,1.311
					c0.508,0.475,0.688,1.016,0.48,1.626c-0.137,0.47-0.573,0.907-1.311,1.311c-0.71,0.404-1.562,0.769-2.533,1.119
					c-0.939,0.333-1.911,0.606-2.851,0.802c-0.972,0.208-1.752,0.312-2.347,0.312c-0.443,0-0.879-0.032-1.315-0.104
					c-0.416-0.07-0.901-0.104-1.426-0.104c-0.415-0.071-0.852-0.104-1.358-0.104c-0.486,0-0.989,0-1.496,0c-0.372,0-0.781,0-1.246,0
					c-0.436,0-0.9,0.033-1.38,0.104c-0.438,0-0.874,0.033-1.36,0.104c-0.458,0.072-0.923,0.104-1.359,0.104
					c-0.852,0-1.703-0.104-2.599-0.312c-0.896-0.196-1.703-0.48-2.419-0.851c-0.688-0.366-1.288-0.759-1.746-1.174
					c-0.486-0.404-0.645-0.808-0.508-1.207c0.186-0.611,0.688-1.152,1.495-1.626c0.853-0.48,1.726-0.918,2.67-1.311
					c0.944-0.415,1.796-0.808,2.604-1.174c0.78-0.372,1.267-0.797,1.382-1.266c3.034-9.625,6.054-19.246,9.09-28.871
					c0.601-1.954,0.37-3.542-0.71-4.716c-1.082-1.174-2.44-1.774-4.078-1.774c-0.924,0-1.796,0.114-2.626,0.354
					c-0.852,0.246-1.813,0.476-2.85,0.704c-1.06,0.24-2.233,0.486-3.528,0.716c-1.288,0.229-2.806,0.354-4.53,0.354
					c-3.456,11.089-6.934,22.161-10.406,33.233c-0.163,0.469,0.043,0.895,0.601,1.266c0.552,0.366,1.168,0.759,1.862,1.174
					c0.692,0.393,1.288,0.83,1.817,1.311c0.53,0.475,0.693,1.016,0.508,1.626c-0.158,0.47-0.601,0.907-1.315,1.311
					c-0.71,0.404-1.584,0.769-2.528,1.119c-0.944,0.333-1.938,0.606-2.877,0.802c-0.944,0.208-1.725,0.312-2.325,0.312
					c-0.459,0-0.901-0.032-1.338-0.104c-0.415-0.07-0.874-0.104-1.403-0.104c-0.437-0.071-0.874-0.104-1.359-0.104
					c-0.486,0-0.988,0-1.518,0c-0.365,0-0.759,0-1.218,0c-0.442,0-0.901,0.033-1.365,0.104c-0.458,0-0.917,0.033-1.376,0.104
					c-0.464,0.072-0.922,0.104-1.387,0.104c-0.824,0-1.676-0.104-2.576-0.312c-0.896-0.196-1.726-0.48-2.413-0.851
					c-0.716-0.366-1.288-0.759-1.753-1.174c-0.485-0.404-0.644-0.808-0.529-1.207c0.208-0.611,0.688-1.152,1.518-1.626
					c0.83-0.48,1.704-0.918,2.648-1.311c0.944-0.415,1.817-0.808,2.604-1.174C199.481,303.206,199.968,302.78,200.105,302.311z"/>
				<path fill="#5D5D5D" d="M265.689,302.311c4.008-12.732,7.993-25.463,12-38.195c-1.752-0.617-3.111-1.229-4.1-1.873
					c-0.988-0.633-1.381-1.337-1.152-2.085c0.252-0.803,0.896-1.36,1.982-1.665c1.081-0.312,2.369-0.453,3.936-0.453
					c5.41,0,10.794,0,16.204,0c1.567,0,2.884,0.142,3.938,0.453c1.059,0.305,1.473,0.862,1.222,1.665
					c-0.277,0.808-1.107,1.567-2.533,2.282c-1.402,0.71-3.128,1.289-5.202,1.676c-3.986,12.732-7.988,25.463-11.994,38.195
					c-0.138,0.469,0.07,0.895,0.622,1.266c0.551,0.366,1.174,0.759,1.861,1.174c0.693,0.393,1.293,0.83,1.823,1.311
					c0.523,0.475,0.688,1.016,0.503,1.626c-0.159,0.47-0.574,0.907-1.312,1.311c-0.714,0.404-1.566,0.769-2.532,1.119
					c-0.966,0.333-1.934,0.606-2.878,0.802c-0.966,0.208-1.746,0.312-2.325,0.312c-0.459,0-0.895-0.032-1.311-0.104
					c-0.414-0.07-0.9-0.104-1.425-0.104c-0.415-0.071-0.879-0.104-1.359-0.104c-0.486,0-0.994,0-1.502,0c-0.365,0-0.802,0-1.238,0
					c-0.465,0-0.923,0.033-1.382,0.104c-0.437,0-0.896,0.033-1.359,0.104c-0.459,0.072-0.944,0.104-1.359,0.104
					c-0.852,0-1.703-0.104-2.599-0.312c-0.9-0.196-1.704-0.48-2.419-0.851c-0.693-0.366-1.288-0.759-1.752-1.174
					c-0.481-0.404-0.645-0.808-0.524-1.207c0.207-0.611,0.709-1.152,1.518-1.626c0.83-0.48,1.703-0.918,2.647-1.311
					c0.945-0.415,1.84-0.808,2.6-1.174C265.073,303.206,265.554,302.78,265.689,302.311z M288.97,250.947
					c-0.973,0-1.911-0.055-2.856-0.159c-0.943-0.103-1.752-0.322-2.418-0.655c-0.688-0.333-1.152-0.808-1.452-1.414
					c-0.322-0.622-0.295-1.387,0-2.326c0.35-1.086,0.852-1.96,1.522-2.604c0.688-0.622,1.47-1.114,2.392-1.463
					c0.88-0.333,1.84-0.562,2.899-0.699c1.037-0.142,2.053-0.208,2.997-0.208c0.988,0,1.934,0.043,2.878,0.147
					c0.943,0.104,1.725,0.344,2.392,0.704c0.666,0.388,1.13,0.896,1.358,1.518c0.257,0.645,0.208,1.474-0.093,2.49
					c-0.622,1.965-1.84,3.221-3.707,3.794C293.042,250.652,291.039,250.947,288.97,250.947z"/>
				<path fill="#5D5D5D" d="M336.555,257.434c6.169,0,10.635,0.95,13.441,2.888c2.785,1.921,3.57,4.777,2.396,8.561
					c-0.394,1.212-1.037,2.348-1.96,3.385c-0.917,1.048-1.998,1.949-3.243,2.697c-1.244,0.737-2.555,1.332-3.963,1.769
					c-1.403,0.437-2.828,0.655-4.237,0.655c-1.354,0-2.412-0.202-3.198-0.606c-0.825-0.404-1.476-0.862-1.999-1.37
					c-0.507-0.497-0.923-0.956-1.245-1.37c-0.3-0.404-0.666-0.602-1.016-0.602c-0.895,0-1.582,0.372-2.024,1.12
					c-0.53-0.278-0.852-0.672-0.988-1.162c-0.137-0.508-0.137-1.038,0.043-1.578c0.3-1.026,0.972-1.878,1.981-2.588
					c1.011-0.716,2.19-1.06,3.522-1.06c0.966,0,1.752,0.044,2.348,0.147c0.601,0.104,1.2,0.148,1.796,0.148
					c0.83,0,1.431-0.18,1.796-0.552c0.371-0.366,0.601-0.688,0.716-0.966c0.18-0.611,0.021-1.163-0.438-1.671
					c-0.464-0.502-1.108-0.939-1.866-1.321c-0.804-0.366-1.634-0.666-2.577-0.912c-0.923-0.24-1.774-0.355-2.512-0.355
					c-2.855,0-5.41,0.459-7.688,1.381c-2.304,0.896-4.352,2.129-6.147,3.686c-1.796,1.566-3.313,3.406-4.58,5.524
					c-1.245,2.13-2.282,4.406-3.014,6.836c-0.923,2.916-1.452,5.443-1.496,7.6c-0.099,2.162,0.437,3.958,1.54,5.372
					c1.103,1.42,2.926,2.479,5.481,3.188c2.528,0.715,6.005,1.07,10.406,1.07c1.402,0,2.92-0.126,4.553-0.354
					c1.659-0.24,3.226-0.644,4.744-1.223c1.545-0.573,2.97-1.333,4.352-2.276c1.381-0.944,2.512-2.118,3.384-3.544
					c0.853,0.208,1.59,0.574,2.256,1.114c0.622,0.54,1.13,1.196,1.496,1.971c0.344,0.78,0.529,1.61,0.6,2.484
					c0.072,0.873-0.027,1.725-0.277,2.533c-0.645,2.026-1.66,3.894-3.036,5.569c-1.387,1.703-2.948,3.112-4.63,4.258
					c-1.704,1.152-3.499,2.052-5.389,2.696c-1.861,0.646-3.613,0.956-5.246,0.956c-2.834,0-5.132-0.104-6.836-0.3
					c-0.808-0.082-1.567-0.126-2.304-0.208c-0.716-0.071-1.452-0.104-2.189-0.104c-1.566,0-3.198,0.104-4.902,0.312
					c-0.852,0.06-1.704,0.126-2.626,0.196c-0.918,0.071-1.91,0.104-2.942,0.104c-2.304,0-4.423-0.612-6.312-1.818
					c-1.884-1.222-3.406-2.916-4.559-5.078c-1.125-2.15-1.818-4.716-1.977-7.687c-0.186-2.97,0.251-6.196,1.333-9.636
					c1.408-4.456,3.318-8.518,5.754-12.202c2.396-3.686,5.296-6.846,8.658-9.472c3.363-2.637,7.114-4.674,11.302-6.077
					C327.186,258.132,331.718,257.434,336.555,257.434z"/>
				<path fill="#5D5D5D" d="M355.636,301.295c5.896-18.808,11.787-37.617,17.684-56.436c-0.486-0.262-1.06-0.551-1.704-0.862
					c-0.666-0.301-1.266-0.623-1.845-0.956c-0.552-0.344-0.987-0.715-1.311-1.114c-0.322-0.415-0.415-0.879-0.229-1.43
					c0.251-0.802,0.896-1.359,1.977-1.654c1.06-0.3,2.375-0.464,3.942-0.464c5.612,0,11.257,0,16.87,0
					c1.566,0,2.855,0.164,3.941,0.464c1.059,0.295,1.469,0.852,1.195,1.654c-0.137,0.486-0.508,0.923-1.087,1.327
					c-0.572,0.398-1.238,0.791-2.02,1.163c-0.809,0.366-1.616,0.709-2.467,1.01c-0.83,0.311-1.611,0.6-2.256,0.862
					c-2.004,6.322-3.979,12.628-5.962,18.961c1.496-0.278,2.878-0.737,4.166-1.381s2.697-1.288,4.258-1.982
					c1.567-0.666,3.342-1.245,5.411-1.703c2.047-0.486,4.581-0.715,7.644-0.715c2.304,0,4.493,0.218,6.541,0.644
					c2.068,0.437,3.771,1.13,5.131,2.025c1.338,0.923,2.304,2.075,2.877,3.456c0.579,1.381,0.552,3.025-0.021,4.914
					c-0.645,2.015-1.889,3.664-3.729,4.919c-1.84,1.24-3.85,2.184-6.033,2.828s-4.329,1.06-6.448,1.266
					c-2.09,0.208-3.75,0.312-4.946,0.312c-2.146,0-3.57-0.082-4.264-0.268c-0.71-0.158-1.238-0.25-1.604-0.25
					c-0.371,0-0.601,0.136-0.693,0.415c-0.022,0.136,0.186,0.344,0.693,0.666c0.502,0.3,1.124,0.578,1.84,0.852
					c3.243,1.256,6.448,2.512,9.669,3.756c1.932,0.737,3.363,1.676,4.236,2.828c0.917,1.152,1.496,2.5,1.77,4.051
					c0.256,1.567,0.256,3.319-0.044,5.274c-0.252,1.955-0.666,4.155-1.223,6.585c0.786,0.415,1.544,0.862,2.374,1.381
					c0.803,0.486,1.54,1.038,2.162,1.61c0.645,0.58,1.174,1.109,1.566,1.611c0.394,0.519,0.552,0.912,0.459,1.174
					c-0.251,0.808-1.267,1.534-3.085,2.178c-1.796,0.633-3.821,0.966-6.054,0.966c-0.53,0-1.011-0.032-1.475-0.104
					c-0.48-0.07-0.918-0.104-1.382-0.104c-0.479-0.071-0.944-0.104-1.358-0.104c-0.388,0-0.825,0-1.288,0c-0.438,0-0.968,0-1.611,0
					c-0.622,0-1.288,0.033-1.981,0.104c-0.595,0-1.146,0.033-1.703,0.104c-0.552,0.072-0.962,0.104-1.268,0.104
					c-1.261,0-2.112-0.677-2.555-2.026c-0.409-1.359-0.344-2.98,0.257-4.87c0.573-1.818,1.08-3.729,1.566-5.722
					c0.481-1.993,0.71-3.925,0.71-5.836c0-1.872-0.322-3.614-0.988-5.214c-0.666-1.578-1.84-2.844-3.564-3.794
					c-2.583-1.484-4.516-2.664-5.804-3.538c-1.288-0.884-1.704-2.025-1.267-3.45c0.322-1.016,0.944-1.911,1.861-2.686
					c0.901-0.78,2.375-1.174,4.379-1.174c1.496,0,2.784,0.142,3.908,0.404c1.109,0.278,2.72,0.416,4.882,0.416
					c2.304,0,3.963-0.426,4.93-1.267c0.966-0.852,1.654-1.933,2.091-3.292c0.394-1.217,0-2.184-1.146-2.948
					c-1.152-0.731-2.784-1.103-4.952-1.103c-1.566,0-3.04,0.186-4.416,0.551c-1.388,0.372-2.741,0.797-4.029,1.267
					c-1.316,0.475-2.626,0.944-3.964,1.43c-1.354,0.458-2.763,0.836-4.259,1.103c-3.45,10.947-6.879,21.894-10.29,32.829
					c0.441,0.415,0.966,0.84,1.566,1.31c0.6,0.486,1.174,0.955,1.703,1.43c0.507,0.48,0.923,0.944,1.201,1.414
					c0.316,0.475,0.409,0.89,0.295,1.223c-0.137,0.47-0.573,0.907-1.311,1.311c-0.715,0.404-1.566,0.769-2.511,1.119
					c-0.968,0.333-1.934,0.606-2.878,0.802c-0.966,0.208-1.746,0.312-2.348,0.312c-0.595,0-1.174-0.032-1.703-0.104
					c-0.529-0.07-1.06-0.104-1.589-0.104c-0.48-0.071-0.988-0.104-1.475-0.104c-0.479,0-1.037,0-1.61,0c-0.393,0-0.759,0-1.174,0
					c-0.414,0-0.852,0.033-1.31,0.104c-0.464,0-0.923,0.033-1.388,0.104c-0.458,0.072-0.916,0.104-1.353,0.104
					c-0.83,0-1.704-0.104-2.605-0.312c-0.895-0.196-1.702-0.48-2.418-0.851c-0.688-0.366-1.288-0.759-1.747-1.174
					c-0.459-0.404-0.645-0.808-0.508-1.207c0.257-0.808,0.786-1.474,1.639-1.982c0.802-0.507,1.702-0.955,2.647-1.37
					c0.938-0.404,1.839-0.83,2.62-1.267C354.877,302.633,355.385,302.049,355.636,301.295z"/>
				<path fill="#5D5D5D" d="M457.92,258.04c5.503,0,11.028,0,16.531,0c1.195,0,2.512,0.071,3.958,0.256
					c1.426,0.158,2.692,0.502,3.751,1.01s1.867,1.234,2.446,2.179c0.551,0.955,0.595,2.194,0.108,3.739
					c-0.78,2.44-2.205,4.478-4.323,6.126c-2.118,1.654-4.629,3.172-7.457,4.52c-2.856,1.349-5.897,2.616-9.118,3.79
					c-3.248,1.195-6.333,2.462-9.304,3.811c-2.947,1.354-5.617,2.899-8.008,4.662c-2.376,1.748-4.078,3.844-5.138,6.284
					c1.73,1.152,3.663,1.922,5.852,2.326c2.185,0.416,4.467,0.606,6.836,0.606c1.425,0,2.97-0.126,4.603-0.354
					c1.632-0.24,3.199-0.644,4.722-1.223c1.54-0.573,2.992-1.333,4.346-2.276c1.388-0.944,2.534-2.118,3.412-3.544
					c0.826,0.208,1.568,0.574,2.234,1.114c0.644,0.54,1.124,1.196,1.495,1.971c0.345,0.78,0.551,1.61,0.601,2.484
					c0.066,0.873-0.027,1.725-0.278,2.533c-0.644,2.026-1.659,3.894-3.041,5.569c-1.381,1.703-2.921,3.112-4.624,4.258
					c-1.709,1.152-3.479,2.052-5.367,2.696c-1.867,0.646-3.636,0.956-5.273,0.956c-2.828,0-5.11-0.104-6.836-0.3
					c-0.78-0.082-1.561-0.126-2.276-0.208c-0.737-0.071-1.452-0.104-2.211-0.104c-1.566,0-3.177,0.104-4.902,0.312
					c-0.83,0.06-1.704,0.126-2.626,0.196c-0.923,0.071-1.89,0.104-2.921,0.104c-2.325,0-4.423-0.612-6.333-1.818
					c-1.867-1.222-3.385-2.916-4.537-5.078c-1.151-2.15-1.817-4.716-2.004-7.687c-0.186-2.97,0.278-6.196,1.36-9.636
					c1.08-3.445,2.626-6.917,4.673-10.428c2.025-3.51,4.516-6.666,7.414-9.429c2.921-2.763,6.24-5.018,9.969-6.792
					C449.359,258.918,453.454,258.04,457.92,258.04z M469.363,268.571c0.622-2.037,0-3.408-1.889-4.155
					c-1.89-0.737-4.466-1.114-7.736-1.114c-1.955,0-3.937,0.196-5.983,0.563c-2.069,0.371-4.052,1.152-5.984,2.325
					c-1.96,1.186-3.729,2.866-5.388,5.067c-1.66,2.194-3.063,5.088-4.193,8.664c-0.666,2.167-1.146,4.182-1.447,6.022
					c-0.256,1.866-0.093,3.428,0.53,4.716c1.747-2.424,3.679-4.488,5.825-6.18c2.113-1.692,4.302-3.118,6.535-4.313
					c2.232-1.18,4.422-2.189,6.605-3.03c2.141-0.841,4.149-1.671,5.962-2.474c1.823-0.83,3.363-1.704,4.63-2.648
					S468.948,269.919,469.363,268.571z"/>
				<path fill="#5D5D5D" d="M495.793,258.04c6.055,0,12.06,0,18.092,0c1.196,0,2.119,0.142,2.742,0.393
					c0.594,0.278,0.83,0.688,0.666,1.217c-0.208,0.683-0.716,1.294-1.519,1.834c-0.78,0.54-1.659,1.048-2.554,1.518
					c-0.88,0.47-1.704,0.934-2.485,1.371c-0.786,0.436-1.223,0.895-1.387,1.359c-0.114,0.415-0.25,0.83-0.388,1.218
					c2.392-0.47,4.352-1.196,5.848-2.173c1.496-0.983,2.92-1.982,4.352-2.981c1.381-1.016,2.942-1.9,4.646-2.648
					c1.752-0.737,4.099-1.108,7.069-1.108c2.669,0,4.858,0.344,6.563,1.004c1.654,0.677,2.921,1.622,3.75,2.795
					c0.809,1.174,1.245,2.555,1.267,4.145c0.044,1.599-0.229,3.27-0.808,5.017c-3.243,10.444-6.535,20.883-9.805,31.311
					c-0.138,0.469,0.044,0.895,0.6,1.266c0.552,0.366,1.174,0.759,1.889,1.174c0.688,0.393,1.289,0.83,1.818,1.311
					c0.529,0.475,0.688,1.016,0.508,1.626c-0.163,0.47-0.601,0.907-1.316,1.311c-0.714,0.404-1.588,0.769-2.532,1.119
					c-0.966,0.333-1.933,0.606-2.899,0.802c-0.944,0.208-1.725,0.312-2.326,0.312c-0.437,0-0.872-0.032-1.288-0.104
					c-0.437-0.07-0.895-0.104-1.43-0.104c-0.437-0.071-0.874-0.104-1.354-0.104c-0.508,0-0.994,0-1.518,0c-0.371,0-0.786,0-1.245,0
					c-0.437,0-0.873,0.033-1.359,0.104c-0.464,0-0.922,0.033-1.382,0.104c-0.458,0.072-0.922,0.104-1.38,0.104
					c-0.809,0-1.66-0.104-2.578-0.312c-0.9-0.196-1.708-0.48-2.396-0.851c-0.709-0.366-1.288-0.759-1.768-1.174
					c-0.465-0.404-0.65-0.808-0.508-1.207c0.18-0.611,0.688-1.152,1.518-1.626c0.802-0.48,1.702-0.918,2.626-1.311
					c0.966-0.415,1.84-0.808,2.62-1.174c0.786-0.372,1.244-0.797,1.408-1.266c2.97-9.533,5.984-19.038,8.976-28.57
					c0.486-1.567,0.394-2.877-0.229-3.958c-0.622-1.082-1.796-1.611-3.521-1.611c-1.939,0-3.593,0.208-4.996,0.596
					c-1.382,0.414-2.647,0.874-3.777,1.38c-1.126,0.508-2.206,0.967-3.244,1.404c-1.015,0.442-2.167,0.671-3.456,0.671
					c-3.128,10.035-6.283,20.064-9.418,30.088c-0.157,0.469,0.05,0.895,0.602,1.266c0.552,0.366,1.174,0.759,1.867,1.174
					c0.688,0.393,1.289,0.83,1.817,1.311c0.53,0.475,0.688,1.016,0.508,1.626c-0.163,0.47-0.6,0.907-1.315,1.311
					c-0.715,0.404-1.566,0.769-2.527,1.119c-0.951,0.333-1.911,0.606-2.883,0.802c-0.938,0.208-1.725,0.312-2.326,0.312
					c-0.458,0-0.895-0.032-1.311-0.104c-0.436-0.07-0.896-0.104-1.43-0.104c-0.41-0.071-0.874-0.104-1.354-0.104
					c-0.486,0-0.994,0-1.519,0c-0.37,0-0.786,0-1.223,0s-0.896,0.033-1.381,0.104c-0.437,0-0.9,0.033-1.36,0.104
					c-0.48,0.072-0.916,0.104-1.381,0.104c-0.803,0-1.676-0.104-2.577-0.312c-0.9-0.196-1.702-0.48-2.418-0.851
					c-0.71-0.366-1.288-0.759-1.77-1.174c-0.464-0.404-0.622-0.808-0.486-1.207c0.187-0.611,0.694-1.152,1.496-1.626
					c0.83-0.48,1.704-0.918,2.648-1.311c0.967-0.415,1.817-0.808,2.599-1.174c0.809-0.372,1.267-0.797,1.408-1.266
					c3.702-11.82,7.437-23.629,11.139-35.465c0.306-0.934,0.234-1.704-0.181-2.277c-0.415-0.568-0.923-1.07-1.567-1.463
					c-0.601-0.415-1.152-0.819-1.61-1.217c-0.485-0.404-0.573-0.983-0.344-1.73c0.322-1.081,0.966-1.704,1.862-1.862
					C493.789,258.11,494.755,258.04,495.793,258.04z"/>
				<path fill="#5D5D5D" d="M586.979,258.04c7.364,0,14.734,0,22.1,0c3.871,0,6.333,0.551,7.37,1.67
					c1.011,1.119,1.288,2.408,0.853,3.903c-0.442,1.343-1.295,2.44-2.627,3.292c-1.288,0.84-2.762,1.266-4.399,1.266
					c-1.634,0-2.899-0.278-3.773-0.808c-0.873-0.551-1.152-1.338-0.829-2.336c0.343-1.152-0.252-1.725-1.818-1.725
					c-3.821,0-7.665,0-11.487,0c-2.184,0-3.985,0.196-5.388,0.611c-1.426,0.399-2.348,1.218-2.714,2.424
					c-0.35,1.026,0.294,1.91,1.817,2.697c1.54,0.769,3.522,1.599,5.913,2.473c2.419,0.874,5.001,1.911,7.764,3.096
					c2.762,1.185,5.197,2.658,7.315,4.412c2.146,1.747,3.707,3.887,4.701,6.376c1.01,2.506,0.967,5.536-0.163,9.118
					c-0.874,2.772-2.092,5.224-3.638,7.342c-1.566,2.13-3.292,3.898-5.202,5.318c-1.89,1.425-3.866,2.506-5.94,3.244
					c-2.074,0.736-3.958,1.119-5.754,1.119c-2.397,0-4.695-0.136-6.906-0.404c-2.255-0.262-4.537-0.404-6.906-0.404
					c-2.025,0-4.145,0.142-6.333,0.404c-2.233,0.268-4.603,0.404-7.136,0.404c-1.633,0-3.2-0.218-4.695-0.655
					c-1.496-0.438-2.741-1.131-3.707-2.075c-0.966-0.956-1.638-2.118-2.025-3.5c-0.393-1.38-0.278-3.062,0.344-5.017
					c0.508-1.682,1.195-3.042,2.048-4.051c0.83-1.015,1.682-1.911,2.512-2.68c0.851-0.776,1.632-1.534,2.368-2.234
					c0.76-0.704,1.316-1.599,1.639-2.686c0.251-0.813,0.207-1.654-0.093-2.527c1.54-0.416,3.336-0.601,5.34-0.601
					c1.933,0,3.499,0.644,4.744,1.955c1.195,1.327,1.446,3.177,0.714,5.524c-0.671,2.168-0.142,3.549,1.611,4.1
					c1.769,0.584,4.165,0.874,7.201,0.874c3.227,0,6.147-0.508,8.729-1.474c2.62-0.966,4.302-2.626,5.018-4.924
					c0.622-2.015,0.164-3.778-1.403-5.318c-1.566-1.507-3.685-2.97-6.376-4.4c-2.698-1.414-5.618-2.877-8.84-4.417
					c-3.204-1.506-6.126-3.281-8.772-5.306c-0.989-0.683-1.682-1.349-2.098-2.026c-0.437-0.682-0.692-1.326-0.802-1.922
					c-0.093-0.612-0.093-1.141-0.028-1.578c0.115-0.436,0.208-0.818,0.322-1.162c0.672-2.168,2.648-3.937,5.919-5.318
					S581.245,258.04,586.979,258.04z"/>
			</g>
			<path fill="#5D5D5D" d="M727.294,407.356c-7.388-6.157-16.733-9.417-27.048-9.417c-7.254,0-13.904,1.202-19.752,3.57
				c-2.031,0.809-4.008,1.704-5.989,2.67c-6.557-4.083-14.342-6.24-22.63-6.24c-1.146,0-2.255,0.072-3.385,0.116l-44.474-67.372
				c0.044-0.01,0.088-0.032,0.115-0.032c4.051-1.474,7.917-3.571,11.509-6.252c3.592-2.68,6.862-5.983,9.646-9.816
				c2.949-4.008,5.247-8.588,6.836-13.632c2.396-7.594,2.512-14.801,0.415-21.385c2.369-2.784,4.171-6.022,5.274-9.532
				c2.762-8.817,0.666-18-5.575-24.781c-7.917-8.577-19.381-8.462-23.159-8.462h-22.1c-1.797,0-3.565-0.065-5.269,0.049
				c-0.602-3.614-1.911-7.048-3.941-9.969c-4.303-6.24-11.368-9.991-18.945-9.991c-8.725,0-16.461,4.903-21.407,12.879
				l-72.245-109.48c-22.974-34.805-56.103-54.765-90.863-54.765c-34.74,0-67.847,19.889-90.82,54.688l-63.768,96.514h-0.785
				c-3.593,0-6.813,0.508-9.827,1.36c-2.212,0.633-4.308,1.588-6.219,2.762c-2.506-1.152-5.153-2.096-7.916-2.806
				c-10.729-2.741-23.853-2.468-36.465,2.298c-6.792,2.583-13.266,6.273-19.25,11.028c-5.824,4.603-11.115,10.209-15.702,16.646
				c-4.76,6.65-8.468,14.178-11.027,22.33c-2.37,7.562-3.287,14.943-2.735,21.942c0.645,8.124,3.221,15.445,7.643,21.708
				c4.467,6.333,10.543,11.224,18.072,14.572c2.713,1.195,5.617,2.096,8.632,2.811l-23.434,34.647
				c-2.004-0.125-4.028-1.152-5.94-1.152H53.784c-10.914,0-20.704,6.054-27.626,14.687c-7.507,9.368-11.492,22.65-6.448,35.868
				v0.633l-0.758,0.23c0.896,9.078,0.272,18.534-0.765,20.303c-0.295,0.383-1.747,1.235-2.556,1.786
				c-3.058,2.161-7.823,5.41-6.212,10.448c2.576,8.162,20.719,9.025,28.405,9.025c4.329,0,8.589-0.831,12.732-2.047l-5.477,19.407
				c-2.053,1.093-4.029,2.195-5.896,3.314c-7.528,4.487-12.71,11.154-15.009,19.267c-1.84,6.584-1.151,13.414,1.748,19.388
				c-9.598,25.839-8.954,50.636,2.211,71.4c15.516,28.831,47.957,44.97,91.327,44.97h509.713c43.376,0,75.812-16.139,91.306-44.97
				c10.084-18.704,11.579-40.854,4.694-63.976c5.438-4.362,9.096-10.34,10.384-17.001c1.54-7.851-0.3-15.838-5.017-22.242
				l8.288-42.634C741.543,428.654,737.377,415.738,727.294,407.356z M644.347,398.425c-3.014,0.395-5.935,2.005-8.653,2.834
				c-3.937-1.522-8.223-1.244-13.032-1.244h-6.721l-43.305-66.416c0.278-0.038,0.601-0.579,0.873-0.6
				c3.063-0.383,5.668-0.552,8.059-0.268c3.063,0.371,6.262,0.442,9.511,0.442c3.063,0,6.169-0.497,9.303-1.316L644.347,398.425z
				 M508.824,374.043c-4.007-3.772-11.027-9.183-21.712-9.183h-22.1c-5.411,0-10.544,2.172-15.288,4.673
				c-7.872,4.166-13.397,12.142-15.149,21.156c-0.366,1.807-0.524,3.844-0.552,5.662c-7.043,0.993-13.763,3.385-20.118,6.956
				c-0.552,0.299-1.13,0.703-1.682,1.036c-4.215-3.363-10.521-6.426-19.589-6.426c-4.93,0-9.073-0.022-12.388-0.137
				c-3.456-0.092-6.376-0.208-8.796-0.3c-2.232-0.093-4.116-0.187-5.66-0.301c-2.256-0.136-4.26-0.208-6.056-0.208
				c-10.477,0-20.304,1.692-29.17,5.018c-6.994,2.626-13.44,6.197-19.223,10.653c-3.937-4.745-8.997-8.464-15.102-11.063
				c-5.776-2.439-12.202-3.642-19.61-3.642c-5.023,0-9.467,1.568-13.562,2.604c-3.386-1.036-6.956-0.529-10.958-0.529h-18.163
				c-0.415-7.529-1.131-5.984-2.167-8.32c-2.626-6.022-7.044-11.477-12.798-14.851c-4.078-2.358-8.609-4.11-13.468-4.684
				c-4.674-0.557-9.462-1.588-14.458-0.944c-3.821-2.67-9.598-6.354-17.404-6.354h-4.374l23.045-35.198
				c3.473,0.731,6.929,0.044,10.407,0.044h3.936c3.271,0,6.469,1.659,10.269,0.851c1.584-0.333,3.2-0.082,4.762-0.589
				c1.358,0.497,2.762-0.137,4.215,0.185c3.636,0.808,7.206-0.447,10.799-0.447h3.937c3.242,0,6.42,1.659,10.264,0.851
				c1.152-0.24,2.353,0.148,3.521-0.207c1.038,0.344,2.075-0.426,3.091-0.197c3.614,0.797,7.179-0.447,10.793-0.447h3.937
				c3.249,0,6.447,1.659,10.27,0.851c1.861-0.393,3.729-0.207,5.547-0.851c1.475-0.53,2.877-0.759,4.215-1.414
				c5.018,2.888,10.706,4.569,16.554,4.569c1.566,0,3.063,0.033,4.53-0.071l3.594-0.251c0.808-0.092,1.632-0.13,2.582-0.13
				l2.068,0.196c5.269,0.59,13.447,0.966,21.228-1.682c0.114-0.054,0.278-0.104,0.414-0.136c1.262,0.436,2.556-0.574,3.888-0.3
				c3.614,0.818,7.185-0.78,10.777-0.78h4.302c3.292,0,6.611,1.681,10.592,0.851c1.861-0.393,3.729-0.207,5.525-0.851
				c0.83-0.301,1.632-0.251,2.418-0.574c3.658,2.14,7.802,3.428,12.196,3.428c1.086,0,2.168,0.022,3.456-0.125l4.996,0.043
				c5.731,0.656,11.694-0.125,16.897-1.964c0.736-0.279,1.474-0.558,2.188-0.88c5.918,2.904,12.754,3.708,19.152,3.227l3.571-0.278
				c0.829-0.114,1.653-0.136,2.555-0.136l2.096,0.169c5.27,0.589,13.42,0.956,21.249-1.692c0.48-0.169,0.938-0.344,1.402-0.53
				c1.589,0.65,3.222-0.272,4.882,0.121c3.636,0.802,7.229-0.808,10.793-0.808h3.964c3.243,0,6.441,1.659,10.264,0.851
				c1.567-0.333,3.178-0.07,4.766-0.589c1.338,0.497,2.741-0.137,4.194,0.175c3.613,0.818,7.2-0.437,10.793-0.437h3.937
				c3.271,0,6.448,1.659,10.269,0.851c1.84-0.393,3.707-0.207,5.548-0.851c1.91-0.666,3.728-1.131,5.388-2.026
				c2.396,1.518,4.996,2.855,7.758,3.658c1.196,0.349,2.463,1.681,3.708,1.9l43.299,66.775h-3.543c-3.243,0-6.448-0.715-9.462-0.082
				c-4.214,0.884-8.102,2.167-11.464,4.733c-1.818-1.06-3.658-2.283-5.569-3.112c-7.895-3.521-16.925-5.421-26.866-5.421
				c-9.096,0-17.706,0.89-25.622,3.63C518.975,386.545,512.854,377.864,508.824,374.043z M286.551,122.217
				c22.286-33.75,54.263-53.088,87.757-53.088c33.521,0,65.52,19.381,87.806,53.154l73.321,111.112
				c-0.48,1.048-0.966,2.108-1.359,3.238c-4.351-0.278-8.796,0.136-12.59,0.944c-2.353-0.611-4.858-0.786-7.601-0.786h-4.65
				l-61.857-97.218c-18.622-28.237-45.996-43.36-68.582-43.36v-0.289c-30.153,0-54.442,15.423-73.092,43.649l-54.492,80.828
				c-1.61-0.873-3.821-1.774-5.661-2.282c-3.041-0.862-6.813-1.403-10.406-1.403h-11.028L286.551,122.217z M493.582,236.632
				c-1.567,0.093-3.134,0.229-4.651,0.502c-0.988,0.197-2.026,0.464-2.992,0.764c-1.66-0.453-3.363-0.633-5.044-0.83
				c-2.256-0.267-4.439-0.278-6.443-0.278H457.92c-7.643,0-14.871,1.463-21.455,4.57c-2.162,1.026-4.303,2.14-6.422,3.488
				c-0.808-0.677-1.638-1.332-2.511-1.911c-2.877-1.955-6.147-3.5-9.849-4.559c-0.257-3.106-1.131-6.159-2.627-8.965
				c-2.947-5.47-7.965-9.543-14.205-11.328c-3.019-0.863-6.24-1.371-9.832-1.371h-16.87c-3.614,0-6.814,0.508-9.854,1.36
				c-8.107,2.314-14.136,8.151-16.576,15.952c-0.3,0.89-0.529,1.797-0.671,2.698c-3.221-0.557-6.693-0.808-10.493-0.808
				c-5.918,0-11.651,0.758-17.109,2.243c-0.202-0.791-0.438-1.485-0.666-2.058c-2.07-5.367-5.848-9.74-11.002-12.628
				c-3.204-1.763-6.721-2.877-10.542-3.281c-3.549-0.393-7.142-0.393-10.964,0.115c-2.74,0.344-5.36,0.988-7.778,1.911
				c-3.522,1.359-6.678,3.325-9.396,5.869c-3.222,2.992-5.591,6.699-7.087,11.007c-0.021,0-0.043-0.011-0.07-0.022
				c-0.044,0-0.044-0.027-0.093-0.027c-0.137-3.15-0.967-6.213-2.392-9.068l54.973-83.313c16.138-24.426,37.413-37.895,59.88-37.895
				c22.493,0,43.764,13.469,59.88,37.895L493.582,236.632z M125.445,308.365c-3.407-4.832-5.41-10.499-5.918-16.875
				c-0.438-5.732,0.328-11.853,2.326-18.208c2.238-7.184,5.502-13.768,9.674-19.594c4.051-5.684,8.696-10.625,13.813-14.675
				c5.176-4.111,10.794-7.31,16.619-9.516c10.728-4.067,21.799-4.215,30.573-1.971c3.014,0.77,5.819,1.889,8.354,3.303l2.882,1.649
				l2.6-2.107c1.588-1.289,3.406-0.923,5.41-1.496c2.14-0.623,4.488,0.387,7.157,0.387h16.209c2.67,0,5.018-1.01,7.158-0.387
				c3.663,1.031,6.584,2.691,8.266,5.825c1.31,2.391,1.774,4.761,1.402,7.469l-0.595,4.154l4.209,1.01
				c0.945,0.257,1.867,0.508,2.719,0.857c1.081,0.437,2.069,0.906,3.015,1.446l2.696,1.578l2.577-1.818
				c0.458-0.311,0.923-0.633,1.403-0.884l2.14-1.141l0.394-2.375c0.136-0.721,0.322-1.436,0.529-2.129
				c0.944-3.036,2.555-5.602,4.744-7.644c1.769-1.676,3.843-2.964,6.169-3.843c1.726-0.666,3.614-1.125,5.548-1.381
				c3.063-0.388,5.896-0.388,8.68-0.093c2.484,0.279,4.788,0.994,6.814,2.108c3.155,1.774,5.383,4.329,6.649,7.6
				c0.393,1.048,0.9,2.795,0.9,5.05l0.044,7.103l6.634-2.566c0.666-0.278,1.354-0.53,2.004-0.748
				c5.382-1.829,11.208-2.752,17.312-2.752c5.296,0,9.713,0.601,13.583,1.84l7.157,2.293l-0.78-7.447
				c-0.186-1.84-0.027-3.663,0.524-5.389c1.452-4.603,5.066-6.742,9.925-8.124c2.141-0.623,4.487,0.387,7.186,0.387h16.87
				c2.647,0,5-1.01,7.14-0.387c3.658,1.031,6.607,2.691,8.288,5.809c1.239,2.336,1.748,4.64,1.403,7.266l-0.552,4.417l5.525,0.934
				c3.543,0.748,6.65,1.993,9.254,3.74c1.381,0.923,2.648,2.025,3.772,3.292l2.927,3.341l3.613-2.648
				c2.741-2.015,5.41-3.363,8.244-4.684c5.269-2.5,11.094-3.489,17.285-3.489h16.531c1.633,0,3.407-0.164,5.296,0.071
				c1.654,0.18,3.243,0.388,4.832,0.906l1.703,0.497l1.683-0.726c0.851-0.355,1.817-0.382,2.762-0.562
				c1.61-0.301,3.314-0.186,5.066-0.186h18.092c2.256,0,4.216,0,5.99,0.573l1.332,0.3l1.359-0.437
				c2.462-0.612,5.181-0.945,8.31-0.945c2.118,0,4.101,0.137,5.918,0.464l4.603,0.759l1.016-4.526
				c2.232-9.98,8.702-16.428,16.411-16.428c4.352,0,8.401,2.157,10.892,5.749c1.861,2.659,2.714,5.88,2.577,9.549l-0.208,5.864
				l5.805-0.579c2.806-0.415,5.846-0.344,9.09-0.344h22.1c5.088,0,11.536,0.344,15.98,5.17c3.865,4.166,5.132,9.772,3.428,15.227
				c-0.944,2.98-2.598,5.503-4.902,7.622l-2.577,2.369l1.682,3.8c2.021,5.067,2.069,10.783,0.109,16.99
				c-1.267,4.002-3.058,7.633-5.383,10.772c-2.261,3.052-4.788,5.662-7.601,7.758c-2.85,2.118-5.868,3.768-8.996,4.881
				c-6.355,2.304-12.438,2.015-18.071,1.327c-1.753-0.208-3.593-0.322-5.481-0.322c-1.545,0-3.178,0.104-4.925,0.322
				c-5.088,0.616-11.148,0.928-16.532-0.634c-2.668-0.786-5.088-2.052-7.228-3.767l-2.904-2.358l-3.036,2.211
				c-0.485,0.344-1.015,0.688-1.566,1.01c-1.338,0.738-2.806,1.392-4.396,1.95c-1.43,0.518-2.904,0.906-4.328,1.217
				c-2.878,0.601-5.067,0.683-7.322,0.404l-1.726-0.146l-4.028,0.146c-2.556,0.301-5.132,0.159-7.785-0.437
				c-1.469-0.322-2.872-0.786-4.188-1.381l-1.981-0.786l-2.62,0.994c-1.431,0.508-2.877,0.896-4.33,1.207
				c-2.854,0.601-5.038,0.683-7.32,0.404l-1.704-0.146l-4.028,0.146c-2.556,0.301-5.132,0.159-7.78-0.437
				c-1.682-0.372-3.292-0.934-4.788-1.67l-2.025-1l-2.096,0.906c-0.874,0.382-1.775,0.76-2.67,1.07
				c-3.106,1.06-6.148,1.589-9.096,1.589c-3.2,0-5.776-0.116-8.059-0.366l-2.118-0.186c-1.474-0.136-2.899-0.044-4.761,0.186
				l-3.02,0.229c-5.29,0.383-11.071-0.344-15.794-3.167l-2.413-1.436l-2.468,1.354c-1.011,0.558-2.069,1.038-3.222,1.442
				c-3.843,1.37-8.381,2.014-12.731,1.484l-4.373-0.146l-2.418,0.136c-0.94,0.114-1.77,0.169-2.534,0.169
				c-3.242,0-6.278-1.021-8.746-2.943l-2.484-1.938l-2.783,1.463c-1.174,0.611-2.463,1.163-3.822,1.648
				c-1.43,0.492-2.877,0.896-4.308,1.207c-3.085,0.633-5.41,0.666-7.758,0.394l-1.841-0.136l-4.17,0.146
				c-2.556,0.301-5.132,0.159-7.78-0.437c-1.382-0.3-2.762-0.748-4.051-1.316l-1.889-0.824l-1.884,0.781
				c-0.601,0.229-1.152,0.459-1.752,0.666c-3.106,1.06-6.148,1.589-9.068,1.589c-3.2,0-5.804-0.116-8.059-0.366l-2.119-0.186
				c-1.474-0.136-2.904-0.044-4.766,0.186l-3.014,0.229c-1.245,0.093-2.533,0.137-3.821,0.137c-4.537,0-8.91-1.278-12.64-3.68
				l-3.592-2.5l-3.385,2.15c-1.333,0.738-2.806,1.392-4.401,1.96c-1.424,0.492-2.871,0.896-4.323,1.207
				c-2.877,0.612-5.066,0.683-7.321,0.404l-1.726-0.146l-4.028,0.146c-2.583,0.312-5.138,0.159-7.758-0.437
				c-1.109-0.24-2.212-0.59-3.342-1.026l-1.654-0.656l-1.731,0.574c-1.332,0.464-2.69,0.852-4.05,1.141
				c-2.878,0.601-5.089,0.683-7.344,0.404l-1.703-0.146l-4.029,0.146c-2.555,0.301-5.153,0.159-7.758-0.437
				c-1.496-0.322-2.898-0.786-4.236-1.381l-1.84-0.83l-2.74,1.038c-1.426,0.492-2.878,0.896-4.33,1.207
				c-2.85,0.612-5.039,0.683-7.315,0.404l-1.704-0.146l-4.056,0.146c-2.556,0.301-5.11,0.159-7.759-0.437
				c-1.932-0.426-3.728-1.081-5.383-1.96c-0.464-0.229-0.879-0.502-1.474-0.884l-2.075-1.299l-2.276,0.862
				c-3.412,1.299-6.999,2.304-10.706,2.981c-4.422,0.78-8.976,1.196-13.605,1.196c-7.206,0-13.626-1.218-19.064-3.647
				C133.574,316.997,128.852,313.213,125.445,308.365z M158.552,333.031c5.203,0,10.357-0.448,15.33-1.359
				c1.082-0.191,2.118-1.343,3.156-1.572l-23.597,34.761h-4.007c-4.745,0-9.368,2.003-13.513,4.072
				c-1.108-0.415-2.254-0.344-3.406-0.666c-2.418-0.666-4.996-0.896-7.671-1.218l23.187-35.018
				C151.39,332.583,154.866,333.031,158.552,333.031z M717.259,586.152c-14.851,27.593-46.11,42.371-88.084,42.371H119.462
				c-41.946,0-73.234-14.778-88.084-42.371c-10.242-19.061-11.208-41.313-3.058-65.105c0.644,0.911,1.354,1.91,2.14,2.762
				c3.386,3.686,7.644,6.481,12.618,8.212c2.483,0.852,5.132,1.507,7.844,1.885c0.624,0.091,1.246,0.141,1.868,0.185
				c-2.67,16.667,0.716,30.616,10.013,42.476c12.824,16.324,36.121,24.343,65.656,24.343h491.719
				c29.673,0,53.039-8.09,65.841-24.551c9.206-11.902,12.547-26.315,9.806-42.967c3.521,0.192,7.164,0.125,11.258-0.867
				c2.534-0.597,5.132-1.288,7.688-2.321c2.604-1.037,5.022-2.43,7.229-3.821C728.238,548.143,726.698,568.632,717.259,586.152z
				 M682.448,533.932c2.72,13.813,0.46,25.3-6.813,34.668c-10.241,13.189-29.929,19.752-55.457,19.752H128.459
				c-25.414,0-45.052-6.502-55.315-19.605c-7.394-9.4-9.718-21.351-6.934-35.312l0.508,0.104c0.393-0.05,2.046-0.164,5.803-0.164
				c1.425,0,2.647,0.07,3.386,0.07l6.005,0.715c3.637,0.322,7.437,0.623,13.539-0.425c2.162-0.383,4.374-0.89,6.649-1.557
				c0.853-0.24,1.683-0.519,2.512-0.803c4.166,1.999,8.889,3.074,13.791,3.074c1.77,0,3.614-0.132,5.618-0.404
				c0.552-0.07,1.151-0.152,1.861-0.229l1.338-0.176c0.18-0.021,1.218-0.175,3.544-0.175c0.322,0,0.644,0.022,0.966,0.049l2.44,0.24
				c7.785,1.093,16.438,0.957,24.033-1.256c0.349,0.094,0.692-1.347,1.037-1.265c4.93,1.212,9.832-0.645,14.686-0.645h6.038
				c4.439,0,8.905,1.909,14.13,0.671c1.846-0.442,3.707-0.234,5.574-0.901c1.726,0.667,3.455,0.07,5.225,0.509
				c4.974,1.195,9.833-0.278,14.687-0.278h6.032c4.466,0,8.889,1.909,14.135,0.671c2.468-0.589,4.93-0.601,7.349-1.557
				c2.162,0.956,4.438,2.107,6.835,2.67c4.968,1.208,9.876,1.703,14.687,1.07h1.682c2.025,10.569,8.795,19.293,18.737,23.722
				c7.092,3.177,15.636,4.673,26.844,4.673c2.305,0,4.811-0.088,7.414-0.311c0.759-0.066,2.626-0.158,6.558-0.158
				c1.358,0,2.812,0.07,4.307,0.186c2.813,0.207,6.219,0.311,10.456,0.311c6.398,0,12.868-1.069,19.151-3.188
				c6.377-2.146,12.316-5.306,17.728-9.438c5.41-4.166,10.149-9.254,14.021-15.174c1.238-1.909,2.391-3.914,3.406-5.981
				c11.187,6.075,25.458,8.042,41.53,4.934c1.77-0.331,3.407-0.519,4.882-0.519c1.194,0,3.384,0.082,7.021,0.395
				c4.422,0.393,9.483,0.572,15.058,0.572c9.14,0,16.618-1.588,22.859-4.881c0.895-0.459,1.746-0.954,2.599-1.473
				c7.6,4.857,16.209,7.337,25.648,7.337c1.977,0,4.001-0.186,6.169-0.557l1.496-0.272l2.004,0.311
				c2.048,0.343,4.166,0.519,6.469,0.519c8.446,0,16.805-2.135,24.813-6.323c0.852-0.437,1.66-0.894,2.49-1.37
				c1.104,0.77,2.276,1.486,3.429,2.131c3.085,1.703,6.469,1.495,10.062,2.348c4.974,1.212,9.855-0.645,14.686-0.645h6.033
				c4.467,0,8.91,1.909,14.135,0.671c2.326-0.557,4.674-0.535,7-1.42c2.069,0.885,4.279,0.475,6.514,1.027
				c4.973,1.195,9.876-0.278,14.707-0.278h6.033c4.443,0,8.909,1.909,14.134,0.671c2.376-0.557,4.696-0.535,7.021-1.42
				c2.074,0.885,4.259,1.993,6.519,2.533C675.679,533.217,679.086,533.976,682.448,533.932z M729.204,440.83l-9.161,47.219
				l1.589,1.818c3.844,4.373,5.433,10.128,4.351,15.79c-0.992,4.983-4.028,9.384-8.587,12.375c-1.861,1.218-3.98,2.305-6.262,3.211
				c-2.098,0.853-4.216,1.523-6.306,2.015c-4.166,1.004-7.485,1.142-10.844,0.655l-5.344-0.219l-2.714,0.208
				c-3.685,0.518-7.507,0.289-11.395-0.656c-2.325-0.551-4.515-1.332-6.519-2.348l-2.047-1.025l-3.248,1.392
				c-2.07,0.831-4.188,1.502-6.284,1.993c-4.166,1.004-7.48,1.13-10.843,0.655l-5.367-0.219l-2.713,0.208
				c-3.707,0.518-7.485,0.289-11.394-0.656c-2.326-0.551-4.488-1.332-6.52-2.348l-2.047-1.036l-3.222,1.402
				c-2.096,0.831-4.193,1.502-6.312,1.993c-4.144,1.004-7.458,1.142-10.814,0.655l-5.367-0.219l-2.714,0.208
				c-3.685,0.518-7.484,0.289-11.398-0.656c-2.741-0.644-5.274-1.631-7.6-2.919c-1.677-0.925-3.309-2.031-4.783-3.249l-2.789-2.305
				l-3.015,1.982c-1.495,0.978-3.02,1.889-4.602,2.714c-6.612,3.455-13.426,5.19-20.283,5.19c-1.752,0-3.313-0.125-4.837-0.365
				l-3.456-0.654l-3.357,0.621c-1.589,0.273-3.063,0.398-4.487,0.398c-7.851,0-14.921-2.102-21.112-6.271
				c-0.53-0.356-1.059-0.749-1.566-1.126l-2.942-2.199l-2.928,2.199c-1.31,1.01-2.718,1.862-4.236,2.67
				c-4.81,2.534-10.82,3.762-18.321,3.762c-5.296,0-10.063-0.179-14.206-0.539c-4.051-0.356-6.519-0.438-7.872-0.438
				c-2.097,0-4.33,0.24-6.727,0.705c-14.179,2.725-26.402,0.978-35.684-4.318c-1.196-0.655-2.326-1.402-3.43-2.189l-5.175-3.636
				l-2.217,5.939c-1.261,3.385-2.871,6.584-4.782,9.482c-3.271,4.997-7.229,9.283-11.792,12.781
				c-4.532,3.461-9.527,6.137-14.872,7.917c-5.29,1.785-10.7,2.696-16.04,2.696c-3.986,0-7.164-0.092-9.74-0.3
				c-1.703-0.114-3.428-0.187-5.022-0.187c-4.373,0-6.442,0.116-7.338,0.187c-2.354,0.208-4.586,0.3-6.634,0.3
				c-9.783,0-17.061-1.212-22.859-3.8c-2.969-1.338-12.709-6.676-13.517-19.844l-0.296-4.582l-8.888-0.175l-2.718,0.208
				c-3.702,0.518-7.48,0.289-11.395-0.656c-2.392-0.573-4.674-1.414-6.766-2.482l-2.052-1.06l-2.141,0.945
				c-0.479,0.205-0.966,0.413-1.495,0.615c-2.048,0.831-4.166,1.502-6.263,1.993c-4.188,0.993-7.484,1.13-10.842,0.655l-5.368-0.219
				l-2.712,0.208c-3.708,0.518-7.485,0.289-11.395-0.656c-1.823-0.436-3.663-1.048-5.411-1.839l-1.889-0.84l-1.911,0.747
				c-2.047,0.819-4.1,1.475-6.125,1.943c-4.188,1.004-7.479,1.13-10.843,0.655l-5.361-0.219l-2.719,0.208
				c-3.729,0.518-7.507,0.289-11.395-0.656c-0.666-0.158-1.31-0.343-1.96-0.529l-1.976-0.278l-1.452,0.465
				c-6.398,2.003-13.698,2.141-20.79,1.151l-2.67-0.267c-0.622-0.071-1.267-0.094-1.91-0.094c-2.648,0-4.188,0.152-5.04,0.29
				l-0.852,0.114c-0.808,0.082-1.545,0.163-2.168,0.251c-1.583,0.22-2.942,0.311-4.302,0.311c-4.028,0-7.828-0.986-10.984-2.866
				l-2.141-1.276l-2.275,0.983c-1.174,0.501-2.42,0.938-3.643,1.31c-1.911,0.551-3.771,0.988-5.568,1.288
				c-5.383,0.922-8.102,0.6-10.957,0.333l-4.052-0.333l-1.08-0.218c0,0-0.372-0.082-1.152-0.104c-1.06-0.07-2.418-0.082-4.029-0.082
				c-3.893,0-6.032,0.187-7.163,0.333l0.672,4.86l-1.338-4.767c-0.917,0.07-1.703,0.164-2.392,0.256
				c-0.736,0.093-1.495,0.158-2.21,0.219c-2.692,0.17-5.16,0.044-7.78-0.334c-2.118-0.311-4.149-0.785-6.033-1.44
				c-3.434-1.186-6.333-3.053-8.608-5.536c-4.238-4.602-5.756-10.893-4.074-16.842c1.584-5.674,5.247-10.346,10.564-13.524
				c2.118-1.245,4.352-2.483,6.742-3.751l2.468-1.44l11.831-41.887l-9.21,3.659c-5.983,2.374-12.317,4.569-18.235,4.569
				c-4.674,0-12.152-0.737-16.504-1.841c1.938-1.347,3.75-2.658,4.81-4.465c3.549-6.089,2.238-22.047,1.683-27.155l-0.23-1.3
				c-2.14-10.259-0.229-20.49,5.41-27.522c5.11-6.332,12.891-10.863,20.862-10.863h60.981c2.256,0,4.582,0.852,6.973,1.059
				c2.899,0.229,5.64,1.081,8.151,1.768c1.518,0.416,2.948,1.131,4.302,1.763l2.396,1.186l2.233-2.096
				c3.134-1.956,6.813-3.68,10.613-3.68h24.219c6.262,0,10.542,3.188,13.032,5.234l2.112,1.765l2.948-0.36
				c4.378-0.635,8.565-0.519,12.617-0.032c3.543,0.413,6.791,1.517,9.69,3.197c3.941,2.315,6.978,5.724,8.773,9.807
				c1.13,2.583,1.703,5.306,1.725,8.244l0.028,4.775h27.531c3.43,0,6.422,0.574,9.112,1.558l1.523,0.605l1.54-0.427
				c3.614-1.08,7.643-1.566,12.344-1.566c6.076,0,11.23,0.945,15.789,2.856c5.252,2.231,9.461,5.524,12.523,9.761
				c0.459,0.645,0.874,1.277,1.246,1.933l3.057,5.105l4.422-3.976c5.896-5.284,12.731-9.4,20.331-12.245
				c7.78-2.926,16.434-4.4,25.736-4.4c1.611,0,3.407,0.061,5.41,0.196c1.59,0.104,3.544,0.196,5.913,0.301
				c2.446,0.103,5.389,0.218,8.889,0.311c3.406,0.114,7.644,0.158,12.688,0.158c6.464,0,11.673,2.075,15.423,6.127l2.855,3.063
				l3.473-2.304c1.387-0.945,2.833-1.842,4.308-2.67c6.491-3.637,13.512-5.683,20.855-6.077l5.504-0.3l-0.945-5.433
				c-0.415-2.337-0.393-4.743,0.071-7.135c1.174-6.077,4.853-11.913,10.104-14.664c3.314-1.765,6.93-3.407,10.729-3.407h22.1
				c7.457,0,12.267,3.794,14.965,6.35c3.543,3.363,7.321,9.875,5.361,19.977l-2.992,15.525l8.888-4.329
				c2.047-1.037,4.073-1.877,6.099-2.626c7.206-2.712,15.221-4.05,23.738-4.05c8.565,0,16.252,1.496,22.902,4.444
				c2.533,1.124,4.974,2.494,7.256,4.049l3.38,2.327l2.882-2.937c2.556-2.622,5.848-4.522,9.483-5.28
				c2.37-0.486,4.858-0.82,7.458-0.82h26.129c4.052,0,7.507,0.771,10.75,2.245l1.797,0.873l1.91-0.645
				c4.352-1.539,9.303-2.304,14.757-2.304c7.3,0,14.021,2.097,19.388,6.061l2.483,1.841l2.74-1.464
				c2.484-1.338,5.067-2.544,7.666-3.592c4.695-1.874,10.105-2.846,16.094-2.846c8.01,0,15.194,2.479,20.785,7.152
				C728.287,420.908,731.258,430.358,729.204,440.83z"/>
			<g>
				<path fill="#5D5D5D" d="M201.508,433.279c2.926-0.644,5.366-1.528,7.3-2.658c1.932-1.13,3.014-2.338,3.292-3.626
					c0.229-1.288-0.416-2.189-1.982-2.67c-1.589-0.475-3.5-0.715-5.754-0.715h-23.39c-2.254,0-4.143,0.24-5.639,0.715
					c-1.475,0.48-2.37,1.382-2.604,2.67c-0.229,1.196,0.415,2.277,1.938,3.313c1.518,1.016,3.588,2.015,6.191,2.971l-11.81,60.825
					c-0.141,0.759-0.758,1.424-1.845,2.024c-1.081,0.573-2.298,1.196-3.613,1.841c-1.289,0.644-2.506,1.358-3.614,2.107
					c-1.104,0.747-1.774,1.599-1.955,2.576c-0.137,0.656,0.181,1.289,0.923,1.921c0.73,0.656,1.632,1.279,2.691,1.868
					c1.059,0.601,2.276,1.06,3.593,1.382c1.358,0.321,2.599,0.479,3.794,0.479c0.645,0,1.288-0.055,1.982-0.158
					c0.644-0.114,1.315-0.163,1.959-0.163c0.667-0.114,1.311-0.158,1.955-0.158c0.644,0,1.244,0,1.769,0c0.743,0,1.475,0,2.189,0
					c0.693,0,1.359,0.044,1.981,0.158c0.759,0,1.452,0.049,2.07,0.163c0.622,0.104,1.266,0.158,1.91,0.158
					c0.852,0,1.96-0.158,3.313-0.479c1.338-0.322,2.698-0.759,4.057-1.289c1.31-0.541,2.483-1.13,3.478-1.785
					c0.988-0.633,1.54-1.35,1.704-2.097c0.18-0.978-0.143-1.829-0.95-2.576c-0.824-0.749-1.77-1.464-2.828-2.107
					c-1.06-0.645-2.025-1.268-2.855-1.841c-0.874-0.601-1.218-1.266-1.081-2.024L201.508,433.279z"/>
				<path fill="#5D5D5D" d="M187.537,411.031c1.031,0.541,2.211,0.884,3.564,1.044c1.359,0.164,2.763,0.234,4.172,0.234
					c3.014,0,5.798-0.453,8.402-1.37c2.598-0.913,4.188-2.927,4.81-6.045c0.3-1.61,0.251-2.937-0.208-3.958
					c-0.438-1.016-1.174-1.823-2.184-2.418c-1.016-0.589-2.217-0.967-3.57-1.13c-1.359-0.158-2.741-0.24-4.172-0.24
					c-1.376,0-2.828,0.103-4.324,0.322c-1.495,0.219-2.854,0.585-4.072,1.141c-1.245,0.53-2.304,1.31-3.226,2.325
					c-0.874,1.021-1.496,2.392-1.841,4.116c-0.278,1.496-0.186,2.742,0.345,3.709C185.74,409.728,186.5,410.486,187.537,411.031z"/>
				<path fill="#5D5D5D" d="M292.054,429.665c-1.338-1.889-3.292-3.364-5.803-4.444c-2.534-1.081-5.755-1.61-9.62-1.61
					c-4.308,0-7.644,0.589-10.04,1.774c-2.369,1.174-4.516,2.576-6.355,4.188c-1.889,1.61-3.843,3.209-5.868,4.766
					c-2.025,1.556-4.718,2.702-8.08,3.467l0.366-1.949c0.163-0.747,0.758-1.474,1.817-2.161c1.037-0.705,2.167-1.426,3.385-2.189
					c1.224-0.749,2.396-1.54,3.456-2.415c1.081-0.861,1.746-1.821,1.954-2.904c0.164-0.861-0.229-1.505-1.174-1.932
					c-0.917-0.437-2.276-0.645-3.98-0.645h-26.156c-1.496,0-2.877,0.126-4.165,0.393c-1.288,0.274-2.118,1.268-2.44,2.992
					c-0.229,1.196,0.021,2.096,0.764,2.74c0.732,0.646,1.563,1.29,2.528,1.935c0.944,0.653,1.752,1.423,2.44,2.348
					c0.666,0.91,0.873,2.117,0.601,3.624l-11.007,56.463c-0.114,0.759-0.736,1.424-1.84,2.024c-1.059,0.573-2.255,1.196-3.57,1.841
					c-1.311,0.644-2.506,1.358-3.636,2.107c-1.103,0.747-1.774,1.599-1.954,2.576c-0.143,0.656,0.18,1.289,0.895,1.921
					c0.759,0.656,1.659,1.279,2.741,1.868c1.059,0.601,2.254,1.06,3.564,1.382c1.359,0.321,2.604,0.479,3.8,0.479
					c0.645,0,1.288-0.055,1.982-0.158c0.644-0.114,1.31-0.163,1.954-0.163c0.671-0.114,1.315-0.158,1.96-0.158
					c0.644,0,1.245,0,1.791,0c0.742,0,1.474,0,2.167,0c0.716,0,1.359,0.044,1.981,0.158c0.76,0,1.447,0.049,2.069,0.163
					c0.622,0.104,1.267,0.158,1.889,0.158c0.874,0,2.004-0.158,3.336-0.479c1.338-0.322,2.697-0.759,4.03-1.289
					c1.337-0.541,2.511-1.13,3.499-1.785c0.988-0.633,1.566-1.35,1.703-2.097c0.186-0.978-0.137-1.829-0.944-2.576
					c-0.803-0.749-1.769-1.464-2.807-2.107c-1.08-0.645-2.025-1.268-2.877-1.841c-0.879-0.601-1.223-1.266-1.059-2.024l9.298-47.908
					c1.822,0,3.477-0.349,4.88-1.06c1.431-0.693,2.927-1.452,4.494-2.26c1.539-0.803,3.292-1.518,5.246-2.173
					c1.954-0.633,4.33-0.955,7.136-0.955c2.462,0,4.236,0.853,5.296,2.565c1.059,1.715,1.381,3.823,0.873,6.295l-8.839,45.495
					c-0.164,0.759-0.737,1.424-1.84,2.024c-1.086,0.573-2.282,1.196-3.593,1.841c-1.315,0.644-2.533,1.358-3.613,2.107
					c-1.131,0.747-1.797,1.599-1.982,2.576c-0.114,0.656,0.186,1.289,0.923,1.921c0.737,0.656,1.632,1.279,2.714,1.868
					c1.059,0.601,2.26,1.06,3.592,1.382c1.338,0.321,2.576,0.479,3.778,0.479c0.644,0,1.31-0.055,1.976-0.158
					c0.645-0.114,1.316-0.163,1.96-0.163c0.694-0.114,1.311-0.158,1.982-0.158c0.622,0,1.218,0,1.77,0c0.764,0,1.474,0,2.188,0
					c0.688,0,1.338,0.044,1.955,0.158c0.758,0,1.452,0.049,2.074,0.163c0.622,0.104,1.267,0.158,1.91,0.158
					c0.874,0,1.955-0.158,3.314-0.479c1.359-0.322,2.719-0.759,4.051-1.289c1.338-0.541,2.512-1.13,3.479-1.785
					c0.988-0.633,1.566-1.35,1.702-2.097c0.181-0.978-0.114-1.829-0.944-2.576c-0.829-0.749-1.773-1.464-2.833-2.107
					c-1.032-0.645-2.004-1.268-2.877-1.841c-0.83-0.601-1.174-1.266-1.038-2.024l9.675-49.857c0.552-2.794,0.71-5.454,0.438-7.976
					C294.237,433.737,293.436,431.532,292.054,429.665z"/>
				<path fill="#5D5D5D" d="M392.635,423.61c-5.182,0-9.554-0.07-13.124-0.164c-3.593-0.097-6.628-0.229-9.14-0.316
					c-2.49-0.12-4.58-0.223-6.24-0.339c-1.632-0.104-3.107-0.146-4.396-0.146c-7.414,0-14.134,1.13-20.168,3.384
					c-6.032,2.255-11.322,5.478-15.838,9.67c-4.536,4.187-8.286,9.23-11.234,15.079c-2.992,5.87-5.16,12.41-6.563,19.609
					c-0.736,3.779-1.032,7.831-0.916,12.182c0.113,4.351,0.895,8.451,2.298,12.257c1.408,3.821,3.592,7.059,6.584,9.685
					c2.97,2.647,6.978,4.062,11.995,4.28c0.879,0,1.752-0.07,2.696-0.164c0.944-0.114,1.84-0.217,2.736-0.322
					c1.773-0.321,3.569-0.479,5.41-0.479c1.938,0,3.663,0.158,5.224,0.479c0.83,0.105,1.639,0.208,2.354,0.322
					c0.737,0.094,1.519,0.164,2.391,0.164c2.141,0,4.237-2.325,6.263-3.041c2.004-0.688,3.757,2.244,5.253-5.291h0.294
					c-0.087,7.535-0.207,4.025-0.365,5.226c-0.187,1.174-0.345,3.177-0.53,4.052c-0.994,5.038-3.428,9.418-7.343,12.108
					c-3.893,2.691-9.718,4.28-17.476,4.28c-3.451,0-6.214-0.229-8.332-0.923c-2.117-0.699-3.844-1.539-5.132-2.61
					c-1.315-1.069-2.445-2.178-3.384-3.352c-0.945-1.175-2.004-2.299-3.135-3.368c-1.125-1.098-2.555-1.949-4.236-2.648
					c-1.703-0.703-4.007-1.058-6.906-1.058c-0.53,0-1.032,0.064-1.54,0.168c-0.529,0.116-0.944,0.278-1.315,0.485
					c0.415,0.53,0.486,1.496,0.229,2.9c-0.109,0.654-0.617,1.566-1.496,2.74c-0.873,1.195-1.496,2.762-1.884,4.685
					c-1.059,5.492,0.207,9.035,3.844,10.646c3.592,1.611,9.046,2.42,16.367,2.42c1.61,0,3.406-0.082,5.389-0.23
					c1.955-0.164,4.81-0.252,8.583-0.252c2.03,0,4.122,0.088,6.24,0.252c2.118,0.148,4.952,0.23,8.522,0.23
					c3.636,0,7.315-0.623,11-1.853c3.664-1.232,7.092-3.073,10.27-5.492c3.156-2.418,5.87-5.378,8.146-8.859
					c2.304-3.501,3.87-7.465,4.744-11.859c0.394-2.046,0.573-3.984,0.573-5.813c-0.021-1.83-0.137-3.719-0.295-5.65
					c-0.143-1.933-0.257-3.894-0.301-5.881c-0.048-1.992,0.158-4.11,0.596-6.377l9.811-50.5c1.954-1.174,3.658-2.348,5.132-3.543
					c1.452-1.174,2.326-2.42,2.582-3.708C397.259,424.626,395.855,423.61,392.635,423.61z M367.008,446.677l-5.153,26.452
					c-0.716,3.777-2.097,6.884-4.144,9.357c-2.048,2.479-4.26,3.718-6.634,3.718c-1.288,0-2.556-0.114-3.8-0.334
					c-1.24-0.217-2.457-0.311-3.637-0.311c-0.966,0-2.025,0.094-3.128,0.311c-1.108,0.22-2.167,0.334-3.128,0.334
					c-3.134,0-5.46-0.781-7.048-2.348c-1.59-1.566-2.692-3.565-3.358-6.043c-0.623-2.474-0.879-5.164-0.672-8.07
					c0.187-2.898,0.553-5.754,1.081-8.538c0.693-3.56,1.709-7.081,3.041-10.57c1.311-3.493,3.085-6.628,5.274-9.368
					c2.206-2.74,4.854-4.974,7.916-6.698c3.084-1.704,6.698-2.577,10.914-2.577c1.932,0,3.772,0.3,5.546,0.896
					c1.775,0.589,3.249,1.496,4.396,2.741c1.152,1.232,2.009,2.761,2.489,4.602C367.472,442.054,367.472,444.203,367.008,446.677z"
					/>
				<path fill="#5D5D5D" d="M487.112,392.3h-22.1c-1.196,0-2.304,0.278-3.293,0.809c-1.037,0.551-1.681,1.517-1.954,2.91
					c-0.278,1.408,0.136,2.5,1.217,3.302c1.06,0.809,2.305,1.59,3.664,2.354c1.354,0.732,2.555,1.518,3.658,2.337
					c1.08,0.802,1.474,1.911,1.223,3.303l-4.236,21.777c-1.73-0.644-3.32-1.37-4.838-2.178c-1.518-0.817-3.134-1.622-4.837-2.43
					c-1.747-0.803-3.68-1.474-5.842-2.015c-2.146-0.529-4.674-0.791-7.577-0.791c-5.591,0-10.843,1.359-15.725,4.105
					c-4.88,2.74-9.231,6.229-13.004,10.488c-3.8,4.258-6.956,8.941-9.51,14.111c-2.578,5.172-4.324,10.167-5.275,15.01
					c-1.124,5.803-1.517,11.35-1.124,16.602c0.371,5.281,1.659,9.898,3.844,13.879c2.189,3.985,5.296,7.124,9.368,9.439
					c4.051,2.326,9.231,3.478,15.451,3.478c2.92,0,6.054-0.322,9.39-0.966c3.363-0.645,6.585-0.967,9.719-0.967
					c2.462,0,5.546,0.147,9.254,0.48c3.706,0.322,7.986,0.486,12.824,0.486c4.831,0,8.468-0.645,10.93-1.944
					c2.468-1.306,3.8-2.57,4.056-3.87c0.115-0.645-0.207-1.394-1.016-2.255c-0.78-0.863-1.702-1.691-2.74-2.512
					c-1.031-0.792-2.068-1.528-3.128-2.172c-1.06-0.645-1.752-1.13-2.118-1.452l18.442-95.008c0.502-2.49,0.294-4.145-0.622-5.023
					C490.312,392.736,488.931,392.3,487.112,392.3z M455.873,477.491c-0.344,1.713-1.338,3.279-3.02,4.673
					c-1.654,1.393-3.887,2.107-6.693,2.107c-1.087,0-2.281-0.093-3.593-0.251c-1.288-0.164-2.719-0.229-4.214-0.229
					c-1.519,0-3.085,0.065-4.718,0.229c-1.659,0.158-3.297,0.251-4.881,0.251c-1.315,0-2.675-0.48-4.078-1.463
					c-1.425-0.967-2.691-2.413-3.75-4.362c-1.082-1.933-1.818-4.351-2.233-7.251c-0.393-2.898-0.229-6.295,0.529-10.177
					c0.574-2.992,1.519-6.189,2.828-9.585c1.316-3.387,3.019-6.531,5.138-9.43c2.141-2.91,4.651-5.308,7.621-7.179
					c2.943-1.891,6.35-2.834,10.199-2.834c2.599,0,4.716,0.3,6.376,0.896c1.654,0.589,3.106,1.294,4.374,2.097
					c1.217,0.808,2.44,1.587,3.57,2.325c1.146,0.758,2.483,1.358,4.002,1.785L455.873,477.491z"/>
				<path fill="#5D5D5D" d="M575.627,446.841c-0.73-5.273-2.435-9.761-5.132-13.479c-2.647-3.696-6.283-6.584-10.886-8.621
					c-4.608-2.053-10.084-3.063-16.438-3.063c-6.655,0-12.732,1.01-18.164,3.063c-5.46,2.037-10.22,4.925-14.342,8.621
					c-4.122,3.719-7.507,8.206-10.198,13.479c-2.692,5.269-4.674,11.186-5.94,17.749c-1.195,6.005-1.452,11.695-0.83,17.012
					c0.645,5.317,2.004,10.013,4.145,14.041c2.096,4.03,4.951,7.23,8.473,9.588c3.499,2.364,7.571,3.56,12.202,3.56
					c0.529,0,1.103-0.07,1.725-0.164c0.595-0.114,1.174-0.217,1.753-0.322c1.354-0.321,2.828-0.479,4.439-0.479
					c1.402,0,2.718,0.158,3.958,0.479c0.714,0.105,1.408,0.208,2.03,0.322c0.596,0.094,1.354,0.164,2.232,0.164
					c4.281,0,8.589-1.13,12.913-3.385c4.307-2.266,8.265-5.389,11.88-9.368c3.636-3.975,6.813-8.647,9.532-14.043
					c2.69-5.366,4.65-11.165,5.891-17.404C576.135,458.026,576.393,452.109,575.627,446.841z M558.064,454.587
					c-0.716,3.762-1.774,7.263-3.156,10.483c-1.381,3.227-3.172,6.043-5.432,8.463c-2.233,2.428-4.968,4.328-8.217,5.721
					c-3.227,1.402-7.049,2.107-11.443,2.107c-3.128,0-5.775-0.623-7.966-1.867c-2.161-1.229-3.914-2.948-5.202-5.153
					c-1.288-2.2-2.092-4.848-2.418-7.9c-0.323-3.074-0.138-6.377,0.578-9.919c0.688-3.665,1.796-7.082,3.265-10.249
					c1.474-3.161,3.385-5.973,5.733-8.391c2.374-2.412,5.114-4.324,8.243-5.732c3.111-1.393,6.627-2.09,10.635-2.09
					c3.319,0,6.126,0.621,8.452,1.85c2.254,1.245,4.05,2.958,5.36,5.171c1.268,2.21,2.054,4.786,2.261,7.746
					C558.986,447.786,558.779,451.029,558.064,454.587z"/>
				<path fill="#5D5D5D" d="M713.645,437.806c0.944-4.837,0.021-8.419-2.763-10.738c-2.762-2.304-6.312-3.457-10.636-3.457
					c-3.963,0-7.348,0.551-10.154,1.681c-2.806,1.142-5.481,2.453-8.036,3.96c-2.435,1.506-4.968,3.072-7.594,4.673
					c-2.626,1.61-5.711,2.898-9.211,3.882c0.945-4.837,0.021-8.419-2.784-10.738c-2.784-2.304-6.311-3.457-10.592-3.457
					c-4.007,0-7.364,0.551-10.177,1.681c-2.806,1.142-5.476,2.453-8.03,3.96c-2.441,1.506-4.974,3.072-7.6,4.673
					c-2.648,1.61-5.705,2.898-9.232,3.882l0.371-1.949c0.159-0.747,0.76-1.474,1.797-2.161c1.059-0.705,2.184-1.426,3.406-2.189
					c1.218-0.749,2.392-1.54,3.45-2.415c1.087-0.861,1.753-1.821,1.96-2.904c0.158-0.861-0.229-1.505-1.174-1.932
					c-0.944-0.437-2.282-0.645-3.985-0.645h-26.129c-1.518,0-2.899,0.126-4.188,0.393c-1.288,0.274-2.118,1.268-2.44,2.992
					c-0.234,1.196,0.021,2.096,0.759,2.74c0.737,0.646,1.567,1.29,2.533,1.935c0.944,0.653,1.747,1.423,2.44,2.348
					c0.688,0.91,0.874,2.117,0.573,3.624l-10.957,56.463c-0.158,0.759-0.78,1.424-1.84,2.024c-1.108,0.573-2.282,1.196-3.593,1.841
					c-1.31,0.644-2.533,1.358-3.636,2.107c-1.108,0.747-1.774,1.599-1.96,2.576c-0.114,0.656,0.186,1.289,0.922,1.921
					c0.738,0.656,1.634,1.279,2.692,1.868c1.086,0.601,2.282,1.06,3.614,1.382c1.338,0.321,2.604,0.479,3.777,0.479
					c0.645,0,1.288-0.055,1.982-0.158c0.666-0.114,1.31-0.163,1.954-0.163c0.666-0.114,1.312-0.158,1.955-0.158
					c0.666,0,1.244,0,1.774,0c0.758,0,1.474,0,2.188,0c0.688,0,1.354,0.044,1.978,0.158c0.758,0,1.452,0.049,2.074,0.163
					c0.622,0.104,1.266,0.158,1.91,0.158c0.852,0,1.977-0.158,3.314-0.479c1.359-0.322,2.691-0.759,4.029-1.289
					c1.359-0.541,2.506-1.13,3.5-1.785c0.987-0.633,1.539-1.35,1.702-2.097c0.186-0.978-0.142-1.829-0.944-2.576
					c-0.83-0.749-1.774-1.464-2.834-2.107c-1.059-0.645-1.998-1.268-2.876-1.841c-0.853-0.601-1.174-1.266-1.06-2.024l9.51-48.892
					c1.748-0.103,3.521-0.457,5.39-1.042c1.813-0.589,3.636-1.212,5.427-1.856c1.801-0.655,3.549-1.228,5.273-1.774
					c1.704-0.541,3.429-0.791,5.16-0.791c2.462,0,4.208,0.654,5.246,2.003c1.016,1.359,1.359,2.992,0.993,4.925l-9.237,47.428
					c-0.137,0.759-0.754,1.424-1.84,2.024c-1.081,0.573-2.276,1.196-3.587,1.841c-1.315,0.644-2.533,1.358-3.642,2.107
					c-1.104,0.747-1.747,1.599-1.954,2.576c-0.115,0.656,0.207,1.289,0.922,1.921c0.732,0.656,1.633,1.279,2.714,1.868
					c1.037,0.601,2.255,1.06,3.593,1.382c1.337,0.321,2.598,0.479,3.772,0.479c0.644,0,1.315-0.055,1.959-0.158
					c0.688-0.114,1.332-0.163,1.982-0.163c0.666-0.114,1.311-0.158,1.977-0.158c0.644,0,1.223,0,1.747,0c0.786,0,1.501,0,2.188,0
					c0.716,0,1.359,0.044,2.004,0.158c0.737,0,1.431,0.049,2.048,0.163c0.622,0.104,1.267,0.158,1.91,0.158
					c0.852,0,1.96-0.158,3.342-0.479c1.332-0.322,2.67-0.759,4.023-1.289c1.338-0.541,2.49-1.13,3.505-1.785
					c0.967-0.633,1.518-1.35,1.682-2.097c0.202-0.978-0.12-1.829-0.922-2.576c-0.853-0.749-1.797-1.464-2.855-2.107
					c-1.06-0.645-2.004-1.268-2.856-1.841c-0.872-0.601-1.194-1.266-1.059-2.024l9.505-48.892c1.731-0.103,3.527-0.457,5.367-1.042
					c1.818-0.589,3.636-1.212,5.432-1.856c1.797-0.655,3.549-1.228,5.274-1.774c1.703-0.541,3.45-0.791,5.154-0.791
					c2.468,0,4.214,0.654,5.252,2.003c1.036,1.359,1.354,2.992,0.966,4.925l-9.21,47.428c-0.158,0.759-0.76,1.424-1.84,2.024
					c-1.082,0.573-2.256,1.196-3.593,1.841c-1.31,0.644-2.533,1.358-3.613,2.107c-1.131,0.747-1.798,1.599-1.961,2.576
					c-0.137,0.656,0.163,1.289,0.901,1.921c0.737,0.656,1.653,1.279,2.713,1.868c1.059,0.601,2.261,1.06,3.614,1.382
					c1.316,0.321,2.582,0.479,3.778,0.479c0.644,0,1.288-0.055,1.954-0.158c0.672-0.114,1.338-0.163,1.96-0.163
					c0.693-0.114,1.311-0.158,1.982-0.158c0.644,0,1.218,0,1.769,0c0.765,0,1.475,0,2.189,0c0.693,0,1.359,0.044,1.954,0.158
					c0.759,0,1.452,0.049,2.075,0.163c0.645,0.104,1.267,0.158,1.933,0.158c0.852,0,1.96-0.158,3.292-0.479
					c1.381-0.322,2.719-0.759,4.051-1.289c1.337-0.541,2.511-1.13,3.499-1.785c0.966-0.633,1.546-1.35,1.682-2.097
					c0.187-0.978-0.114-1.829-0.944-2.576c-0.808-0.749-1.747-1.464-2.806-2.107c-1.06-0.645-2.031-1.268-2.884-1.841
					c-0.851-0.601-1.194-1.266-1.059-2.024L713.645,437.806z"/>
				<path fill="#5D5D5D" d="M176.623,393.201c-0.688-0.6-1.682-0.901-2.97-0.901h-24.219c-1.152,0-2.141,0.393-2.899,1.142
					c-0.737,0.747-1.222,1.556-1.474,2.43c-0.437,1.6-0.716,3.324-0.808,5.142c-0.094,1.835-0.366,3.675-0.896,5.492
					c-0.671,2.371-2.046,4.707-4.165,7.022c-2.097,2.304-4.537,4.488-7.321,6.512c-2.789,2.055-5.617,3.834-8.43,5.346
					c-2.855,1.496-5.317,2.576-7.457,3.221c-2.162-0.322-5.133-1.151-8.883-2.51c-0.208-0.067-0.415-0.158-0.622-0.24l2.762-9.348
					c0.83-2.91,2.299-5.236,4.395-7.032c2.118-1.763,4.33-3.293,6.7-4.581c2.348-1.288,4.466-2.439,6.376-3.466
					c1.911-1.021,3.041-2.173,3.407-3.461c0.3-1.086,0-2.005-0.852-2.764c-0.852-0.737-2.069-1.338-3.615-1.763
					c-1.539-0.427-3.271-0.726-5.225-0.884c-1.96-0.164-3.844-0.258-5.662-0.258h-8.357H99.13H53.784
					c-5.438,0-13.54,5.045-10.663,18.087c3.085,13.879-6.563,20.349-6.563,20.349s17.728,2.189,23.252-9.909
					c2.004-4.433-0.322-11.279,0.923-15.129c1.359-4.23,4.029-4.509,4.029-4.509h22.215c0,0,3.45,0.623,3.937,3.428l-0.044,0.071
					c0.065,0.137,0.093,0.321,0.114,0.509c0,0.021,0,0.043,0,0.093c0,0.168,0,0.364-0.049,0.572
					c-0.158,1.218-0.438,2.555-0.802,3.98c-0.022,0.094-0.666,2.386-1.567,5.586c-0.645,2.304-1.452,5.098-2.211,7.884
					c-1.452,5.17-2.927,10.322-3.521,12.501c-0.208,0.677-0.322,1.08-0.322,1.08l-13.928,49.476
					c-0.83,2.898-2.232,5.152-4.166,6.769c-1.98,1.612-4.028,2.992-6.168,4.106c-2.146,1.142-4.15,2.233-5.94,3.303
					c-1.796,1.087-2.948,2.489-3.434,4.204c-0.181,0.655-0.022,1.244,0.464,1.785c0.48,0.53,1.195,0.967,2.14,1.289
					c0.917,0.321,1.977,0.551,3.106,0.714c1.13,0.158,2.233,0.252,3.314,0.252c0.737,0,1.566-0.07,2.369-0.164
					c0.852-0.114,1.823-0.217,2.927-0.322c2.348-0.321,5.459-0.479,9.324-0.479c1.84,0,3.386,0.021,4.674,0.082
					c1.266,0.043,2.462,0.169,3.592,0.397c1.146,0.105,2.299,0.208,3.45,0.322c1.152,0.094,2.533,0.164,4.172,0.164
					c0.523,0,1.425-0.114,2.642-0.322c1.245-0.219,2.512-0.519,3.8-0.901c1.289-0.365,2.49-0.873,3.593-1.517
					c1.104-0.645,1.77-1.476,2.048-2.43c0.436-1.508-0.044-2.772-1.425-3.783c-1.409-1.016-2.949-2.016-4.745-2.991
					c-1.746-0.973-3.314-2.021-4.673-3.145c-1.338-1.121-1.775-2.546-1.289-4.271l13.791-48.891l2.026-6.889
					c0.393,0.202,0.78,0.408,1.174,0.595c2.762,1.288,5.158,3.041,7.156,5.252c2.031,2.205,3.527,5.568,4.516,10.077
					c0.966,4.526,1.338,10.592,1.059,18.235c-0.256,7.632-1.315,17.58-3.154,29.837c-0.53,3.777-0.716,6.573-0.508,8.402
					c0.186,1.818,1.495,2.74,3.984,2.74c0.645,0,1.359-0.07,2.141-0.164c0.78-0.114,1.681-0.217,2.669-0.322
					c2.026-0.321,4.538-0.479,7.552-0.479c1.2,0,2.324,0.044,3.428,0.158c1.086,0.093,2.168,0.207,3.205,0.321
					c2.184,0.322,4.438,0.486,6.813,0.486c2.576,0,4.995-0.343,7.228-1.06c2.234-0.688,3.614-1.9,4.074-3.613
					c0.256-0.875,0.026-1.747-0.688-2.67c-0.716-0.922-1.659-1.829-2.855-2.74c-1.2-0.924-2.512-1.797-3.937-2.67
					c-1.403-0.852-2.762-1.66-4.078-2.418c-2.025-1.174-3.149-3.501-3.357-6.929c-0.208-3.455-0.164-7.404,0.18-11.869
					c0.35-4.455,0.716-9.128,1.06-14.031c0.371-4.892,0.207-9.462-0.48-13.719c-0.688-4.238-2.233-7.852-4.607-10.8
					c-2.392-2.959-6.17-4.695-11.279-5.246l0.092-0.322c3.958-1.393,7.736-3.363,11.422-5.897c3.658-2.516,7.179-5.213,10.586-8.058
					c3.362-2.851,6.677-5.629,9.926-8.309c3.221-2.682,6.469-4.833,9.739-6.46c2.877-1.506,5.176-2.63,6.901-3.368
					c1.703-0.758,2.74-1.729,3.067-2.927C177.518,394.625,177.338,393.773,176.623,393.201z"/>
			</g>
		</g>
	</g>
</g>
</svg>
