<?xml version="1.0" encoding="UTF-8" standalone="no"?>
<!-- Generator: Adobe Illustrator 16.0.0, SVG Export Plug-In . SVG Version: 6.00 Build 0)  -->

<svg
   xmlns:dc="http://purl.org/dc/elements/1.1/"
   xmlns:cc="http://creativecommons.org/ns#"
   xmlns:rdf="http://www.w3.org/1999/02/22-rdf-syntax-ns#"
   xmlns:svg="http://www.w3.org/2000/svg"
   xmlns="http://www.w3.org/2000/svg"
   xmlns:sodipodi="http://sodipodi.sourceforge.net/DTD/sodipodi-0.dtd"
   xmlns:inkscape="http://www.inkscape.org/namespaces/inkscape"
   version="1.1"
   id="Capa_1"
   x="0px"
   y="0px"
   width="750px"
   height="750px"
   viewBox="0 0 750 750"
   enable-background="new 0 0 750 750"
   xml:space="preserve"
   inkscape:version="0.91 r13725"
   sodipodi:docname="company.svg"><metadata
     id="metadata4293"><rdf:RDF><cc:Work
         rdf:about=""><dc:format>image/svg+xml</dc:format><dc:type
           rdf:resource="http://purl.org/dc/dcmitype/StillImage" /></cc:Work></rdf:RDF></metadata><defs
     id="defs4291" /><sodipodi:namedview
     pagecolor="#ffffff"
     bordercolor="#666666"
     borderopacity="1"
     objecttolerance="10"
     gridtolerance="10"
     guidetolerance="10"
     inkscape:pageopacity="0"
     inkscape:pageshadow="2"
     inkscape:window-width="1362"
     inkscape:window-height="746"
     id="namedview4289"
     showgrid="false"
     inkscape:zoom="0.74933333"
     inkscape:cx="375"
     inkscape:cy="375"
     inkscape:window-x="0"
     inkscape:window-y="0"
     inkscape:window-maximized="1"
     inkscape:current-layer="Capa_1" /><g
     id="g4239"
     style="fill:#ffffff"
     transform="translate(0,106.76157)"><g
       id="g4241"
       style="fill:#ffffff"><g
         id="g4243"
         style="fill:#ffffff"><g
           id="g4245"
           style="fill:#ffffff"><g
             id="g4247"
             style="fill:#ffffff"><g
               id="g4249"
               style="fill:#ffffff"><path
                 d="m 551.595,257.029 c -0.852,4.28 -1.016,7.779 -0.415,7.779 0.623,0 2.419,-3.324 3.963,-7.414 1.476,-3.865 2.971,-7.758 4.467,-11.634 1.539,-4.089 1.195,-7.414 -0.786,-7.414 -1.954,0 -4.259,3.511 -5.11,7.791 -0.689,3.614 -1.426,7.257 -2.119,10.892 z"
                 id="path4251"
                 style="fill:#ffffff"
                 inkscape:connector-curvature="0" /></g></g><path
             d="m 158.552,311.532 c -5.596,0 -10.362,-0.874 -14.32,-2.637 -3.958,-1.748 -7.021,-4.188 -9.21,-7.3 -2.184,-3.096 -3.45,-6.792 -3.8,-11.04 -0.344,-4.247 0.278,-8.85 1.823,-13.774 1.889,-6.011 4.553,-11.432 8.009,-16.264 3.456,-4.826 7.3,-8.921 11.58,-12.306 4.236,-3.385 8.746,-5.961 13.49,-7.747 4.724,-1.796 9.325,-2.697 13.813,-2.697 3.57,0 6.792,0.382 9.69,1.12 2.882,0.748 5.273,1.818 7.206,3.249 1.89,1.414 3.178,3.172 3.871,5.268 0.688,2.086 0.595,4.444 -0.207,7.092 -0.716,2.151 -1.704,4.051 -3.042,5.662 -1.31,1.638 -2.854,2.97 -4.603,4.051 -1.773,1.086 -3.685,1.911 -5.76,2.489 -2.068,0.574 -4.208,0.862 -6.376,0.862 -2.506,0 -4.532,-0.393 -6.05,-1.163 -1.496,-0.78 -2.604,-1.703 -3.318,-2.784 -0.688,-1.081 -1.104,-2.233 -1.196,-3.456 -0.093,-1.218 0,-2.299 0.301,-3.232 0.365,-1.212 0.394,-2.129 0.065,-2.752 -0.316,-0.601 -0.781,-0.901 -1.376,-0.901 -1.038,0 -1.704,0.442 -1.981,1.316 -0.115,0.333 -0.115,0.781 0.021,1.321 -0.3,0.268 -0.76,0.508 -1.338,0.705 -0.572,0.208 -1.168,0.312 -1.769,0.312 -1.567,0 -2.533,-0.382 -2.905,-1.119 -0.343,-0.748 -0.343,-1.693 0,-2.828 0.486,-1.567 1.523,-2.774 3.112,-3.653 1.562,-0.884 3.107,-1.321 4.603,-1.321 1.774,0 3.085,0.344 3.915,1.01 0.83,0.682 1.566,1.441 2.14,2.282 0.578,0.852 1.223,1.61 1.867,2.276 0.623,0.693 1.703,1.016 3.199,1.016 1.77,0 3.292,-0.519 4.559,-1.567 1.267,-1.059 2.091,-2.173 2.463,-3.396 0.437,-1.348 0.458,-2.484 0.064,-3.396 -0.387,-0.896 -1.031,-1.66 -1.976,-2.233 -0.923,-0.574 -2.097,-0.967 -3.479,-1.218 -1.38,-0.235 -2.806,-0.349 -4.302,-0.349 -3.662,0 -7.135,0.737 -10.433,2.233 -3.287,1.485 -6.306,3.456 -9.047,5.918 -2.763,2.484 -5.153,5.339 -7.229,8.62 -2.091,3.282 -3.658,6.666 -4.766,10.188 -1.403,4.444 -1.747,8.424 -1.032,11.902 0.666,3.478 2.048,6.398 4.096,8.762 2.046,2.358 4.629,4.176 7.735,5.422 3.106,1.239 6.377,1.872 9.805,1.872 2.004,0 4.122,-0.147 6.334,-0.458 2.232,-0.3 4.399,-0.841 6.491,-1.622 2.118,-0.758 4.078,-1.796 5.891,-3.084 1.824,-1.277 3.342,-2.904 4.536,-4.87 1.524,0.218 2.534,1.07 3.063,2.588 0.53,1.522 0.372,3.592 -0.459,6.24 -0.759,2.418 -2.211,4.602 -4.329,6.524 -2.14,1.928 -4.744,3.548 -7.779,4.87 -3.063,1.316 -6.47,2.304 -10.177,2.98 -3.703,0.684 -7.547,1.017 -11.483,1.017 z"
             id="path4253"
             style="fill:#ffffff"
             inkscape:connector-curvature="0" /><path
             d="m 200.105,302.311 c 6.054,-19.278 12.108,-38.572 18.162,-57.855 -1.746,-0.595 -3.105,-1.228 -4.121,-1.862 -0.967,-0.644 -1.359,-1.337 -1.131,-2.096 0.258,-0.802 0.924,-1.359 2.01,-1.654 1.032,-0.3 2.37,-0.464 3.909,-0.464 5.41,0 10.799,0 16.209,0 1.567,0 2.878,0.164 3.958,0.464 1.038,0.295 1.452,0.852 1.174,1.654 -0.25,0.83 -1.08,1.589 -2.484,2.282 -1.43,0.721 -3.155,1.278 -5.224,1.676 -2.098,6.655 -4.166,13.311 -6.24,19.96 1.244,-0.208 2.62,-0.645 4.143,-1.311 1.496,-0.666 3.13,-1.392 4.859,-2.14 1.704,-0.737 3.587,-1.403 5.591,-2.025 2.025,-0.601 4.193,-0.9 6.491,-0.9 2.676,0 4.881,0.344 6.563,1.004 1.682,0.677 2.948,1.622 3.778,2.795 0.802,1.174 1.217,2.555 1.244,4.145 0.022,1.599 -0.257,3.27 -0.785,5.017 -3.293,10.444 -6.563,20.883 -9.828,31.311 -0.163,0.469 0.044,0.895 0.595,1.266 0.552,0.366 1.174,0.759 1.89,1.174 0.666,0.393 1.288,0.83 1.818,1.311 0.508,0.475 0.688,1.016 0.48,1.626 -0.137,0.47 -0.573,0.907 -1.311,1.311 -0.71,0.404 -1.562,0.769 -2.533,1.119 -0.939,0.333 -1.911,0.606 -2.851,0.802 -0.972,0.208 -1.752,0.312 -2.347,0.312 -0.443,0 -0.879,-0.032 -1.315,-0.104 -0.416,-0.07 -0.901,-0.104 -1.426,-0.104 -0.415,-0.071 -0.852,-0.104 -1.358,-0.104 -0.486,0 -0.989,0 -1.496,0 -0.372,0 -0.781,0 -1.246,0 -0.436,0 -0.9,0.033 -1.38,0.104 -0.438,0 -0.874,0.033 -1.36,0.104 -0.458,0.072 -0.923,0.104 -1.359,0.104 -0.852,0 -1.703,-0.104 -2.599,-0.312 -0.896,-0.196 -1.703,-0.48 -2.419,-0.851 -0.688,-0.366 -1.288,-0.759 -1.746,-1.174 -0.486,-0.404 -0.645,-0.808 -0.508,-1.207 0.186,-0.611 0.688,-1.152 1.495,-1.626 0.853,-0.48 1.726,-0.918 2.67,-1.311 0.944,-0.415 1.796,-0.808 2.604,-1.174 0.78,-0.372 1.267,-0.797 1.382,-1.266 3.034,-9.625 6.054,-19.246 9.09,-28.871 0.601,-1.954 0.37,-3.542 -0.71,-4.716 -1.082,-1.174 -2.44,-1.774 -4.078,-1.774 -0.924,0 -1.796,0.114 -2.626,0.354 -0.852,0.246 -1.813,0.476 -2.85,0.704 -1.06,0.24 -2.233,0.486 -3.528,0.716 -1.288,0.229 -2.806,0.354 -4.53,0.354 -3.456,11.089 -6.934,22.161 -10.406,33.233 -0.163,0.469 0.043,0.895 0.601,1.266 0.552,0.366 1.168,0.759 1.862,1.174 0.692,0.393 1.288,0.83 1.817,1.311 0.53,0.475 0.693,1.016 0.508,1.626 -0.158,0.47 -0.601,0.907 -1.315,1.311 -0.71,0.404 -1.584,0.769 -2.528,1.119 -0.944,0.333 -1.938,0.606 -2.877,0.802 -0.944,0.208 -1.725,0.312 -2.325,0.312 -0.459,0 -0.901,-0.032 -1.338,-0.104 -0.415,-0.07 -0.874,-0.104 -1.403,-0.104 -0.437,-0.071 -0.874,-0.104 -1.359,-0.104 -0.486,0 -0.988,0 -1.518,0 -0.365,0 -0.759,0 -1.218,0 -0.442,0 -0.901,0.033 -1.365,0.104 -0.458,0 -0.917,0.033 -1.376,0.104 -0.464,0.072 -0.922,0.104 -1.387,0.104 -0.824,0 -1.676,-0.104 -2.576,-0.312 -0.896,-0.196 -1.726,-0.48 -2.413,-0.851 -0.716,-0.366 -1.288,-0.759 -1.753,-1.174 -0.485,-0.404 -0.644,-0.808 -0.529,-1.207 0.208,-0.611 0.688,-1.152 1.518,-1.626 0.83,-0.48 1.704,-0.918 2.648,-1.311 0.944,-0.415 1.817,-0.808 2.604,-1.174 0.778,-0.372 1.265,-0.798 1.402,-1.267 z"
             id="path4255"
             style="fill:#ffffff"
             inkscape:connector-curvature="0" /><path
             d="m 265.689,302.311 c 4.008,-12.732 7.993,-25.463 12,-38.195 -1.752,-0.617 -3.111,-1.229 -4.1,-1.873 -0.988,-0.633 -1.381,-1.337 -1.152,-2.085 0.252,-0.803 0.896,-1.36 1.982,-1.665 1.081,-0.312 2.369,-0.453 3.936,-0.453 5.41,0 10.794,0 16.204,0 1.567,0 2.884,0.142 3.938,0.453 1.059,0.305 1.473,0.862 1.222,1.665 -0.277,0.808 -1.107,1.567 -2.533,2.282 -1.402,0.71 -3.128,1.289 -5.202,1.676 -3.986,12.732 -7.988,25.463 -11.994,38.195 -0.138,0.469 0.07,0.895 0.622,1.266 0.551,0.366 1.174,0.759 1.861,1.174 0.693,0.393 1.293,0.83 1.823,1.311 0.523,0.475 0.688,1.016 0.503,1.626 -0.159,0.47 -0.574,0.907 -1.312,1.311 -0.714,0.404 -1.566,0.769 -2.532,1.119 -0.966,0.333 -1.934,0.606 -2.878,0.802 -0.966,0.208 -1.746,0.312 -2.325,0.312 -0.459,0 -0.895,-0.032 -1.311,-0.104 -0.414,-0.07 -0.9,-0.104 -1.425,-0.104 -0.415,-0.071 -0.879,-0.104 -1.359,-0.104 -0.486,0 -0.994,0 -1.502,0 -0.365,0 -0.802,0 -1.238,0 -0.465,0 -0.923,0.033 -1.382,0.104 -0.437,0 -0.896,0.033 -1.359,0.104 -0.459,0.072 -0.944,0.104 -1.359,0.104 -0.852,0 -1.703,-0.104 -2.599,-0.312 -0.9,-0.196 -1.704,-0.48 -2.419,-0.851 -0.693,-0.366 -1.288,-0.759 -1.752,-1.174 -0.481,-0.404 -0.645,-0.808 -0.524,-1.207 0.207,-0.611 0.709,-1.152 1.518,-1.626 0.83,-0.48 1.703,-0.918 2.647,-1.311 0.945,-0.415 1.84,-0.808 2.6,-1.174 0.785,-0.371 1.266,-0.797 1.401,-1.266 z m 23.281,-51.364 c -0.973,0 -1.911,-0.055 -2.856,-0.159 -0.943,-0.103 -1.752,-0.322 -2.418,-0.655 -0.688,-0.333 -1.152,-0.808 -1.452,-1.414 -0.322,-0.622 -0.295,-1.387 0,-2.326 0.35,-1.086 0.852,-1.96 1.522,-2.604 0.688,-0.622 1.47,-1.114 2.392,-1.463 0.88,-0.333 1.84,-0.562 2.899,-0.699 1.037,-0.142 2.053,-0.208 2.997,-0.208 0.988,0 1.934,0.043 2.878,0.147 0.943,0.104 1.725,0.344 2.392,0.704 0.666,0.388 1.13,0.896 1.358,1.518 0.257,0.645 0.208,1.474 -0.093,2.49 -0.622,1.965 -1.84,3.221 -3.707,3.794 -1.84,0.58 -3.843,0.875 -5.912,0.875 z"
             id="path4257"
             style="fill:#ffffff"
             inkscape:connector-curvature="0" /><path
             d="m 336.555,257.434 c 6.169,0 10.635,0.95 13.441,2.888 2.785,1.921 3.57,4.777 2.396,8.561 -0.394,1.212 -1.037,2.348 -1.96,3.385 -0.917,1.048 -1.998,1.949 -3.243,2.697 -1.244,0.737 -2.555,1.332 -3.963,1.769 -1.403,0.437 -2.828,0.655 -4.237,0.655 -1.354,0 -2.412,-0.202 -3.198,-0.606 -0.825,-0.404 -1.476,-0.862 -1.999,-1.37 -0.507,-0.497 -0.923,-0.956 -1.245,-1.37 -0.3,-0.404 -0.666,-0.602 -1.016,-0.602 -0.895,0 -1.582,0.372 -2.024,1.12 -0.53,-0.278 -0.852,-0.672 -0.988,-1.162 -0.137,-0.508 -0.137,-1.038 0.043,-1.578 0.3,-1.026 0.972,-1.878 1.981,-2.588 1.011,-0.716 2.19,-1.06 3.522,-1.06 0.966,0 1.752,0.044 2.348,0.147 0.601,0.104 1.2,0.148 1.796,0.148 0.83,0 1.431,-0.18 1.796,-0.552 0.371,-0.366 0.601,-0.688 0.716,-0.966 0.18,-0.611 0.021,-1.163 -0.438,-1.671 -0.464,-0.502 -1.108,-0.939 -1.866,-1.321 -0.804,-0.366 -1.634,-0.666 -2.577,-0.912 -0.923,-0.24 -1.774,-0.355 -2.512,-0.355 -2.855,0 -5.41,0.459 -7.688,1.381 -2.304,0.896 -4.352,2.129 -6.147,3.686 -1.796,1.566 -3.313,3.406 -4.58,5.524 -1.245,2.13 -2.282,4.406 -3.014,6.836 -0.923,2.916 -1.452,5.443 -1.496,7.6 -0.099,2.162 0.437,3.958 1.54,5.372 1.103,1.42 2.926,2.479 5.481,3.188 2.528,0.715 6.005,1.07 10.406,1.07 1.402,0 2.92,-0.126 4.553,-0.354 1.659,-0.24 3.226,-0.644 4.744,-1.223 1.545,-0.573 2.97,-1.333 4.352,-2.276 1.381,-0.944 2.512,-2.118 3.384,-3.544 0.853,0.208 1.59,0.574 2.256,1.114 0.622,0.54 1.13,1.196 1.496,1.971 0.344,0.78 0.529,1.61 0.6,2.484 0.072,0.873 -0.027,1.725 -0.277,2.533 -0.645,2.026 -1.66,3.894 -3.036,5.569 -1.387,1.703 -2.948,3.112 -4.63,4.258 -1.704,1.152 -3.499,2.052 -5.389,2.696 -1.861,0.646 -3.613,0.956 -5.246,0.956 -2.834,0 -5.132,-0.104 -6.836,-0.3 -0.808,-0.082 -1.567,-0.126 -2.304,-0.208 -0.716,-0.071 -1.452,-0.104 -2.189,-0.104 -1.566,0 -3.198,0.104 -4.902,0.312 -0.852,0.06 -1.704,0.126 -2.626,0.196 -0.918,0.071 -1.91,0.104 -2.942,0.104 -2.304,0 -4.423,-0.612 -6.312,-1.818 -1.884,-1.222 -3.406,-2.916 -4.559,-5.078 -1.125,-2.15 -1.818,-4.716 -1.977,-7.687 -0.186,-2.97 0.251,-6.196 1.333,-9.636 1.408,-4.456 3.318,-8.518 5.754,-12.202 2.396,-3.686 5.296,-6.846 8.658,-9.472 3.363,-2.637 7.114,-4.674 11.302,-6.077 4.149,-1.43 8.681,-2.128 13.518,-2.128 z"
             id="path4259"
             style="fill:#ffffff"
             inkscape:connector-curvature="0" /><path
             d="m 355.636,301.295 c 5.896,-18.808 11.787,-37.617 17.684,-56.436 -0.486,-0.262 -1.06,-0.551 -1.704,-0.862 -0.666,-0.301 -1.266,-0.623 -1.845,-0.956 -0.552,-0.344 -0.987,-0.715 -1.311,-1.114 -0.322,-0.415 -0.415,-0.879 -0.229,-1.43 0.251,-0.802 0.896,-1.359 1.977,-1.654 1.06,-0.3 2.375,-0.464 3.942,-0.464 5.612,0 11.257,0 16.87,0 1.566,0 2.855,0.164 3.941,0.464 1.059,0.295 1.469,0.852 1.195,1.654 -0.137,0.486 -0.508,0.923 -1.087,1.327 -0.572,0.398 -1.238,0.791 -2.02,1.163 -0.809,0.366 -1.616,0.709 -2.467,1.01 -0.83,0.311 -1.611,0.6 -2.256,0.862 -2.004,6.322 -3.979,12.628 -5.962,18.961 1.496,-0.278 2.878,-0.737 4.166,-1.381 1.288,-0.644 2.697,-1.288 4.258,-1.982 1.567,-0.666 3.342,-1.245 5.411,-1.703 2.047,-0.486 4.581,-0.715 7.644,-0.715 2.304,0 4.493,0.218 6.541,0.644 2.068,0.437 3.771,1.13 5.131,2.025 1.338,0.923 2.304,2.075 2.877,3.456 0.579,1.381 0.552,3.025 -0.021,4.914 -0.645,2.015 -1.889,3.664 -3.729,4.919 -1.84,1.24 -3.85,2.184 -6.033,2.828 -2.183,0.644 -4.329,1.06 -6.448,1.266 -2.09,0.208 -3.75,0.312 -4.946,0.312 -2.146,0 -3.57,-0.082 -4.264,-0.268 -0.71,-0.158 -1.238,-0.25 -1.604,-0.25 -0.371,0 -0.601,0.136 -0.693,0.415 -0.022,0.136 0.186,0.344 0.693,0.666 0.502,0.3 1.124,0.578 1.84,0.852 3.243,1.256 6.448,2.512 9.669,3.756 1.932,0.737 3.363,1.676 4.236,2.828 0.917,1.152 1.496,2.5 1.77,4.051 0.256,1.567 0.256,3.319 -0.044,5.274 -0.252,1.955 -0.666,4.155 -1.223,6.585 0.786,0.415 1.544,0.862 2.374,1.381 0.803,0.486 1.54,1.038 2.162,1.61 0.645,0.58 1.174,1.109 1.566,1.611 0.394,0.519 0.552,0.912 0.459,1.174 -0.251,0.808 -1.267,1.534 -3.085,2.178 -1.796,0.633 -3.821,0.966 -6.054,0.966 -0.53,0 -1.011,-0.032 -1.475,-0.104 -0.48,-0.07 -0.918,-0.104 -1.382,-0.104 -0.479,-0.071 -0.944,-0.104 -1.358,-0.104 -0.388,0 -0.825,0 -1.288,0 -0.438,0 -0.968,0 -1.611,0 -0.622,0 -1.288,0.033 -1.981,0.104 -0.595,0 -1.146,0.033 -1.703,0.104 -0.552,0.072 -0.962,0.104 -1.268,0.104 -1.261,0 -2.112,-0.677 -2.555,-2.026 -0.409,-1.359 -0.344,-2.98 0.257,-4.87 0.573,-1.818 1.08,-3.729 1.566,-5.722 0.481,-1.993 0.71,-3.925 0.71,-5.836 0,-1.872 -0.322,-3.614 -0.988,-5.214 -0.666,-1.578 -1.84,-2.844 -3.564,-3.794 -2.583,-1.484 -4.516,-2.664 -5.804,-3.538 -1.288,-0.884 -1.704,-2.025 -1.267,-3.45 0.322,-1.016 0.944,-1.911 1.861,-2.686 0.901,-0.78 2.375,-1.174 4.379,-1.174 1.496,0 2.784,0.142 3.908,0.404 1.109,0.278 2.72,0.416 4.882,0.416 2.304,0 3.963,-0.426 4.93,-1.267 0.966,-0.852 1.654,-1.933 2.091,-3.292 0.394,-1.217 0,-2.184 -1.146,-2.948 -1.152,-0.731 -2.784,-1.103 -4.952,-1.103 -1.566,0 -3.04,0.186 -4.416,0.551 -1.388,0.372 -2.741,0.797 -4.029,1.267 -1.316,0.475 -2.626,0.944 -3.964,1.43 -1.354,0.458 -2.763,0.836 -4.259,1.103 -3.45,10.947 -6.879,21.894 -10.29,32.829 0.441,0.415 0.966,0.84 1.566,1.31 0.6,0.486 1.174,0.955 1.703,1.43 0.507,0.48 0.923,0.944 1.201,1.414 0.316,0.475 0.409,0.89 0.295,1.223 -0.137,0.47 -0.573,0.907 -1.311,1.311 -0.715,0.404 -1.566,0.769 -2.511,1.119 -0.968,0.333 -1.934,0.606 -2.878,0.802 -0.966,0.208 -1.746,0.312 -2.348,0.312 -0.595,0 -1.174,-0.032 -1.703,-0.104 -0.529,-0.07 -1.06,-0.104 -1.589,-0.104 -0.48,-0.071 -0.988,-0.104 -1.475,-0.104 -0.479,0 -1.037,0 -1.61,0 -0.393,0 -0.759,0 -1.174,0 -0.414,0 -0.852,0.033 -1.31,0.104 -0.464,0 -0.923,0.033 -1.388,0.104 -0.458,0.072 -0.916,0.104 -1.353,0.104 -0.83,0 -1.704,-0.104 -2.605,-0.312 -0.895,-0.196 -1.702,-0.48 -2.418,-0.851 -0.688,-0.366 -1.288,-0.759 -1.747,-1.174 -0.459,-0.404 -0.645,-0.808 -0.508,-1.207 0.257,-0.808 0.786,-1.474 1.639,-1.982 0.802,-0.507 1.702,-0.955 2.647,-1.37 0.938,-0.404 1.839,-0.83 2.62,-1.267 0.833,-0.437 1.341,-1.021 1.592,-1.775 z"
             id="path4261"
             style="fill:#ffffff"
             inkscape:connector-curvature="0" /><path
             d="m 457.92,258.04 c 5.503,0 11.028,0 16.531,0 1.195,0 2.512,0.071 3.958,0.256 1.426,0.158 2.692,0.502 3.751,1.01 1.059,0.508 1.867,1.234 2.446,2.179 0.551,0.955 0.595,2.194 0.108,3.739 -0.78,2.44 -2.205,4.478 -4.323,6.126 -2.118,1.654 -4.629,3.172 -7.457,4.52 -2.856,1.349 -5.897,2.616 -9.118,3.79 -3.248,1.195 -6.333,2.462 -9.304,3.811 -2.947,1.354 -5.617,2.899 -8.008,4.662 -2.376,1.748 -4.078,3.844 -5.138,6.284 1.73,1.152 3.663,1.922 5.852,2.326 2.185,0.416 4.467,0.606 6.836,0.606 1.425,0 2.97,-0.126 4.603,-0.354 1.632,-0.24 3.199,-0.644 4.722,-1.223 1.54,-0.573 2.992,-1.333 4.346,-2.276 1.388,-0.944 2.534,-2.118 3.412,-3.544 0.826,0.208 1.568,0.574 2.234,1.114 0.644,0.54 1.124,1.196 1.495,1.971 0.345,0.78 0.551,1.61 0.601,2.484 0.066,0.873 -0.027,1.725 -0.278,2.533 -0.644,2.026 -1.659,3.894 -3.041,5.569 -1.381,1.703 -2.921,3.112 -4.624,4.258 -1.709,1.152 -3.479,2.052 -5.367,2.696 -1.867,0.646 -3.636,0.956 -5.273,0.956 -2.828,0 -5.11,-0.104 -6.836,-0.3 -0.78,-0.082 -1.561,-0.126 -2.276,-0.208 -0.737,-0.071 -1.452,-0.104 -2.211,-0.104 -1.566,0 -3.177,0.104 -4.902,0.312 -0.83,0.06 -1.704,0.126 -2.626,0.196 -0.923,0.071 -1.89,0.104 -2.921,0.104 -2.325,0 -4.423,-0.612 -6.333,-1.818 -1.867,-1.222 -3.385,-2.916 -4.537,-5.078 -1.151,-2.15 -1.817,-4.716 -2.004,-7.687 -0.186,-2.97 0.278,-6.196 1.36,-9.636 1.08,-3.445 2.626,-6.917 4.673,-10.428 2.025,-3.51 4.516,-6.666 7.414,-9.429 2.921,-2.763 6.24,-5.018 9.969,-6.792 3.705,-1.747 7.8,-2.625 12.266,-2.625 z m 11.443,10.531 c 0.622,-2.037 0,-3.408 -1.889,-4.155 -1.89,-0.737 -4.466,-1.114 -7.736,-1.114 -1.955,0 -3.937,0.196 -5.983,0.563 -2.069,0.371 -4.052,1.152 -5.984,2.325 -1.96,1.186 -3.729,2.866 -5.388,5.067 -1.66,2.194 -3.063,5.088 -4.193,8.664 -0.666,2.167 -1.146,4.182 -1.447,6.022 -0.256,1.866 -0.093,3.428 0.53,4.716 1.747,-2.424 3.679,-4.488 5.825,-6.18 2.113,-1.692 4.302,-3.118 6.535,-4.313 2.232,-1.18 4.422,-2.189 6.605,-3.03 2.141,-0.841 4.149,-1.671 5.962,-2.474 1.823,-0.83 3.363,-1.704 4.63,-2.648 1.267,-0.944 2.118,-2.095 2.533,-3.443 z"
             id="path4263"
             style="fill:#ffffff"
             inkscape:connector-curvature="0" /><path
             d="m 495.793,258.04 c 6.055,0 12.06,0 18.092,0 1.196,0 2.119,0.142 2.742,0.393 0.594,0.278 0.83,0.688 0.666,1.217 -0.208,0.683 -0.716,1.294 -1.519,1.834 -0.78,0.54 -1.659,1.048 -2.554,1.518 -0.88,0.47 -1.704,0.934 -2.485,1.371 -0.786,0.436 -1.223,0.895 -1.387,1.359 -0.114,0.415 -0.25,0.83 -0.388,1.218 2.392,-0.47 4.352,-1.196 5.848,-2.173 1.496,-0.983 2.92,-1.982 4.352,-2.981 1.381,-1.016 2.942,-1.9 4.646,-2.648 1.752,-0.737 4.099,-1.108 7.069,-1.108 2.669,0 4.858,0.344 6.563,1.004 1.654,0.677 2.921,1.622 3.75,2.795 0.809,1.174 1.245,2.555 1.267,4.145 0.044,1.599 -0.229,3.27 -0.808,5.017 -3.243,10.444 -6.535,20.883 -9.805,31.311 -0.138,0.469 0.044,0.895 0.6,1.266 0.552,0.366 1.174,0.759 1.889,1.174 0.688,0.393 1.289,0.83 1.818,1.311 0.529,0.475 0.688,1.016 0.508,1.626 -0.163,0.47 -0.601,0.907 -1.316,1.311 -0.714,0.404 -1.588,0.769 -2.532,1.119 -0.966,0.333 -1.933,0.606 -2.899,0.802 -0.944,0.208 -1.725,0.312 -2.326,0.312 -0.437,0 -0.872,-0.032 -1.288,-0.104 -0.437,-0.07 -0.895,-0.104 -1.43,-0.104 -0.437,-0.071 -0.874,-0.104 -1.354,-0.104 -0.508,0 -0.994,0 -1.518,0 -0.371,0 -0.786,0 -1.245,0 -0.437,0 -0.873,0.033 -1.359,0.104 -0.464,0 -0.922,0.033 -1.382,0.104 -0.458,0.072 -0.922,0.104 -1.38,0.104 -0.809,0 -1.66,-0.104 -2.578,-0.312 -0.9,-0.196 -1.708,-0.48 -2.396,-0.851 -0.709,-0.366 -1.288,-0.759 -1.768,-1.174 -0.465,-0.404 -0.65,-0.808 -0.508,-1.207 0.18,-0.611 0.688,-1.152 1.518,-1.626 0.802,-0.48 1.702,-0.918 2.626,-1.311 0.966,-0.415 1.84,-0.808 2.62,-1.174 0.786,-0.372 1.244,-0.797 1.408,-1.266 2.97,-9.533 5.984,-19.038 8.976,-28.57 0.486,-1.567 0.394,-2.877 -0.229,-3.958 -0.622,-1.082 -1.796,-1.611 -3.521,-1.611 -1.939,0 -3.593,0.208 -4.996,0.596 -1.382,0.414 -2.647,0.874 -3.777,1.38 -1.126,0.508 -2.206,0.967 -3.244,1.404 -1.015,0.442 -2.167,0.671 -3.456,0.671 -3.128,10.035 -6.283,20.064 -9.418,30.088 -0.157,0.469 0.05,0.895 0.602,1.266 0.552,0.366 1.174,0.759 1.867,1.174 0.688,0.393 1.289,0.83 1.817,1.311 0.53,0.475 0.688,1.016 0.508,1.626 -0.163,0.47 -0.6,0.907 -1.315,1.311 -0.715,0.404 -1.566,0.769 -2.527,1.119 -0.951,0.333 -1.911,0.606 -2.883,0.802 -0.938,0.208 -1.725,0.312 -2.326,0.312 -0.458,0 -0.895,-0.032 -1.311,-0.104 -0.436,-0.07 -0.896,-0.104 -1.43,-0.104 -0.41,-0.071 -0.874,-0.104 -1.354,-0.104 -0.486,0 -0.994,0 -1.519,0 -0.37,0 -0.786,0 -1.223,0 -0.437,0 -0.896,0.033 -1.381,0.104 -0.437,0 -0.9,0.033 -1.36,0.104 -0.48,0.072 -0.916,0.104 -1.381,0.104 -0.803,0 -1.676,-0.104 -2.577,-0.312 -0.9,-0.196 -1.702,-0.48 -2.418,-0.851 -0.71,-0.366 -1.288,-0.759 -1.77,-1.174 -0.464,-0.404 -0.622,-0.808 -0.486,-1.207 0.187,-0.611 0.694,-1.152 1.496,-1.626 0.83,-0.48 1.704,-0.918 2.648,-1.311 0.967,-0.415 1.817,-0.808 2.599,-1.174 0.809,-0.372 1.267,-0.797 1.408,-1.266 3.702,-11.82 7.437,-23.629 11.139,-35.465 0.306,-0.934 0.234,-1.704 -0.181,-2.277 -0.415,-0.568 -0.923,-1.07 -1.567,-1.463 -0.601,-0.415 -1.152,-0.819 -1.61,-1.217 -0.485,-0.404 -0.573,-0.983 -0.344,-1.73 0.322,-1.081 0.966,-1.704 1.862,-1.862 0.921,-0.188 1.887,-0.258 2.925,-0.258 z"
             id="path4265"
             style="fill:#ffffff"
             inkscape:connector-curvature="0" /><path
             d="m 586.979,258.04 c 7.364,0 14.734,0 22.1,0 3.871,0 6.333,0.551 7.37,1.67 1.011,1.119 1.288,2.408 0.853,3.903 -0.442,1.343 -1.295,2.44 -2.627,3.292 -1.288,0.84 -2.762,1.266 -4.399,1.266 -1.634,0 -2.899,-0.278 -3.773,-0.808 -0.873,-0.551 -1.152,-1.338 -0.829,-2.336 0.343,-1.152 -0.252,-1.725 -1.818,-1.725 -3.821,0 -7.665,0 -11.487,0 -2.184,0 -3.985,0.196 -5.388,0.611 -1.426,0.399 -2.348,1.218 -2.714,2.424 -0.35,1.026 0.294,1.91 1.817,2.697 1.54,0.769 3.522,1.599 5.913,2.473 2.419,0.874 5.001,1.911 7.764,3.096 2.762,1.185 5.197,2.658 7.315,4.412 2.146,1.747 3.707,3.887 4.701,6.376 1.01,2.506 0.967,5.536 -0.163,9.118 -0.874,2.772 -2.092,5.224 -3.638,7.342 -1.566,2.13 -3.292,3.898 -5.202,5.318 -1.89,1.425 -3.866,2.506 -5.94,3.244 -2.074,0.736 -3.958,1.119 -5.754,1.119 -2.397,0 -4.695,-0.136 -6.906,-0.404 -2.255,-0.262 -4.537,-0.404 -6.906,-0.404 -2.025,0 -4.145,0.142 -6.333,0.404 -2.233,0.268 -4.603,0.404 -7.136,0.404 -1.633,0 -3.2,-0.218 -4.695,-0.655 -1.496,-0.438 -2.741,-1.131 -3.707,-2.075 -0.966,-0.956 -1.638,-2.118 -2.025,-3.5 -0.393,-1.38 -0.278,-3.062 0.344,-5.017 0.508,-1.682 1.195,-3.042 2.048,-4.051 0.83,-1.015 1.682,-1.911 2.512,-2.68 0.851,-0.776 1.632,-1.534 2.368,-2.234 0.76,-0.704 1.316,-1.599 1.639,-2.686 0.251,-0.813 0.207,-1.654 -0.093,-2.527 1.54,-0.416 3.336,-0.601 5.34,-0.601 1.933,0 3.499,0.644 4.744,1.955 1.195,1.327 1.446,3.177 0.714,5.524 -0.671,2.168 -0.142,3.549 1.611,4.1 1.769,0.584 4.165,0.874 7.201,0.874 3.227,0 6.147,-0.508 8.729,-1.474 2.62,-0.966 4.302,-2.626 5.018,-4.924 0.622,-2.015 0.164,-3.778 -1.403,-5.318 -1.566,-1.507 -3.685,-2.97 -6.376,-4.4 -2.698,-1.414 -5.618,-2.877 -8.84,-4.417 -3.204,-1.506 -6.126,-3.281 -8.772,-5.306 -0.989,-0.683 -1.682,-1.349 -2.098,-2.026 -0.437,-0.682 -0.692,-1.326 -0.802,-1.922 -0.093,-0.612 -0.093,-1.141 -0.028,-1.578 0.115,-0.436 0.208,-0.818 0.322,-1.162 0.672,-2.168 2.648,-3.937 5.919,-5.318 3.271,-1.381 7.776,-2.074 13.51,-2.074 z"
             id="path4267"
             style="fill:#ffffff"
             inkscape:connector-curvature="0" /></g><path
           d="m 727.294,407.356 c -7.388,-6.157 -16.733,-9.417 -27.048,-9.417 -7.254,0 -13.904,1.202 -19.752,3.57 -2.031,0.809 -4.008,1.704 -5.989,2.67 -6.557,-4.083 -14.342,-6.24 -22.63,-6.24 -1.146,0 -2.255,0.072 -3.385,0.116 l -44.474,-67.372 c 0.044,-0.01 0.088,-0.032 0.115,-0.032 4.051,-1.474 7.917,-3.571 11.509,-6.252 3.592,-2.68 6.862,-5.983 9.646,-9.816 2.949,-4.008 5.247,-8.588 6.836,-13.632 2.396,-7.594 2.512,-14.801 0.415,-21.385 2.369,-2.784 4.171,-6.022 5.274,-9.532 2.762,-8.817 0.666,-18 -5.575,-24.781 -7.917,-8.577 -19.381,-8.462 -23.159,-8.462 l -22.1,0 c -1.797,0 -3.565,-0.065 -5.269,0.049 -0.602,-3.614 -1.911,-7.048 -3.941,-9.969 -4.303,-6.24 -11.368,-9.991 -18.945,-9.991 -8.725,0 -16.461,4.903 -21.407,12.879 L 465.17,120.279 C 442.196,85.474 409.067,65.514 374.307,65.514 c -34.74,0 -67.847,19.889 -90.82,54.688 l -63.768,96.514 -0.785,0 c -3.593,0 -6.813,0.508 -9.827,1.36 -2.212,0.633 -4.308,1.588 -6.219,2.762 -2.506,-1.152 -5.153,-2.096 -7.916,-2.806 -10.729,-2.741 -23.853,-2.468 -36.465,2.298 -6.792,2.583 -13.266,6.273 -19.25,11.028 -5.824,4.603 -11.115,10.209 -15.702,16.646 -4.76,6.65 -8.468,14.178 -11.027,22.33 -2.37,7.562 -3.287,14.943 -2.735,21.942 0.645,8.124 3.221,15.445 7.643,21.708 4.467,6.333 10.543,11.224 18.072,14.572 2.713,1.195 5.617,2.096 8.632,2.811 l -23.434,34.647 c -2.004,-0.125 -4.028,-1.152 -5.94,-1.152 l -60.982,0 c -10.914,0 -20.704,6.054 -27.626,14.687 -7.507,9.368 -11.492,22.65 -6.448,35.868 l 0,0.633 -0.758,0.23 c 0.896,9.078 0.272,18.534 -0.765,20.303 -0.295,0.383 -1.747,1.235 -2.556,1.786 -3.058,2.161 -7.823,5.41 -6.212,10.448 2.576,8.162 20.719,9.025 28.405,9.025 4.329,0 8.589,-0.831 12.732,-2.047 l -5.477,19.407 c -2.053,1.093 -4.029,2.195 -5.896,3.314 -7.528,4.487 -12.71,11.154 -15.009,19.267 -1.84,6.584 -1.151,13.414 1.748,19.388 -9.598,25.839 -8.954,50.636 2.211,71.4 15.516,28.831 47.957,44.97 91.327,44.97 l 509.713,0 c 43.376,0 75.812,-16.139 91.306,-44.97 10.084,-18.704 11.579,-40.854 4.694,-63.976 5.438,-4.362 9.096,-10.34 10.384,-17.001 1.54,-7.851 -0.3,-15.838 -5.017,-22.242 l 8.288,-42.634 c 2.715,-14.064 -1.451,-26.98 -11.534,-35.362 z m -82.947,-8.931 c -3.014,0.395 -5.935,2.005 -8.653,2.834 -3.937,-1.522 -8.223,-1.244 -13.032,-1.244 l -6.721,0 -43.305,-66.416 c 0.278,-0.038 0.601,-0.579 0.873,-0.6 3.063,-0.383 5.668,-0.552 8.059,-0.268 3.063,0.371 6.262,0.442 9.511,0.442 3.063,0 6.169,-0.497 9.303,-1.316 l 43.965,66.568 z M 508.824,374.043 c -4.007,-3.772 -11.027,-9.183 -21.712,-9.183 l -22.1,0 c -5.411,0 -10.544,2.172 -15.288,4.673 -7.872,4.166 -13.397,12.142 -15.149,21.156 -0.366,1.807 -0.524,3.844 -0.552,5.662 -7.043,0.993 -13.763,3.385 -20.118,6.956 -0.552,0.299 -1.13,0.703 -1.682,1.036 -4.215,-3.363 -10.521,-6.426 -19.589,-6.426 -4.93,0 -9.073,-0.022 -12.388,-0.137 -3.456,-0.092 -6.376,-0.208 -8.796,-0.3 -2.232,-0.093 -4.116,-0.187 -5.66,-0.301 -2.256,-0.136 -4.26,-0.208 -6.056,-0.208 -10.477,0 -20.304,1.692 -29.17,5.018 -6.994,2.626 -13.44,6.197 -19.223,10.653 -3.937,-4.745 -8.997,-8.464 -15.102,-11.063 -5.776,-2.439 -12.202,-3.642 -19.61,-3.642 -5.023,0 -9.467,1.568 -13.562,2.604 -3.386,-1.036 -6.956,-0.529 -10.958,-0.529 l -18.163,0 c -0.415,-7.529 -1.131,-5.984 -2.167,-8.32 -2.626,-6.022 -7.044,-11.477 -12.798,-14.851 -4.078,-2.358 -8.609,-4.11 -13.468,-4.684 -4.674,-0.557 -9.462,-1.588 -14.458,-0.944 -3.821,-2.67 -9.598,-6.354 -17.404,-6.354 l -4.374,0 23.045,-35.198 c 3.473,0.731 6.929,0.044 10.407,0.044 l 3.936,0 c 3.271,0 6.469,1.659 10.269,0.851 1.584,-0.333 3.2,-0.082 4.762,-0.589 1.358,0.497 2.762,-0.137 4.215,0.185 3.636,0.808 7.206,-0.447 10.799,-0.447 l 3.937,0 c 3.242,0 6.42,1.659 10.264,0.851 1.152,-0.24 2.353,0.148 3.521,-0.207 1.038,0.344 2.075,-0.426 3.091,-0.197 3.614,0.797 7.179,-0.447 10.793,-0.447 l 3.937,0 c 3.249,0 6.447,1.659 10.27,0.851 1.861,-0.393 3.729,-0.207 5.547,-0.851 1.475,-0.53 2.877,-0.759 4.215,-1.414 5.018,2.888 10.706,4.569 16.554,4.569 1.566,0 3.063,0.033 4.53,-0.071 l 3.594,-0.251 c 0.808,-0.092 1.632,-0.13 2.582,-0.13 l 2.068,0.196 c 5.269,0.59 13.447,0.966 21.228,-1.682 0.114,-0.054 0.278,-0.104 0.414,-0.136 1.262,0.436 2.556,-0.574 3.888,-0.3 3.614,0.818 7.185,-0.78 10.777,-0.78 l 4.302,0 c 3.292,0 6.611,1.681 10.592,0.851 1.861,-0.393 3.729,-0.207 5.525,-0.851 0.83,-0.301 1.632,-0.251 2.418,-0.574 3.658,2.14 7.802,3.428 12.196,3.428 1.086,0 2.168,0.022 3.456,-0.125 l 4.996,0.043 c 5.731,0.656 11.694,-0.125 16.897,-1.964 0.736,-0.279 1.474,-0.558 2.188,-0.88 5.918,2.904 12.754,3.708 19.152,3.227 l 3.571,-0.278 c 0.829,-0.114 1.653,-0.136 2.555,-0.136 l 2.096,0.169 c 5.27,0.589 13.42,0.956 21.249,-1.692 0.48,-0.169 0.938,-0.344 1.402,-0.53 1.589,0.65 3.222,-0.272 4.882,0.121 3.636,0.802 7.229,-0.808 10.793,-0.808 l 3.964,0 c 3.243,0 6.441,1.659 10.264,0.851 1.567,-0.333 3.178,-0.07 4.766,-0.589 1.338,0.497 2.741,-0.137 4.194,0.175 3.613,0.818 7.2,-0.437 10.793,-0.437 l 3.937,0 c 3.271,0 6.448,1.659 10.269,0.851 1.84,-0.393 3.707,-0.207 5.548,-0.851 1.91,-0.666 3.728,-1.131 5.388,-2.026 2.396,1.518 4.996,2.855 7.758,3.658 1.196,0.349 2.463,1.681 3.708,1.9 l 43.299,66.775 -3.543,0 c -3.243,0 -6.448,-0.715 -9.462,-0.082 -4.214,0.884 -8.102,2.167 -11.464,4.733 -1.818,-1.06 -3.658,-2.283 -5.569,-3.112 -7.895,-3.521 -16.925,-5.421 -26.866,-5.421 -9.096,0 -17.706,0.89 -25.622,3.63 1.423,-13.217 -4.698,-21.898 -8.728,-25.719 z M 286.551,122.217 c 22.286,-33.75 54.263,-53.088 87.757,-53.088 33.521,0 65.52,19.381 87.806,53.154 l 73.321,111.112 c -0.48,1.048 -0.966,2.108 -1.359,3.238 -4.351,-0.278 -8.796,0.136 -12.59,0.944 -2.353,-0.611 -4.858,-0.786 -7.601,-0.786 l -4.65,0 -61.857,-97.218 c -18.622,-28.237 -45.996,-43.36 -68.582,-43.36 l 0,-0.289 c -30.153,0 -54.442,15.423 -73.092,43.649 l -54.492,80.828 c -1.61,-0.873 -3.821,-1.774 -5.661,-2.282 -3.041,-0.862 -6.813,-1.403 -10.406,-1.403 l -11.028,0 62.434,-94.499 z m 207.031,114.415 c -1.567,0.093 -3.134,0.229 -4.651,0.502 -0.988,0.197 -2.026,0.464 -2.992,0.764 -1.66,-0.453 -3.363,-0.633 -5.044,-0.83 -2.256,-0.267 -4.439,-0.278 -6.443,-0.278 l -16.532,0 c -7.643,0 -14.871,1.463 -21.455,4.57 -2.162,1.026 -4.303,2.14 -6.422,3.488 -0.808,-0.677 -1.638,-1.332 -2.511,-1.911 -2.877,-1.955 -6.147,-3.5 -9.849,-4.559 -0.257,-3.106 -1.131,-6.159 -2.627,-8.965 -2.947,-5.47 -7.965,-9.543 -14.205,-11.328 -3.019,-0.863 -6.24,-1.371 -9.832,-1.371 l -16.87,0 c -3.614,0 -6.814,0.508 -9.854,1.36 -8.107,2.314 -14.136,8.151 -16.576,15.952 -0.3,0.89 -0.529,1.797 -0.671,2.698 -3.221,-0.557 -6.693,-0.808 -10.493,-0.808 -5.918,0 -11.651,0.758 -17.109,2.243 -0.202,-0.791 -0.438,-1.485 -0.666,-2.058 -2.07,-5.367 -5.848,-9.74 -11.002,-12.628 -3.204,-1.763 -6.721,-2.877 -10.542,-3.281 -3.549,-0.393 -7.142,-0.393 -10.964,0.115 -2.74,0.344 -5.36,0.988 -7.778,1.911 -3.522,1.359 -6.678,3.325 -9.396,5.869 -3.222,2.992 -5.591,6.699 -7.087,11.007 -0.021,0 -0.043,-0.011 -0.07,-0.022 -0.044,0 -0.044,-0.027 -0.093,-0.027 -0.137,-3.15 -0.967,-6.213 -2.392,-9.068 l 54.973,-83.313 c 16.138,-24.426 37.413,-37.895 59.88,-37.895 22.493,0 43.764,13.469 59.88,37.895 l 59.393,89.968 z m -368.137,71.733 c -3.407,-4.832 -5.41,-10.499 -5.918,-16.875 -0.438,-5.732 0.328,-11.853 2.326,-18.208 2.238,-7.184 5.502,-13.768 9.674,-19.594 4.051,-5.684 8.696,-10.625 13.813,-14.675 5.176,-4.111 10.794,-7.31 16.619,-9.516 10.728,-4.067 21.799,-4.215 30.573,-1.971 3.014,0.77 5.819,1.889 8.354,3.303 l 2.882,1.649 2.6,-2.107 c 1.588,-1.289 3.406,-0.923 5.41,-1.496 2.14,-0.623 4.488,0.387 7.157,0.387 l 16.209,0 c 2.67,0 5.018,-1.01 7.158,-0.387 3.663,1.031 6.584,2.691 8.266,5.825 1.31,2.391 1.774,4.761 1.402,7.469 l -0.595,4.154 4.209,1.01 c 0.945,0.257 1.867,0.508 2.719,0.857 1.081,0.437 2.069,0.906 3.015,1.446 l 2.696,1.578 2.577,-1.818 c 0.458,-0.311 0.923,-0.633 1.403,-0.884 l 2.14,-1.141 0.394,-2.375 c 0.136,-0.721 0.322,-1.436 0.529,-2.129 0.944,-3.036 2.555,-5.602 4.744,-7.644 1.769,-1.676 3.843,-2.964 6.169,-3.843 1.726,-0.666 3.614,-1.125 5.548,-1.381 3.063,-0.388 5.896,-0.388 8.68,-0.093 2.484,0.279 4.788,0.994 6.814,2.108 3.155,1.774 5.383,4.329 6.649,7.6 0.393,1.048 0.9,2.795 0.9,5.05 l 0.044,7.103 6.634,-2.566 c 0.666,-0.278 1.354,-0.53 2.004,-0.748 5.382,-1.829 11.208,-2.752 17.312,-2.752 5.296,0 9.713,0.601 13.583,1.84 l 7.157,2.293 -0.78,-7.447 c -0.186,-1.84 -0.027,-3.663 0.524,-5.389 1.452,-4.603 5.066,-6.742 9.925,-8.124 2.141,-0.623 4.487,0.387 7.186,0.387 l 16.87,0 c 2.647,0 5,-1.01 7.14,-0.387 3.658,1.031 6.607,2.691 8.288,5.809 1.239,2.336 1.748,4.64 1.403,7.266 l -0.552,4.417 5.525,0.934 c 3.543,0.748 6.65,1.993 9.254,3.74 1.381,0.923 2.648,2.025 3.772,3.292 l 2.927,3.341 3.613,-2.648 c 2.741,-2.015 5.41,-3.363 8.244,-4.684 5.269,-2.5 11.094,-3.489 17.285,-3.489 l 16.531,0 c 1.633,0 3.407,-0.164 5.296,0.071 1.654,0.18 3.243,0.388 4.832,0.906 l 1.703,0.497 1.683,-0.726 c 0.851,-0.355 1.817,-0.382 2.762,-0.562 1.61,-0.301 3.314,-0.186 5.066,-0.186 l 18.092,0 c 2.256,0 4.216,0 5.99,0.573 l 1.332,0.3 1.359,-0.437 c 2.462,-0.612 5.181,-0.945 8.31,-0.945 2.118,0 4.101,0.137 5.918,0.464 l 4.603,0.759 1.016,-4.526 c 2.232,-9.98 8.702,-16.428 16.411,-16.428 4.352,0 8.401,2.157 10.892,5.749 1.861,2.659 2.714,5.88 2.577,9.549 l -0.208,5.864 5.805,-0.579 c 2.806,-0.415 5.846,-0.344 9.09,-0.344 l 22.1,0 c 5.088,0 11.536,0.344 15.98,5.17 3.865,4.166 5.132,9.772 3.428,15.227 -0.944,2.98 -2.598,5.503 -4.902,7.622 l -2.577,2.369 1.682,3.8 c 2.021,5.067 2.069,10.783 0.109,16.99 -1.267,4.002 -3.058,7.633 -5.383,10.772 -2.261,3.052 -4.788,5.662 -7.601,7.758 -2.85,2.118 -5.868,3.768 -8.996,4.881 -6.355,2.304 -12.438,2.015 -18.071,1.327 -1.753,-0.208 -3.593,-0.322 -5.481,-0.322 -1.545,0 -3.178,0.104 -4.925,0.322 -5.088,0.616 -11.148,0.928 -16.532,-0.634 -2.668,-0.786 -5.088,-2.052 -7.228,-3.767 l -2.904,-2.358 -3.036,2.211 c -0.485,0.344 -1.015,0.688 -1.566,1.01 -1.338,0.738 -2.806,1.392 -4.396,1.95 -1.43,0.518 -2.904,0.906 -4.328,1.217 -2.878,0.601 -5.067,0.683 -7.322,0.404 l -1.726,-0.146 -4.028,0.146 c -2.556,0.301 -5.132,0.159 -7.785,-0.437 -1.469,-0.322 -2.872,-0.786 -4.188,-1.381 l -1.981,-0.786 -2.62,0.994 c -1.431,0.508 -2.877,0.896 -4.33,1.207 -2.854,0.601 -5.038,0.683 -7.32,0.404 l -1.704,-0.146 -4.028,0.146 c -2.556,0.301 -5.132,0.159 -7.78,-0.437 -1.682,-0.372 -3.292,-0.934 -4.788,-1.67 l -2.025,-1 -2.096,0.906 c -0.874,0.382 -1.775,0.76 -2.67,1.07 -3.106,1.06 -6.148,1.589 -9.096,1.589 -3.2,0 -5.776,-0.116 -8.059,-0.366 l -2.118,-0.186 c -1.474,-0.136 -2.899,-0.044 -4.761,0.186 l -3.02,0.229 c -5.29,0.383 -11.071,-0.344 -15.794,-3.167 l -2.413,-1.436 -2.468,1.354 c -1.011,0.558 -2.069,1.038 -3.222,1.442 -3.843,1.37 -8.381,2.014 -12.731,1.484 l -4.373,-0.146 -2.418,0.136 c -0.94,0.114 -1.77,0.169 -2.534,0.169 -3.242,0 -6.278,-1.021 -8.746,-2.943 l -2.484,-1.938 -2.783,1.463 c -1.174,0.611 -2.463,1.163 -3.822,1.648 -1.43,0.492 -2.877,0.896 -4.308,1.207 -3.085,0.633 -5.41,0.666 -7.758,0.394 l -1.841,-0.136 -4.17,0.146 c -2.556,0.301 -5.132,0.159 -7.78,-0.437 -1.382,-0.3 -2.762,-0.748 -4.051,-1.316 l -1.889,-0.824 -1.884,0.781 c -0.601,0.229 -1.152,0.459 -1.752,0.666 -3.106,1.06 -6.148,1.589 -9.068,1.589 -3.2,0 -5.804,-0.116 -8.059,-0.366 l -2.119,-0.186 c -1.474,-0.136 -2.904,-0.044 -4.766,0.186 l -3.014,0.229 c -1.245,0.093 -2.533,0.137 -3.821,0.137 -4.537,0 -8.91,-1.278 -12.64,-3.68 l -3.592,-2.5 -3.385,2.15 c -1.333,0.738 -2.806,1.392 -4.401,1.96 -1.424,0.492 -2.871,0.896 -4.323,1.207 -2.877,0.612 -5.066,0.683 -7.321,0.404 l -1.726,-0.146 -4.028,0.146 c -2.583,0.312 -5.138,0.159 -7.758,-0.437 -1.109,-0.24 -2.212,-0.59 -3.342,-1.026 l -1.654,-0.656 -1.731,0.574 c -1.332,0.464 -2.69,0.852 -4.05,1.141 -2.878,0.601 -5.089,0.683 -7.344,0.404 l -1.703,-0.146 -4.029,0.146 c -2.555,0.301 -5.153,0.159 -7.758,-0.437 -1.496,-0.322 -2.898,-0.786 -4.236,-1.381 l -1.84,-0.83 -2.74,1.038 c -1.426,0.492 -2.878,0.896 -4.33,1.207 -2.85,0.612 -5.039,0.683 -7.315,0.404 l -1.704,-0.146 -4.056,0.146 c -2.556,0.301 -5.11,0.159 -7.759,-0.437 -1.932,-0.426 -3.728,-1.081 -5.383,-1.96 -0.464,-0.229 -0.879,-0.502 -1.474,-0.884 l -2.075,-1.299 -2.276,0.862 c -3.412,1.299 -6.999,2.304 -10.706,2.981 -4.422,0.78 -8.976,1.196 -13.605,1.196 -7.206,0 -13.626,-1.218 -19.064,-3.647 -5.917,-2.615 -10.639,-6.399 -14.046,-11.247 z m 33.107,24.666 c 5.203,0 10.357,-0.448 15.33,-1.359 1.082,-0.191 2.118,-1.343 3.156,-1.572 l -23.597,34.761 -4.007,0 c -4.745,0 -9.368,2.003 -13.513,4.072 -1.108,-0.415 -2.254,-0.344 -3.406,-0.666 -2.418,-0.666 -4.996,-0.896 -7.671,-1.218 l 23.187,-35.018 c 3.359,0.552 6.835,1 10.521,1 z m 558.707,253.121 c -14.851,27.593 -46.11,42.371 -88.084,42.371 l -509.713,0 c -41.946,0 -73.234,-14.778 -88.084,-42.371 -10.242,-19.061 -11.208,-41.313 -3.058,-65.105 0.644,0.911 1.354,1.91 2.14,2.762 3.386,3.686 7.644,6.481 12.618,8.212 2.483,0.852 5.132,1.507 7.844,1.885 0.624,0.091 1.246,0.141 1.868,0.185 -2.67,16.667 0.716,30.616 10.013,42.476 12.824,16.324 36.121,24.343 65.656,24.343 l 491.719,0 c 29.673,0 53.039,-8.09 65.841,-24.551 9.206,-11.902 12.547,-26.315 9.806,-42.967 3.521,0.192 7.164,0.125 11.258,-0.867 2.534,-0.597 5.132,-1.288 7.688,-2.321 2.604,-1.037 5.022,-2.43 7.229,-3.821 6.238,21.76 4.698,42.249 -4.741,59.769 z m -34.811,-52.22 c 2.72,13.813 0.46,25.3 -6.813,34.668 -10.241,13.189 -29.929,19.752 -55.457,19.752 l -491.719,0 c -25.414,0 -45.052,-6.502 -55.315,-19.605 -7.394,-9.4 -9.718,-21.351 -6.934,-35.312 l 0.508,0.104 c 0.393,-0.05 2.046,-0.164 5.803,-0.164 1.425,0 2.647,0.07 3.386,0.07 l 6.005,0.715 c 3.637,0.322 7.437,0.623 13.539,-0.425 2.162,-0.383 4.374,-0.89 6.649,-1.557 0.853,-0.24 1.683,-0.519 2.512,-0.803 4.166,1.999 8.889,3.074 13.791,3.074 1.77,0 3.614,-0.132 5.618,-0.404 0.552,-0.07 1.151,-0.152 1.861,-0.229 l 1.338,-0.176 c 0.18,-0.021 1.218,-0.175 3.544,-0.175 0.322,0 0.644,0.022 0.966,0.049 l 2.44,0.24 c 7.785,1.093 16.438,0.957 24.033,-1.256 0.349,0.094 0.692,-1.347 1.037,-1.265 4.93,1.212 9.832,-0.645 14.686,-0.645 l 6.038,0 c 4.439,0 8.905,1.909 14.13,0.671 1.846,-0.442 3.707,-0.234 5.574,-0.901 1.726,0.667 3.455,0.07 5.225,0.509 4.974,1.195 9.833,-0.278 14.687,-0.278 l 6.032,0 c 4.466,0 8.889,1.909 14.135,0.671 2.468,-0.589 4.93,-0.601 7.349,-1.557 2.162,0.956 4.438,2.107 6.835,2.67 4.968,1.208 9.876,1.703 14.687,1.07 l 1.682,0 c 2.025,10.569 8.795,19.293 18.737,23.722 7.092,3.177 15.636,4.673 26.844,4.673 2.305,0 4.811,-0.088 7.414,-0.311 0.759,-0.066 2.626,-0.158 6.558,-0.158 1.358,0 2.812,0.07 4.307,0.186 2.813,0.207 6.219,0.311 10.456,0.311 6.398,0 12.868,-1.069 19.151,-3.188 6.377,-2.146 12.316,-5.306 17.728,-9.438 5.41,-4.166 10.149,-9.254 14.021,-15.174 1.238,-1.909 2.391,-3.914 3.406,-5.981 11.187,6.075 25.458,8.042 41.53,4.934 1.77,-0.331 3.407,-0.519 4.882,-0.519 1.194,0 3.384,0.082 7.021,0.395 4.422,0.393 9.483,0.572 15.058,0.572 9.14,0 16.618,-1.588 22.859,-4.881 0.895,-0.459 1.746,-0.954 2.599,-1.473 7.6,4.857 16.209,7.337 25.648,7.337 1.977,0 4.001,-0.186 6.169,-0.557 l 1.496,-0.272 2.004,0.311 c 2.048,0.343 4.166,0.519 6.469,0.519 8.446,0 16.805,-2.135 24.813,-6.323 0.852,-0.437 1.66,-0.894 2.49,-1.37 1.104,0.77 2.276,1.486 3.429,2.131 3.085,1.703 6.469,1.495 10.062,2.348 4.974,1.212 9.855,-0.645 14.686,-0.645 l 6.033,0 c 4.467,0 8.91,1.909 14.135,0.671 2.326,-0.557 4.674,-0.535 7,-1.42 2.069,0.885 4.279,0.475 6.514,1.027 4.973,1.195 9.876,-0.278 14.707,-0.278 l 6.033,0 c 4.443,0 8.909,1.909 14.134,0.671 2.376,-0.557 4.696,-0.535 7.021,-1.42 2.074,0.885 4.259,1.993 6.519,2.533 3.446,0.841 6.853,1.6 10.215,1.556 z m 46.756,-93.102 -9.161,47.219 1.589,1.818 c 3.844,4.373 5.433,10.128 4.351,15.79 -0.992,4.983 -4.028,9.384 -8.587,12.375 -1.861,1.218 -3.98,2.305 -6.262,3.211 -2.098,0.853 -4.216,1.523 -6.306,2.015 -4.166,1.004 -7.485,1.142 -10.844,0.655 l -5.344,-0.219 -2.714,0.208 c -3.685,0.518 -7.507,0.289 -11.395,-0.656 -2.325,-0.551 -4.515,-1.332 -6.519,-2.348 l -2.047,-1.025 -3.248,1.392 c -2.07,0.831 -4.188,1.502 -6.284,1.993 -4.166,1.004 -7.48,1.13 -10.843,0.655 l -5.367,-0.219 -2.713,0.208 c -3.707,0.518 -7.485,0.289 -11.394,-0.656 -2.326,-0.551 -4.488,-1.332 -6.52,-2.348 l -2.047,-1.036 -3.222,1.402 c -2.096,0.831 -4.193,1.502 -6.312,1.993 -4.144,1.004 -7.458,1.142 -10.814,0.655 l -5.367,-0.219 -2.714,0.208 c -3.685,0.518 -7.484,0.289 -11.398,-0.656 -2.741,-0.644 -5.274,-1.631 -7.6,-2.919 -1.677,-0.925 -3.309,-2.031 -4.783,-3.249 l -2.789,-2.305 -3.015,1.982 c -1.495,0.978 -3.02,1.889 -4.602,2.714 -6.612,3.455 -13.426,5.19 -20.283,5.19 -1.752,0 -3.313,-0.125 -4.837,-0.365 l -3.456,-0.654 -3.357,0.621 c -1.589,0.273 -3.063,0.398 -4.487,0.398 -7.851,0 -14.921,-2.102 -21.112,-6.271 -0.53,-0.356 -1.059,-0.749 -1.566,-1.126 l -2.942,-2.199 -2.928,2.199 c -1.31,1.01 -2.718,1.862 -4.236,2.67 -4.81,2.534 -10.82,3.762 -18.321,3.762 -5.296,0 -10.063,-0.179 -14.206,-0.539 -4.051,-0.356 -6.519,-0.438 -7.872,-0.438 -2.097,0 -4.33,0.24 -6.727,0.705 -14.179,2.725 -26.402,0.978 -35.684,-4.318 -1.196,-0.655 -2.326,-1.402 -3.43,-2.189 l -5.175,-3.636 -2.217,5.939 c -1.261,3.385 -2.871,6.584 -4.782,9.482 -3.271,4.997 -7.229,9.283 -11.792,12.781 -4.532,3.461 -9.527,6.137 -14.872,7.917 -5.29,1.785 -10.7,2.696 -16.04,2.696 -3.986,0 -7.164,-0.092 -9.74,-0.3 -1.703,-0.114 -3.428,-0.187 -5.022,-0.187 -4.373,0 -6.442,0.116 -7.338,0.187 -2.354,0.208 -4.586,0.3 -6.634,0.3 -9.783,0 -17.061,-1.212 -22.859,-3.8 -2.969,-1.338 -12.709,-6.676 -13.517,-19.844 l -0.296,-4.582 -8.888,-0.175 -2.718,0.208 c -3.702,0.518 -7.48,0.289 -11.395,-0.656 -2.392,-0.573 -4.674,-1.414 -6.766,-2.482 l -2.052,-1.06 -2.141,0.945 c -0.479,0.205 -0.966,0.413 -1.495,0.615 -2.048,0.831 -4.166,1.502 -6.263,1.993 -4.188,0.993 -7.484,1.13 -10.842,0.655 l -5.368,-0.219 -2.712,0.208 c -3.708,0.518 -7.485,0.289 -11.395,-0.656 -1.823,-0.436 -3.663,-1.048 -5.411,-1.839 l -1.889,-0.84 -1.911,0.747 c -2.047,0.819 -4.1,1.475 -6.125,1.943 -4.188,1.004 -7.479,1.13 -10.843,0.655 l -5.361,-0.219 -2.719,0.208 c -3.729,0.518 -7.507,0.289 -11.395,-0.656 -0.666,-0.158 -1.31,-0.343 -1.96,-0.529 l -1.976,-0.278 -1.452,0.465 c -6.398,2.003 -13.698,2.141 -20.79,1.151 l -2.67,-0.267 c -0.622,-0.071 -1.267,-0.094 -1.91,-0.094 -2.648,0 -4.188,0.152 -5.04,0.29 l -0.852,0.114 c -0.808,0.082 -1.545,0.163 -2.168,0.251 -1.583,0.22 -2.942,0.311 -4.302,0.311 -4.028,0 -7.828,-0.986 -10.984,-2.866 l -2.141,-1.276 -2.275,0.983 c -1.174,0.501 -2.42,0.938 -3.643,1.31 -1.911,0.551 -3.771,0.988 -5.568,1.288 -5.383,0.922 -8.102,0.6 -10.957,0.333 l -4.052,-0.333 -1.08,-0.218 c 0,0 -0.372,-0.082 -1.152,-0.104 -1.06,-0.07 -2.418,-0.082 -4.029,-0.082 -3.893,0 -6.032,0.187 -7.163,0.333 l 0.672,4.86 -1.338,-4.767 c -0.917,0.07 -1.703,0.164 -2.392,0.256 -0.736,0.093 -1.495,0.158 -2.21,0.219 -2.692,0.17 -5.16,0.044 -7.78,-0.334 -2.118,-0.311 -4.149,-0.785 -6.033,-1.44 -3.434,-1.186 -6.333,-3.053 -8.608,-5.536 -4.238,-4.602 -5.756,-10.893 -4.074,-16.842 1.584,-5.674 5.247,-10.346 10.564,-13.524 2.118,-1.245 4.352,-2.483 6.742,-3.751 l 2.468,-1.44 11.831,-41.887 -9.21,3.659 c -5.983,2.374 -12.317,4.569 -18.235,4.569 -4.674,0 -12.152,-0.737 -16.504,-1.841 1.938,-1.347 3.75,-2.658 4.81,-4.465 3.549,-6.089 2.238,-22.047 1.683,-27.155 l -0.23,-1.3 c -2.14,-10.259 -0.229,-20.49 5.41,-27.522 5.11,-6.332 12.891,-10.863 20.862,-10.863 l 60.981,0 c 2.256,0 4.582,0.852 6.973,1.059 2.899,0.229 5.64,1.081 8.151,1.768 1.518,0.416 2.948,1.131 4.302,1.763 l 2.396,1.186 2.233,-2.096 c 3.134,-1.956 6.813,-3.68 10.613,-3.68 l 24.219,0 c 6.262,0 10.542,3.188 13.032,5.234 l 2.112,1.765 2.948,-0.36 c 4.378,-0.635 8.565,-0.519 12.617,-0.032 3.543,0.413 6.791,1.517 9.69,3.197 3.941,2.315 6.978,5.724 8.773,9.807 1.13,2.583 1.703,5.306 1.725,8.244 l 0.028,4.775 27.531,0 c 3.43,0 6.422,0.574 9.112,1.558 l 1.523,0.605 1.54,-0.427 c 3.614,-1.08 7.643,-1.566 12.344,-1.566 6.076,0 11.23,0.945 15.789,2.856 5.252,2.231 9.461,5.524 12.523,9.761 0.459,0.645 0.874,1.277 1.246,1.933 l 3.057,5.105 4.422,-3.976 c 5.896,-5.284 12.731,-9.4 20.331,-12.245 7.78,-2.926 16.434,-4.4 25.736,-4.4 1.611,0 3.407,0.061 5.41,0.196 1.59,0.104 3.544,0.196 5.913,0.301 2.446,0.103 5.389,0.218 8.889,0.311 3.406,0.114 7.644,0.158 12.688,0.158 6.464,0 11.673,2.075 15.423,6.127 l 2.855,3.063 3.473,-2.304 c 1.387,-0.945 2.833,-1.842 4.308,-2.67 6.491,-3.637 13.512,-5.683 20.855,-6.077 l 5.504,-0.3 -0.945,-5.433 c -0.415,-2.337 -0.393,-4.743 0.071,-7.135 1.174,-6.077 4.853,-11.913 10.104,-14.664 3.314,-1.765 6.93,-3.407 10.729,-3.407 l 22.1,0 c 7.457,0 12.267,3.794 14.965,6.35 3.543,3.363 7.321,9.875 5.361,19.977 l -2.992,15.525 8.888,-4.329 c 2.047,-1.037 4.073,-1.877 6.099,-2.626 7.206,-2.712 15.221,-4.05 23.738,-4.05 8.565,0 16.252,1.496 22.902,4.444 2.533,1.124 4.974,2.494 7.256,4.049 l 3.38,2.327 2.882,-2.937 c 2.556,-2.622 5.848,-4.522 9.483,-5.28 2.37,-0.486 4.858,-0.82 7.458,-0.82 l 26.129,0 c 4.052,0 7.507,0.771 10.75,2.245 l 1.797,0.873 1.91,-0.645 c 4.352,-1.539 9.303,-2.304 14.757,-2.304 7.3,0 14.021,2.097 19.388,6.061 l 2.483,1.841 2.74,-1.464 c 2.484,-1.338 5.067,-2.544 7.666,-3.592 4.695,-1.874 10.105,-2.846 16.094,-2.846 8.01,0 15.194,2.479 20.785,7.152 7.264,6.037 10.235,15.487 8.181,25.959 z"
           id="path4269"
           style="fill:#ffffff"
           inkscape:connector-curvature="0" /><g
           id="g4271"
           style="fill:#ffffff"><path
             d="m 201.508,433.279 c 2.926,-0.644 5.366,-1.528 7.3,-2.658 1.932,-1.13 3.014,-2.338 3.292,-3.626 0.229,-1.288 -0.416,-2.189 -1.982,-2.67 -1.589,-0.475 -3.5,-0.715 -5.754,-0.715 l -23.39,0 c -2.254,0 -4.143,0.24 -5.639,0.715 -1.475,0.48 -2.37,1.382 -2.604,2.67 -0.229,1.196 0.415,2.277 1.938,3.313 1.518,1.016 3.588,2.015 6.191,2.971 l -11.81,60.825 c -0.141,0.759 -0.758,1.424 -1.845,2.024 -1.081,0.573 -2.298,1.196 -3.613,1.841 -1.289,0.644 -2.506,1.358 -3.614,2.107 -1.104,0.747 -1.774,1.599 -1.955,2.576 -0.137,0.656 0.181,1.289 0.923,1.921 0.73,0.656 1.632,1.279 2.691,1.868 1.059,0.601 2.276,1.06 3.593,1.382 1.358,0.321 2.599,0.479 3.794,0.479 0.645,0 1.288,-0.055 1.982,-0.158 0.644,-0.114 1.315,-0.163 1.959,-0.163 0.667,-0.114 1.311,-0.158 1.955,-0.158 0.644,0 1.244,0 1.769,0 0.743,0 1.475,0 2.189,0 0.693,0 1.359,0.044 1.981,0.158 0.759,0 1.452,0.049 2.07,0.163 0.622,0.104 1.266,0.158 1.91,0.158 0.852,0 1.96,-0.158 3.313,-0.479 1.338,-0.322 2.698,-0.759 4.057,-1.289 1.31,-0.541 2.483,-1.13 3.478,-1.785 0.988,-0.633 1.54,-1.35 1.704,-2.097 0.18,-0.978 -0.143,-1.829 -0.95,-2.576 -0.824,-0.749 -1.77,-1.464 -2.828,-2.107 -1.06,-0.645 -2.025,-1.268 -2.855,-1.841 -0.874,-0.601 -1.218,-1.266 -1.081,-2.024 l 11.831,-60.825 z"
             id="path4273"
             style="fill:#ffffff"
             inkscape:connector-curvature="0" /><path
             d="m 187.537,411.031 c 1.031,0.541 2.211,0.884 3.564,1.044 1.359,0.164 2.763,0.234 4.172,0.234 3.014,0 5.798,-0.453 8.402,-1.37 2.598,-0.913 4.188,-2.927 4.81,-6.045 0.3,-1.61 0.251,-2.937 -0.208,-3.958 -0.438,-1.016 -1.174,-1.823 -2.184,-2.418 -1.016,-0.589 -2.217,-0.967 -3.57,-1.13 -1.359,-0.158 -2.741,-0.24 -4.172,-0.24 -1.376,0 -2.828,0.103 -4.324,0.322 -1.495,0.219 -2.854,0.585 -4.072,1.141 -1.245,0.53 -2.304,1.31 -3.226,2.325 -0.874,1.021 -1.496,2.392 -1.841,4.116 -0.278,1.496 -0.186,2.742 0.345,3.709 0.507,0.967 1.267,1.725 2.304,2.27 z"
             id="path4275"
             style="fill:#ffffff"
             inkscape:connector-curvature="0" /><path
             d="m 292.054,429.665 c -1.338,-1.889 -3.292,-3.364 -5.803,-4.444 -2.534,-1.081 -5.755,-1.61 -9.62,-1.61 -4.308,0 -7.644,0.589 -10.04,1.774 -2.369,1.174 -4.516,2.576 -6.355,4.188 -1.889,1.61 -3.843,3.209 -5.868,4.766 -2.025,1.556 -4.718,2.702 -8.08,3.467 l 0.366,-1.949 c 0.163,-0.747 0.758,-1.474 1.817,-2.161 1.037,-0.705 2.167,-1.426 3.385,-2.189 1.224,-0.749 2.396,-1.54 3.456,-2.415 1.081,-0.861 1.746,-1.821 1.954,-2.904 0.164,-0.861 -0.229,-1.505 -1.174,-1.932 -0.917,-0.437 -2.276,-0.645 -3.98,-0.645 l -26.156,0 c -1.496,0 -2.877,0.126 -4.165,0.393 -1.288,0.274 -2.118,1.268 -2.44,2.992 -0.229,1.196 0.021,2.096 0.764,2.74 0.732,0.646 1.563,1.29 2.528,1.935 0.944,0.653 1.752,1.423 2.44,2.348 0.666,0.91 0.873,2.117 0.601,3.624 l -11.007,56.463 c -0.114,0.759 -0.736,1.424 -1.84,2.024 -1.059,0.573 -2.255,1.196 -3.57,1.841 -1.311,0.644 -2.506,1.358 -3.636,2.107 -1.103,0.747 -1.774,1.599 -1.954,2.576 -0.143,0.656 0.18,1.289 0.895,1.921 0.759,0.656 1.659,1.279 2.741,1.868 1.059,0.601 2.254,1.06 3.564,1.382 1.359,0.321 2.604,0.479 3.8,0.479 0.645,0 1.288,-0.055 1.982,-0.158 0.644,-0.114 1.31,-0.163 1.954,-0.163 0.671,-0.114 1.315,-0.158 1.96,-0.158 0.644,0 1.245,0 1.791,0 0.742,0 1.474,0 2.167,0 0.716,0 1.359,0.044 1.981,0.158 0.76,0 1.447,0.049 2.069,0.163 0.622,0.104 1.267,0.158 1.889,0.158 0.874,0 2.004,-0.158 3.336,-0.479 1.338,-0.322 2.697,-0.759 4.03,-1.289 1.337,-0.541 2.511,-1.13 3.499,-1.785 0.988,-0.633 1.566,-1.35 1.703,-2.097 0.186,-0.978 -0.137,-1.829 -0.944,-2.576 -0.803,-0.749 -1.769,-1.464 -2.807,-2.107 -1.08,-0.645 -2.025,-1.268 -2.877,-1.841 -0.879,-0.601 -1.223,-1.266 -1.059,-2.024 l 9.298,-47.908 c 1.822,0 3.477,-0.349 4.88,-1.06 1.431,-0.693 2.927,-1.452 4.494,-2.26 1.539,-0.803 3.292,-1.518 5.246,-2.173 1.954,-0.633 4.33,-0.955 7.136,-0.955 2.462,0 4.236,0.853 5.296,2.565 1.059,1.715 1.381,3.823 0.873,6.295 l -8.839,45.495 c -0.164,0.759 -0.737,1.424 -1.84,2.024 -1.086,0.573 -2.282,1.196 -3.593,1.841 -1.315,0.644 -2.533,1.358 -3.613,2.107 -1.131,0.747 -1.797,1.599 -1.982,2.576 -0.114,0.656 0.186,1.289 0.923,1.921 0.737,0.656 1.632,1.279 2.714,1.868 1.059,0.601 2.26,1.06 3.592,1.382 1.338,0.321 2.576,0.479 3.778,0.479 0.644,0 1.31,-0.055 1.976,-0.158 0.645,-0.114 1.316,-0.163 1.96,-0.163 0.694,-0.114 1.311,-0.158 1.982,-0.158 0.622,0 1.218,0 1.77,0 0.764,0 1.474,0 2.188,0 0.688,0 1.338,0.044 1.955,0.158 0.758,0 1.452,0.049 2.074,0.163 0.622,0.104 1.267,0.158 1.91,0.158 0.874,0 1.955,-0.158 3.314,-0.479 1.359,-0.322 2.719,-0.759 4.051,-1.289 1.338,-0.541 2.512,-1.13 3.479,-1.785 0.988,-0.633 1.566,-1.35 1.702,-2.097 0.181,-0.978 -0.114,-1.829 -0.944,-2.576 -0.829,-0.749 -1.773,-1.464 -2.833,-2.107 -1.032,-0.645 -2.004,-1.268 -2.877,-1.841 -0.83,-0.601 -1.174,-1.266 -1.038,-2.024 l 9.675,-49.857 c 0.552,-2.794 0.71,-5.454 0.438,-7.976 -0.259,-2.535 -1.06,-4.74 -2.442,-6.607 z"
             id="path4277"
             style="fill:#ffffff"
             inkscape:connector-curvature="0" /><path
             d="m 392.635,423.61 c -5.182,0 -9.554,-0.07 -13.124,-0.164 -3.593,-0.097 -6.628,-0.229 -9.14,-0.316 -2.49,-0.12 -4.58,-0.223 -6.24,-0.339 -1.632,-0.104 -3.107,-0.146 -4.396,-0.146 -7.414,0 -14.134,1.13 -20.168,3.384 -6.032,2.255 -11.322,5.478 -15.838,9.67 -4.536,4.187 -8.286,9.23 -11.234,15.079 -2.992,5.87 -5.16,12.41 -6.563,19.609 -0.736,3.779 -1.032,7.831 -0.916,12.182 0.113,4.351 0.895,8.451 2.298,12.257 1.408,3.821 3.592,7.059 6.584,9.685 2.97,2.647 6.978,4.062 11.995,4.28 0.879,0 1.752,-0.07 2.696,-0.164 0.944,-0.114 1.84,-0.217 2.736,-0.322 1.773,-0.321 3.569,-0.479 5.41,-0.479 1.938,0 3.663,0.158 5.224,0.479 0.83,0.105 1.639,0.208 2.354,0.322 0.737,0.094 1.519,0.164 2.391,0.164 2.141,0 4.237,-2.325 6.263,-3.041 2.004,-0.688 3.757,2.244 5.253,-5.291 l 0.294,0 c -0.087,7.535 -0.207,4.025 -0.365,5.226 -0.187,1.174 -0.345,3.177 -0.53,4.052 -0.994,5.038 -3.428,9.418 -7.343,12.108 -3.893,2.691 -9.718,4.28 -17.476,4.28 -3.451,0 -6.214,-0.229 -8.332,-0.923 -2.117,-0.699 -3.844,-1.539 -5.132,-2.61 -1.315,-1.069 -2.445,-2.178 -3.384,-3.352 -0.945,-1.175 -2.004,-2.299 -3.135,-3.368 -1.125,-1.098 -2.555,-1.949 -4.236,-2.648 -1.703,-0.703 -4.007,-1.058 -6.906,-1.058 -0.53,0 -1.032,0.064 -1.54,0.168 -0.529,0.116 -0.944,0.278 -1.315,0.485 0.415,0.53 0.486,1.496 0.229,2.9 -0.109,0.654 -0.617,1.566 -1.496,2.74 -0.873,1.195 -1.496,2.762 -1.884,4.685 -1.059,5.492 0.207,9.035 3.844,10.646 3.592,1.611 9.046,2.42 16.367,2.42 1.61,0 3.406,-0.082 5.389,-0.23 1.955,-0.164 4.81,-0.252 8.583,-0.252 2.03,0 4.122,0.088 6.24,0.252 2.118,0.148 4.952,0.23 8.522,0.23 3.636,0 7.315,-0.623 11,-1.853 3.664,-1.232 7.092,-3.073 10.27,-5.492 3.156,-2.418 5.87,-5.378 8.146,-8.859 2.304,-3.501 3.87,-7.465 4.744,-11.859 0.394,-2.046 0.573,-3.984 0.573,-5.813 -0.021,-1.83 -0.137,-3.719 -0.295,-5.65 -0.143,-1.933 -0.257,-3.894 -0.301,-5.881 -0.048,-1.992 0.158,-4.11 0.596,-6.377 l 9.811,-50.5 c 1.954,-1.174 3.658,-2.348 5.132,-3.543 1.452,-1.174 2.326,-2.42 2.582,-3.708 0.387,-2.049 -1.017,-3.065 -4.237,-3.065 z m -25.627,23.067 -5.153,26.452 c -0.716,3.777 -2.097,6.884 -4.144,9.357 -2.048,2.479 -4.26,3.718 -6.634,3.718 -1.288,0 -2.556,-0.114 -3.8,-0.334 -1.24,-0.217 -2.457,-0.311 -3.637,-0.311 -0.966,0 -2.025,0.094 -3.128,0.311 -1.108,0.22 -2.167,0.334 -3.128,0.334 -3.134,0 -5.46,-0.781 -7.048,-2.348 -1.59,-1.566 -2.692,-3.565 -3.358,-6.043 -0.623,-2.474 -0.879,-5.164 -0.672,-8.07 0.187,-2.898 0.553,-5.754 1.081,-8.538 0.693,-3.56 1.709,-7.081 3.041,-10.57 1.311,-3.493 3.085,-6.628 5.274,-9.368 2.206,-2.74 4.854,-4.974 7.916,-6.698 3.084,-1.704 6.698,-2.577 10.914,-2.577 1.932,0 3.772,0.3 5.546,0.896 1.775,0.589 3.249,1.496 4.396,2.741 1.152,1.232 2.009,2.761 2.489,4.602 0.509,1.823 0.509,3.972 0.045,6.446 z"
             id="path4279"
             style="fill:#ffffff"
             inkscape:connector-curvature="0" /><path
             d="m 487.112,392.3 -22.1,0 c -1.196,0 -2.304,0.278 -3.293,0.809 -1.037,0.551 -1.681,1.517 -1.954,2.91 -0.278,1.408 0.136,2.5 1.217,3.302 1.06,0.809 2.305,1.59 3.664,2.354 1.354,0.732 2.555,1.518 3.658,2.337 1.08,0.802 1.474,1.911 1.223,3.303 l -4.236,21.777 c -1.73,-0.644 -3.32,-1.37 -4.838,-2.178 -1.518,-0.817 -3.134,-1.622 -4.837,-2.43 -1.747,-0.803 -3.68,-1.474 -5.842,-2.015 -2.146,-0.529 -4.674,-0.791 -7.577,-0.791 -5.591,0 -10.843,1.359 -15.725,4.105 -4.88,2.74 -9.231,6.229 -13.004,10.488 -3.8,4.258 -6.956,8.941 -9.51,14.111 -2.578,5.172 -4.324,10.167 -5.275,15.01 -1.124,5.803 -1.517,11.35 -1.124,16.602 0.371,5.281 1.659,9.898 3.844,13.879 2.189,3.985 5.296,7.124 9.368,9.439 4.051,2.326 9.231,3.478 15.451,3.478 2.92,0 6.054,-0.322 9.39,-0.966 3.363,-0.645 6.585,-0.967 9.719,-0.967 2.462,0 5.546,0.147 9.254,0.48 3.706,0.322 7.986,0.486 12.824,0.486 4.831,0 8.468,-0.645 10.93,-1.944 2.468,-1.306 3.8,-2.57 4.056,-3.87 0.115,-0.645 -0.207,-1.394 -1.016,-2.255 -0.78,-0.863 -1.702,-1.691 -2.74,-2.512 -1.031,-0.792 -2.068,-1.528 -3.128,-2.172 -1.06,-0.645 -1.752,-1.13 -2.118,-1.452 l 18.442,-95.008 c 0.502,-2.49 0.294,-4.145 -0.622,-5.023 -0.901,-0.851 -2.282,-1.287 -4.101,-1.287 z m -31.239,85.191 c -0.344,1.713 -1.338,3.279 -3.02,4.673 -1.654,1.393 -3.887,2.107 -6.693,2.107 -1.087,0 -2.281,-0.093 -3.593,-0.251 -1.288,-0.164 -2.719,-0.229 -4.214,-0.229 -1.519,0 -3.085,0.065 -4.718,0.229 -1.659,0.158 -3.297,0.251 -4.881,0.251 -1.315,0 -2.675,-0.48 -4.078,-1.463 -1.425,-0.967 -2.691,-2.413 -3.75,-4.362 -1.082,-1.933 -1.818,-4.351 -2.233,-7.251 -0.393,-2.898 -0.229,-6.295 0.529,-10.177 0.574,-2.992 1.519,-6.189 2.828,-9.585 1.316,-3.387 3.019,-6.531 5.138,-9.43 2.141,-2.91 4.651,-5.308 7.621,-7.179 2.943,-1.891 6.35,-2.834 10.199,-2.834 2.599,0 4.716,0.3 6.376,0.896 1.654,0.589 3.106,1.294 4.374,2.097 1.217,0.808 2.44,1.587 3.57,2.325 1.146,0.758 2.483,1.358 4.002,1.785 l -7.457,38.398 z"
             id="path4281"
             style="fill:#ffffff"
             inkscape:connector-curvature="0" /><path
             d="m 575.627,446.841 c -0.73,-5.273 -2.435,-9.761 -5.132,-13.479 -2.647,-3.696 -6.283,-6.584 -10.886,-8.621 -4.608,-2.053 -10.084,-3.063 -16.438,-3.063 -6.655,0 -12.732,1.01 -18.164,3.063 -5.46,2.037 -10.22,4.925 -14.342,8.621 -4.122,3.719 -7.507,8.206 -10.198,13.479 -2.692,5.269 -4.674,11.186 -5.94,17.749 -1.195,6.005 -1.452,11.695 -0.83,17.012 0.645,5.317 2.004,10.013 4.145,14.041 2.096,4.03 4.951,7.23 8.473,9.588 3.499,2.364 7.571,3.56 12.202,3.56 0.529,0 1.103,-0.07 1.725,-0.164 0.595,-0.114 1.174,-0.217 1.753,-0.322 1.354,-0.321 2.828,-0.479 4.439,-0.479 1.402,0 2.718,0.158 3.958,0.479 0.714,0.105 1.408,0.208 2.03,0.322 0.596,0.094 1.354,0.164 2.232,0.164 4.281,0 8.589,-1.13 12.913,-3.385 4.307,-2.266 8.265,-5.389 11.88,-9.368 3.636,-3.975 6.813,-8.647 9.532,-14.043 2.69,-5.366 4.65,-11.165 5.891,-17.404 1.265,-6.565 1.523,-12.482 0.757,-17.75 z m -17.563,7.746 c -0.716,3.762 -1.774,7.263 -3.156,10.483 -1.381,3.227 -3.172,6.043 -5.432,8.463 -2.233,2.428 -4.968,4.328 -8.217,5.721 -3.227,1.402 -7.049,2.107 -11.443,2.107 -3.128,0 -5.775,-0.623 -7.966,-1.867 -2.161,-1.229 -3.914,-2.948 -5.202,-5.153 -1.288,-2.2 -2.092,-4.848 -2.418,-7.9 -0.323,-3.074 -0.138,-6.377 0.578,-9.919 0.688,-3.665 1.796,-7.082 3.265,-10.249 1.474,-3.161 3.385,-5.973 5.733,-8.391 2.374,-2.412 5.114,-4.324 8.243,-5.732 3.111,-1.393 6.627,-2.09 10.635,-2.09 3.319,0 6.126,0.621 8.452,1.85 2.254,1.245 4.05,2.958 5.36,5.171 1.268,2.21 2.054,4.786 2.261,7.746 0.229,2.959 0.022,6.202 -0.693,9.76 z"
             id="path4283"
             style="fill:#ffffff"
             inkscape:connector-curvature="0" /><path
             d="m 713.645,437.806 c 0.944,-4.837 0.021,-8.419 -2.763,-10.738 -2.762,-2.304 -6.312,-3.457 -10.636,-3.457 -3.963,0 -7.348,0.551 -10.154,1.681 -2.806,1.142 -5.481,2.453 -8.036,3.96 -2.435,1.506 -4.968,3.072 -7.594,4.673 -2.626,1.61 -5.711,2.898 -9.211,3.882 0.945,-4.837 0.021,-8.419 -2.784,-10.738 -2.784,-2.304 -6.311,-3.457 -10.592,-3.457 -4.007,0 -7.364,0.551 -10.177,1.681 -2.806,1.142 -5.476,2.453 -8.03,3.96 -2.441,1.506 -4.974,3.072 -7.6,4.673 -2.648,1.61 -5.705,2.898 -9.232,3.882 l 0.371,-1.949 c 0.159,-0.747 0.76,-1.474 1.797,-2.161 1.059,-0.705 2.184,-1.426 3.406,-2.189 1.218,-0.749 2.392,-1.54 3.45,-2.415 1.087,-0.861 1.753,-1.821 1.96,-2.904 0.158,-0.861 -0.229,-1.505 -1.174,-1.932 -0.944,-0.437 -2.282,-0.645 -3.985,-0.645 l -26.129,0 c -1.518,0 -2.899,0.126 -4.188,0.393 -1.288,0.274 -2.118,1.268 -2.44,2.992 -0.234,1.196 0.021,2.096 0.759,2.74 0.737,0.646 1.567,1.29 2.533,1.935 0.944,0.653 1.747,1.423 2.44,2.348 0.688,0.91 0.874,2.117 0.573,3.624 l -10.957,56.463 c -0.158,0.759 -0.78,1.424 -1.84,2.024 -1.108,0.573 -2.282,1.196 -3.593,1.841 -1.31,0.644 -2.533,1.358 -3.636,2.107 -1.108,0.747 -1.774,1.599 -1.96,2.576 -0.114,0.656 0.186,1.289 0.922,1.921 0.738,0.656 1.634,1.279 2.692,1.868 1.086,0.601 2.282,1.06 3.614,1.382 1.338,0.321 2.604,0.479 3.777,0.479 0.645,0 1.288,-0.055 1.982,-0.158 0.666,-0.114 1.31,-0.163 1.954,-0.163 0.666,-0.114 1.312,-0.158 1.955,-0.158 0.666,0 1.244,0 1.774,0 0.758,0 1.474,0 2.188,0 0.688,0 1.354,0.044 1.978,0.158 0.758,0 1.452,0.049 2.074,0.163 0.622,0.104 1.266,0.158 1.91,0.158 0.852,0 1.977,-0.158 3.314,-0.479 1.359,-0.322 2.691,-0.759 4.029,-1.289 1.359,-0.541 2.506,-1.13 3.5,-1.785 0.987,-0.633 1.539,-1.35 1.702,-2.097 0.186,-0.978 -0.142,-1.829 -0.944,-2.576 -0.83,-0.749 -1.774,-1.464 -2.834,-2.107 -1.059,-0.645 -1.998,-1.268 -2.876,-1.841 -0.853,-0.601 -1.174,-1.266 -1.06,-2.024 l 9.51,-48.892 c 1.748,-0.103 3.521,-0.457 5.39,-1.042 1.813,-0.589 3.636,-1.212 5.427,-1.856 1.801,-0.655 3.549,-1.228 5.273,-1.774 1.704,-0.541 3.429,-0.791 5.16,-0.791 2.462,0 4.208,0.654 5.246,2.003 1.016,1.359 1.359,2.992 0.993,4.925 l -9.237,47.428 c -0.137,0.759 -0.754,1.424 -1.84,2.024 -1.081,0.573 -2.276,1.196 -3.587,1.841 -1.315,0.644 -2.533,1.358 -3.642,2.107 -1.104,0.747 -1.747,1.599 -1.954,2.576 -0.115,0.656 0.207,1.289 0.922,1.921 0.732,0.656 1.633,1.279 2.714,1.868 1.037,0.601 2.255,1.06 3.593,1.382 1.337,0.321 2.598,0.479 3.772,0.479 0.644,0 1.315,-0.055 1.959,-0.158 0.688,-0.114 1.332,-0.163 1.982,-0.163 0.666,-0.114 1.311,-0.158 1.977,-0.158 0.644,0 1.223,0 1.747,0 0.786,0 1.501,0 2.188,0 0.716,0 1.359,0.044 2.004,0.158 0.737,0 1.431,0.049 2.048,0.163 0.622,0.104 1.267,0.158 1.91,0.158 0.852,0 1.96,-0.158 3.342,-0.479 1.332,-0.322 2.67,-0.759 4.023,-1.289 1.338,-0.541 2.49,-1.13 3.505,-1.785 0.967,-0.633 1.518,-1.35 1.682,-2.097 0.202,-0.978 -0.12,-1.829 -0.922,-2.576 -0.853,-0.749 -1.797,-1.464 -2.855,-2.107 -1.06,-0.645 -2.004,-1.268 -2.856,-1.841 -0.872,-0.601 -1.194,-1.266 -1.059,-2.024 l 9.505,-48.892 c 1.731,-0.103 3.527,-0.457 5.367,-1.042 1.818,-0.589 3.636,-1.212 5.432,-1.856 1.797,-0.655 3.549,-1.228 5.274,-1.774 1.703,-0.541 3.45,-0.791 5.154,-0.791 2.468,0 4.214,0.654 5.252,2.003 1.036,1.359 1.354,2.992 0.966,4.925 l -9.21,47.428 c -0.158,0.759 -0.76,1.424 -1.84,2.024 -1.082,0.573 -2.256,1.196 -3.593,1.841 -1.31,0.644 -2.533,1.358 -3.613,2.107 -1.131,0.747 -1.798,1.599 -1.961,2.576 -0.137,0.656 0.163,1.289 0.901,1.921 0.737,0.656 1.653,1.279 2.713,1.868 1.059,0.601 2.261,1.06 3.614,1.382 1.316,0.321 2.582,0.479 3.778,0.479 0.644,0 1.288,-0.055 1.954,-0.158 0.672,-0.114 1.338,-0.163 1.96,-0.163 0.693,-0.114 1.311,-0.158 1.982,-0.158 0.644,0 1.218,0 1.769,0 0.765,0 1.475,0 2.189,0 0.693,0 1.359,0.044 1.954,0.158 0.759,0 1.452,0.049 2.075,0.163 0.645,0.104 1.267,0.158 1.933,0.158 0.852,0 1.96,-0.158 3.292,-0.479 1.381,-0.322 2.719,-0.759 4.051,-1.289 1.337,-0.541 2.511,-1.13 3.499,-1.785 0.966,-0.633 1.546,-1.35 1.682,-2.097 0.187,-0.978 -0.114,-1.829 -0.944,-2.576 -0.808,-0.749 -1.747,-1.464 -2.806,-2.107 -1.06,-0.645 -2.031,-1.268 -2.884,-1.841 -0.851,-0.601 -1.194,-1.266 -1.059,-2.024 l 10.97,-56.304 z"
             id="path4285"
             style="fill:#ffffff"
             inkscape:connector-curvature="0" /><path
             d="m 176.623,393.201 c -0.688,-0.6 -1.682,-0.901 -2.97,-0.901 l -24.219,0 c -1.152,0 -2.141,0.393 -2.899,1.142 -0.737,0.747 -1.222,1.556 -1.474,2.43 -0.437,1.6 -0.716,3.324 -0.808,5.142 -0.094,1.835 -0.366,3.675 -0.896,5.492 -0.671,2.371 -2.046,4.707 -4.165,7.022 -2.097,2.304 -4.537,4.488 -7.321,6.512 -2.789,2.055 -5.617,3.834 -8.43,5.346 -2.855,1.496 -5.317,2.576 -7.457,3.221 -2.162,-0.322 -5.133,-1.151 -8.883,-2.51 -0.208,-0.067 -0.415,-0.158 -0.622,-0.24 l 2.762,-9.348 c 0.83,-2.91 2.299,-5.236 4.395,-7.032 2.118,-1.763 4.33,-3.293 6.7,-4.581 2.348,-1.288 4.466,-2.439 6.376,-3.466 1.911,-1.021 3.041,-2.173 3.407,-3.461 0.3,-1.086 0,-2.005 -0.852,-2.764 -0.852,-0.737 -2.069,-1.338 -3.615,-1.763 -1.539,-0.427 -3.271,-0.726 -5.225,-0.884 -1.96,-0.164 -3.844,-0.258 -5.662,-0.258 l -8.357,0 -7.278,0 -45.346,0 c -5.438,0 -13.54,5.045 -10.663,18.087 3.085,13.879 -6.563,20.349 -6.563,20.349 0,0 17.728,2.189 23.252,-9.909 2.004,-4.433 -0.322,-11.279 0.923,-15.129 1.359,-4.23 4.029,-4.509 4.029,-4.509 l 22.215,0 c 0,0 3.45,0.623 3.937,3.428 l -0.044,0.071 c 0.065,0.137 0.093,0.321 0.114,0.509 0,0.021 0,0.043 0,0.093 0,0.168 0,0.364 -0.049,0.572 -0.158,1.218 -0.438,2.555 -0.802,3.98 -0.022,0.094 -0.666,2.386 -1.567,5.586 -0.645,2.304 -1.452,5.098 -2.211,7.884 -1.452,5.17 -2.927,10.322 -3.521,12.501 -0.208,0.677 -0.322,1.08 -0.322,1.08 l -13.928,49.476 c -0.83,2.898 -2.232,5.152 -4.166,6.769 -1.98,1.612 -4.028,2.992 -6.168,4.106 -2.146,1.142 -4.15,2.233 -5.94,3.303 -1.796,1.087 -2.948,2.489 -3.434,4.204 -0.181,0.655 -0.022,1.244 0.464,1.785 0.48,0.53 1.195,0.967 2.14,1.289 0.917,0.321 1.977,0.551 3.106,0.714 1.13,0.158 2.233,0.252 3.314,0.252 0.737,0 1.566,-0.07 2.369,-0.164 0.852,-0.114 1.823,-0.217 2.927,-0.322 2.348,-0.321 5.459,-0.479 9.324,-0.479 1.84,0 3.386,0.021 4.674,0.082 1.266,0.043 2.462,0.169 3.592,0.397 1.146,0.105 2.299,0.208 3.45,0.322 1.152,0.094 2.533,0.164 4.172,0.164 0.523,0 1.425,-0.114 2.642,-0.322 1.245,-0.219 2.512,-0.519 3.8,-0.901 1.289,-0.365 2.49,-0.873 3.593,-1.517 1.104,-0.645 1.77,-1.476 2.048,-2.43 0.436,-1.508 -0.044,-2.772 -1.425,-3.783 -1.409,-1.016 -2.949,-2.016 -4.745,-2.991 -1.746,-0.973 -3.314,-2.021 -4.673,-3.145 -1.338,-1.121 -1.775,-2.546 -1.289,-4.271 l 13.791,-48.891 2.026,-6.889 c 0.393,0.202 0.78,0.408 1.174,0.595 2.762,1.288 5.158,3.041 7.156,5.252 2.031,2.205 3.527,5.568 4.516,10.077 0.966,4.526 1.338,10.592 1.059,18.235 -0.256,7.632 -1.315,17.58 -3.154,29.837 -0.53,3.777 -0.716,6.573 -0.508,8.402 0.186,1.818 1.495,2.74 3.984,2.74 0.645,0 1.359,-0.07 2.141,-0.164 0.78,-0.114 1.681,-0.217 2.669,-0.322 2.026,-0.321 4.538,-0.479 7.552,-0.479 1.2,0 2.324,0.044 3.428,0.158 1.086,0.093 2.168,0.207 3.205,0.321 2.184,0.322 4.438,0.486 6.813,0.486 2.576,0 4.995,-0.343 7.228,-1.06 2.234,-0.688 3.614,-1.9 4.074,-3.613 0.256,-0.875 0.026,-1.747 -0.688,-2.67 -0.716,-0.922 -1.659,-1.829 -2.855,-2.74 -1.2,-0.924 -2.512,-1.797 -3.937,-2.67 -1.403,-0.852 -2.762,-1.66 -4.078,-2.418 -2.025,-1.174 -3.149,-3.501 -3.357,-6.929 -0.208,-3.455 -0.164,-7.404 0.18,-11.869 0.35,-4.455 0.716,-9.128 1.06,-14.031 0.371,-4.892 0.207,-9.462 -0.48,-13.719 -0.688,-4.238 -2.233,-7.852 -4.607,-10.8 -2.392,-2.959 -6.17,-4.695 -11.279,-5.246 l 0.092,-0.322 c 3.958,-1.393 7.736,-3.363 11.422,-5.897 3.658,-2.516 7.179,-5.213 10.586,-8.058 3.362,-2.851 6.677,-5.629 9.926,-8.309 3.221,-2.682 6.469,-4.833 9.739,-6.46 2.877,-1.506 5.176,-2.63 6.901,-3.368 1.703,-0.758 2.74,-1.729 3.067,-2.927 0.313,-1.058 0.133,-1.91 -0.582,-2.482 z"
             id="path4287"
             style="fill:#ffffff"
             inkscape:connector-curvature="0" /></g></g></g></g></svg>