<?xml version="1.0" encoding="UTF-8" standalone="no"?>
<!-- Generator: Adobe Illustrator 16.0.0, SVG Export Plug-In . SVG Version: 6.00 Build 0)  -->

<svg
   xmlns:dc="http://purl.org/dc/elements/1.1/"
   xmlns:cc="http://creativecommons.org/ns#"
   xmlns:rdf="http://www.w3.org/1999/02/22-rdf-syntax-ns#"
   xmlns:svg="http://www.w3.org/2000/svg"
   xmlns="http://www.w3.org/2000/svg"
   xmlns:sodipodi="http://sodipodi.sourceforge.net/DTD/sodipodi-0.dtd"
   xmlns:inkscape="http://www.inkscape.org/namespaces/inkscape"
   version="1.1"
   id="Capa_1"
   x="0px"
   y="0px"
   width="750px"
   height="750px"
   viewBox="0 0 750 750"
   enable-background="new 0 0 750 750"
   xml:space="preserve"
   inkscape:version="0.91 r13725"
   sodipodi:docname="delete-white.svg"><metadata
     id="metadata15"><rdf:RDF><cc:Work
         rdf:about=""><dc:format>image/svg+xml</dc:format><dc:type
           rdf:resource="http://purl.org/dc/dcmitype/StillImage" /></cc:Work></rdf:RDF></metadata><defs
     id="defs13" /><sodipodi:namedview
     pagecolor="#ffffff"
     bordercolor="#666666"
     borderopacity="1"
     objecttolerance="10"
     gridtolerance="10"
     guidetolerance="10"
     inkscape:pageopacity="0"
     inkscape:pageshadow="2"
     inkscape:window-width="767"
     inkscape:window-height="480"
     id="namedview11"
     showgrid="false"
     inkscape:zoom="0.31466667"
     inkscape:cx="375"
     inkscape:cy="375"
     inkscape:window-x="-2"
     inkscape:window-y="-2"
     inkscape:window-maximized="0"
     inkscape:current-layer="Capa_1" /><g
     id="g3"
     style="fill:#ffffff"><g
       id="g5"
       style="fill:#ffffff"><path
         fill="#5D5D5D"
         d="M375,52.13c178.041,0,322.87,144.83,322.87,322.871c0,178.04-144.829,322.869-322.87,322.869    c-178.04,0-322.87-144.829-322.87-322.869C52.13,196.96,196.96,52.13,375,52.13 M375,16.256    c-198.08,0-358.744,160.665-358.744,358.745C16.256,573.15,176.92,733.744,375,733.744c198.148,0,358.744-160.594,358.744-358.743    C733.744,176.92,573.148,16.256,375,16.256L375,16.256z"
         id="path7"
         style="fill:#ffffff" /></g><rect
       x="195.628"
       y="335.063"
       fill="#5D5D5D"
       width="358.743"
       height="107.623"
       id="rect9"
       style="fill:#ffffff" /></g></svg>