<?xml version="1.0" encoding="utf-8"?>
<!-- Generator: Adobe Illustrator 16.0.0, SVG Export Plug-In . SVG Version: 6.00 Build 0)  -->
<!DOCTYPE svg PUBLIC "-//W3C//DTD SVG 1.1//EN" "http://www.w3.org/Graphics/SVG/1.1/DTD/svg11.dtd">
<svg version="1.1" id="Capa_1" xmlns="http://www.w3.org/2000/svg" xmlns:xlink="http://www.w3.org/1999/xlink" x="0px" y="0px"
	 width="750px" height="750px" viewBox="0 0 750 750" enable-background="new 0 0 750 750" xml:space="preserve">
<g>
	<path fill="#5D5D5D" d="M641.619,494.84c-1.685,0-3.459-0.117-5.233-0.328l-155.581-1.914l-292.755-0.982h-59.848
		c-0.653,0.07-2.057,0.211-3.972,0.211c-6.633,0-18.922-1.613-26.537-12.313l-0.188-0.326l-7.286-14.717
		c-2.197-1.074-5.514-3.248-7.57-7.477c-3.084-6.307-2.383-14.625,2.148-24.715l1.449-3.457c-2.197-0.047-4.67-0.094-7.146-0.094
		c-7.242,0-9.813,0.232-10.654,0.373l-0.141,0.047h-0.139c-0.888,0.094-8.643,0.865-15.514,0.865c-3.176,0-5.606-0.164-7.475-0.514
		c-0.28,0.023-0.605,0.023-0.934,0.023c-3.597,0-12.848-1.215-21.398-12.613l-0.141-0.234l-6.727-11.354
		c-2.104-1.402-6.121-4.719-7.43-10.021c-1.213-4.697,0-9.578,3.412-14.507l0.14-0.235l82.558-90.872
		c1.913-2.43,10.092-10.138,35.647-12.007l0.046-0.023l35.227-1.121c0.141,0,14.389-0.21,19.438-7.966
		c2.615-4.018,8.641-13.409,34.665-13.409c1.122,0,2.382,0.047,3.552,0.069c1.073,0,114.23,1.075,138.34,2.174
		c7.476,0.327,22.94,0.842,42.565,1.447c44.194,1.45,104.604,3.389,124.928,5.188c0.422,0,0.981-0.024,1.774-0.024
		c6.729,0,23.457,1.333,33.828,13.69l0.185,0.233l0.143,0.279c0,0.024,2.803,4.136,7.521,5.701c0.748,0.233,1.401,0.49,2.054,0.723
		h0.094c3.554,1.263,6.121,2.197,15.653,2.197c0.654,0,1.354-0.024,2.054-0.024h0.142h0.143c0.978,0.07,23.776,1.215,35.134,3.832
		c0.465,0.118,0.978,0.209,1.54,0.35c6.538,1.425,16.446,3.622,25.789,14.461l75.035,78.187c0.188,0.141,3.316,3.457,6.259,7.616
		c4.674,6.634,6.354,11.913,5.093,16.118c-2.242,7.686-7.102,10.139-9.624,11.049c-1.822,3.762-4.859,9.625-7.615,12.383
		c-1.449,1.869-6.821,7.219-19.904,7.219c-1.215,0-2.521-0.025-3.782-0.143l-19.486-1.191c0.659,1.287,1.266,2.525,1.825,3.762
		c5.373,12.195,3.034,19.365,0.095,23.268c-0.889,1.775-3.364,5.746-9.251,9.25c-1.822,3.037-5.467,9.205-7.011,11.729
		C665.396,486.85,657.222,494.84,641.619,494.84z M188.1,484.42l292.799,0.959l155.952,1.939h0.095
		c1.587,0.186,3.178,0.277,4.674,0.277c11.537,0,18.079-5.418,19.012-6.773c0.888-1.447,2.665-4.346,4.207-6.914
		c-1.824,0.115-3.225,0.139-3.644,0.139c-21.445-0.209-525.331-4.672-545.001-5.232c-6.539-0.164-12.052-0.654-16.491-1.447
		l3.972,8.105c5.746,7.941,15.369,9.133,20.557,9.133c2.009,0,3.318-0.186,3.363-0.186h0.141h0.14H188.1z M95.451,458.91
		c2.196,0.771,8.033,2.336,20.93,2.709c19.297,0.516,523.041,5.002,544.438,5.188h0.419c5.422,0,10.842-1.121,11.634-2.01
		l1.403-1.729l0.233,0.188c1.635-1.682,2.148-2.943,2.148-2.99l0.141-0.326l0.233-0.281c5.701-6.775-2.805-20.955-5.655-25.254
		c-3.594-4.695-9.484-13.314-8.597-18.664c0.284-1.729,1.265-3.129,2.617-4.041c0.327-0.188,3.364-2.125,8.879-2.125
		c1.073,0,2.148,0.047,3.271,0.209c7.382,0.912,23.406,2.523,36.535,2.523c13.36,0,17.053-1.66,17.989-2.406l0.186-0.117
		c0.98-1.053,1.773-2.523,2.381-4.461c0.982-3.459-5.044-11.867-9.672-16.704l-75.172-78.28v-0.047
		c-7.85-9.157-16.023-10.933-22.004-12.265c-0.563-0.117-1.121-0.233-1.639-0.349c-10.417-2.43-32.375-3.599-33.779-3.646
		c-0.699,0-1.399,0-2.054,0c-10.794,0-14.157-1.19-18.081-2.569c-0.606-0.233-1.261-0.468-1.962-0.699
		c-6.823-2.243-10.605-7.571-11.259-8.552c-8.596-10.186-23.735-10.979-28.176-10.979c-1.072,0-1.726,0.048-1.726,0.048h-0.144
		l-0.184-0.025c-19.716-1.797-80.549-3.76-124.885-5.161c-19.669-0.654-35.182-1.146-42.658-1.495
		c-24.106-1.076-137.032-2.15-138.154-2.15c-1.166-0.047-2.287-0.047-3.363-0.047c-22.098,0-26.723,7.057-28.637,10.093
		c-7.15,10.979-24.25,11.259-25.417,11.259l-34.903,1.122c-24.34,1.821-30.459,9.297-30.555,9.392l-0.045,0.092l-0.049,0.047
		l-82.32,90.64c-3.412,4.953-3.318,9.227,0.28,12.754c8.69,3.506,18.034,4.252,24.389,4.252c1.167,0,2.334-0.023,3.456-0.068
		c3.597-0.166,7.429-0.352,10.838-0.539c7.57-0.396,14.766-0.793,21.025-0.793c13.456,0,20.322,1.893,22.85,6.354
		c2.707,4.766-0.563,10.279-3.225,14.691c-0.469,0.82-0.982,1.66-1.404,2.408l-4.576,11.072c-3.412,7.568-4.301,13.805-2.617,18.01
		c0.889,2.223,2.383,3.529,3.598,4.277l0.186-0.234l1.684,1.121c0.047,0,0.047,0.023,0.092,0.049l0.981,0.23L95.451,458.91z
		 M701.045,430.715c1.214,0.068,2.291,0.117,3.316,0.117c10.979,0,14.254-4.51,14.299-4.557l0.186-0.256l0.188-0.141
		c0.981-0.934,2.571-3.342,4.346-6.682c-2.851,0.234-6.12,0.352-9.767,0.352c-15.56,0-33.544-2.174-37.002-2.617
		c-0.794-0.117-1.587-0.141-2.335-0.141c-2.103,0-3.552,0.42-4.345,0.725c0.324,1.916,2.896,6.775,6.538,11.682L701.045,430.715z
		 M45.973,422.305c0.934,0.211,2.852,0.49,6.68,0.49c6.354,0,13.974-0.748,14.72-0.818c1.96-0.303,5.792-0.441,11.728-0.441
		c3.598,0,7.287,0.045,10.043,0.092c0.607-1.193,1.354-2.43,2.103-3.643c1.026-1.73,3.737-6.285,3.085-7.43
		c-0.329-0.607-2.571-2.664-16.635-2.664c-6.355,0-13.596,0.373-20.557,0.771c-3.596,0.186-7.333,0.398-10.885,0.537
		c-1.262,0.047-2.477,0.07-3.738,0.07c-5.935,0-11.587-0.561-16.82-1.682l3.037,5.068c6.543,8.713,13.035,9.672,15.512,9.672
		c0.56,0,0.842-0.047,0.842-0.047l0.42-0.094L45.973,422.305z"/>
	<path fill="#5D5D5D" d="M398.404,467.082l-279.5-1.5c-3.41-0.047-10.187-4.383-12.475-7.139c-0.608-0.793-0.887-1.752-0.747-2.732
		l0.045-0.258l9.204-20.676l0.095-0.113c0.14-0.422,0.046-1.73-1.167-3.998l-0.049-0.115l-10.326-22.705
		c-0.279-0.563-4.297-8.131-14.901-8.131c-0.842,0-1.634,0.047-2.477,0.141h-0.14l-50.414-0.795l14.393-17.659l1.166,0.14
		c0.047,0,1.168,0.141,2.896,0.141c3.738,0,12.803-0.609,16.729-6.075l0.092-0.069l34.76-44.034
		c0.049-0.095,0.514-1.076-0.699-3.036c-0.234-0.327-0.469-0.749-0.747-1.217c-0.888-1.54-2.103-3.644-3.272-4.741l-1.213-1.098
		l0.654-1.449c0.278-0.584,6.539-14.156,29.945-16.491h0.096c19.016-0.935,47.796-2.43,49.242-2.571
		c1.869-0.279,15.091-3.737,17.193-10.675c2.71-8.947,18.129-12.217,27.799-12.217c1.076,0,2.057,0.047,2.944,0.092
		c12.006,0.234,267.944,4.603,302.143,9.299c1.262,0.093,18.222,2.031,23.876,12.193c0.092,0.095,6.68,10.606,32.051,11.635
		l3.363,0.139c25.556,1.028,45.738,1.823,57.514,20.886l0.794,1.261l-4.205,6.003c-0.096,0.328-0.28,1.19,0.607,2.08l0.045,0.045
		l34.903,42.657c0.279,0.326,6.354,6.682,19.106,7.569l0.935,0.047l16.679,19.505l-5.84-0.863
		c-0.187-0.023-15.838-2.314-29.105-2.314c-12.149,0-15.558,1.895-16.494,2.852l-16.072,26.84c-0.14,0.326-0.793,2.594,2.432,7.85
		l13.144,22.801L398.404,467.082z"/>
</g>
</svg>
