<?xml version="1.0" encoding="utf-8"?>
<!-- Generator: Adobe Illustrator 16.0.0, SVG Export Plug-In . SVG Version: 6.00 Build 0)  -->
<!DOCTYPE svg PUBLIC "-//W3C//DTD SVG 1.1//EN" "http://www.w3.org/Graphics/SVG/1.1/DTD/svg11.dtd">
<svg version="1.1" id="Capa_1" xmlns="http://www.w3.org/2000/svg" xmlns:xlink="http://www.w3.org/1999/xlink" x="0px" y="0px"
	 width="750px" height="750px" viewBox="0 0 750 750" enable-background="new 0 0 750 750" xml:space="preserve">
<path fill="#5D5D5D" d="M420.707,10.122c51.532,10.767,85.793,47.625,93.309,99.841c1.296,9.25,1.875,18.534,2.892,27.822
	c-0.365,0.074-0.653,0.074-0.942,0.074c0,5.059,0.942,10.263-0.363,14.958c-0.934,3.581-4.7,9.036-7.293,9.036
	c-5.855,0.07-7.303-4.411-6.509-10.626c3.543-27.174-0.429-53.298-12.936-77.834c-20.31-39.823-71.047-62.442-114.047-50.3
	c-31.799,9.032-47.551,33.352-54.637,63.487c-3.609,15.032-2.965,31.043-4.841,46.58c-0.288,2.676-3.394,4.989-5.202,7.446
	c-2.527-2.243-7.228-4.411-7.376-6.868c-2.313-36.425,3.767-70.863,28.908-99.082C355.812,7.52,387.033,3.109,420.707,10.122z
	 M515.677,167.057c-8.599,6.397-14.025,4.262-18.577-4.266C503.318,164.167,508.886,165.5,515.677,167.057z M488.864,120.081
	c-6.938,0.434-12.215-0.544-13.735-8.928c-8.02-45.853-33.889-75.05-80.001-85.168c-0.578-0.145-0.941-0.83-1.445-1.301
	C448.972,19.625,484.166,63.057,488.864,120.081z M315.993,144.942c-7.591,8.706-13.231,7.372-17.279-3.217
	C304.065,142.7,309.634,143.786,315.993,144.942z M282.097,81.922c9.539-32.704,27.751-57.528,61.863-67.72
	c1.52-0.471,3.18-0.579,6.359-1.12c-27.9,22.367-50.449,45.928-57.387,80.221C280.286,94.133,278.917,92.618,282.097,81.922z
	 M196.238,103.025c0.793,0.144,1.595,0.359,2.313,0.503c3.105,0.686,6.286,1.375,7.954,1.879c0.066,1.231-0.075,3.18-0.148,4.989
	c-0.148,2.383-0.289,5.274-0.363,8.743c-1.082,66.238-2.677,133.557-4.188,198.675v1.66c-1.594,66.923-3.254,133.847-4.849,200.732
	l-1.156,47.773c-0.644,25.043-3.246,83.652-3.246,83.652s-26.166,32.955-37.654,50.193L196.238,103.025z M158.005,705.91
	l39.315-46.654l39.315,83.582L158.005,705.91z M203.392,651.813c0,0,10.844-509.258,11.637-543.37l25.869,631.29
	C236.058,725.712,203.392,651.813,203.392,651.813z M594.885,666.81c0,0-0.727,0.615-3.685,1.23
	c-98.288,20.594-196.576,41.628-288.794,61.463c-14.313,3.073-28.694,6.509-42.71,9.829c-4.924,1.193-9.829,2.349-14.817,3.506
	l-0.29-12.356c-0.363-14.599-0.726-29.16-1.156-43.726l-3.328-108.658c-1.52-48.894-3.031-97.818-4.477-146.748
	c-0.867-28.11-1.669-56.227-2.388-84.337c-0.866-29.995-1.659-59.985-2.601-90.013c-1.008-32.741-2.098-65.514-3.106-98.255
	l-1.884-56.008c-0.065-1.879-0.065-3.758-0.065-5.781l6.501,0.899c20.375,2.714,39.968,5.386,59.41,8.207l-0.074,0.937
	c-0.652,8.962-1.379,17.453-3.254,25.621c-2.817,12.216,0,20.632,8.309,24.862c3.395,1.771,7.807,2.783,12.217,2.783
	c3.039,0,7.516-0.578,10.91-3.18c7.664-5.711,8.458-18.287,8.531-20.744c0.29-8.02-0.287-15.97-0.867-23.705
	c0-0.685-0.148-1.371-0.148-2.023c50.375,6.649,100.75,13.298,151.051,20.021c10.407,1.371,13.298,2.747,13.95,3.614
	c0.43,0.686,0.858,3.105-1.23,12.175c-0.148,0.326-0.438,0.759-0.727,1.193c-1.082,1.879-2.742,4.771-2.453,8.384l0.14,2.242
	c0.438,5.889,0.942,13.224,5.857,17.705c4.839,4.41,11.992,4.915,14.816,4.915c2.891,0,5.634-0.434,7.88-1.227
	c4.691-1.664,14.959-7.371,11.199-25.369c-2.601-12.287-1.304-14.632-1.016-14.995c0,0,0.942-0.975,5.931-0.975
	c2.239,0,4.841,0.181,7.806,0.541l1.734-1.879c2.023,0.251,4.113-1.553,6.211-1.553h2.024c3.617,0,5.855,2.057,6.508,11.055
	c2.089,30.316,4.337,61.649,6.574,91.966c1.157,16.007,2.388,32.485,3.47,48.458c1.659,22.368,3.255,44.99,4.84,67.357
	c2.602,36.279,5.129,72.631,7.88,108.947c4.989,66.597,10.191,133.23,15.47,199.757C595.248,665.871,594.885,666.738,594.885,666.81
	z"/>
</svg>
