<?xml version="1.0" encoding="utf-8"?>
<!-- Generator: Adobe Illustrator 16.0.0, SVG Export Plug-In . SVG Version: 6.00 Build 0)  -->
<!DOCTYPE svg PUBLIC "-//W3C//DTD SVG 1.1//EN" "http://www.w3.org/Graphics/SVG/1.1/DTD/svg11.dtd">
<svg version="1.1" id="Capa_1" xmlns="http://www.w3.org/2000/svg" xmlns:xlink="http://www.w3.org/1999/xlink" x="0px" y="0px"
	 width="750px" height="750px" viewBox="0 0 750 750" enable-background="new 0 0 750 750" xml:space="preserve">
<g>
	<path fill="#FFFFFF" d="M126.192,422.633c0,0,39.452-35.17,103.289-38.619l118.355-127.807h70.688c0,0,32.918,3.1,0,34.001
		L263.449,448.852c0,0-18.55,34.068,13.734,60.152c0,0,28.101,30.752,50.786,12.215l150.291-130.572l87.805,1.434
		c0,0,43.902,6.201,71.369-62.436c0,0,11.651-41.853,32.235-42.536V91.532c0,0,4.101-24.702-53.502-24.702h-255.28l-88.538,55.92
		L126.192,352.295V422.633z"/>
	<path fill="#FFFFFF" d="M602.584,401.348c-23.168,9.117-56.987,16.566-96.222,7.101c1.483,2.433,3.234,4.733,5.301,6.8
		l44.168,44.152c14.334,14.352,37.586,14.352,51.936,0l0.467-0.467c14.352-14.35,14.352-37.584,0-51.919L602.584,401.348z"/>
	<path fill="#FFFFFF" d="M540.93,464.135l-44.168-44.152c-3.551-3.568-7.635-6.217-12.001-8.018l-49.836,44.119
		c1.633,5.984,4.734,11.617,9.435,16.299l44.169,44.137c14.333,14.367,37.552,14.367,51.902,0l0.499-0.465
		C555.247,501.719,555.247,478.467,540.93,464.135z"/>
	<path fill="#FFFFFF" d="M405.89,554.256l21.452,21.449c15.5,15.486,39.634,16.42,53.985,2.053l0.467-0.469
		c14.351-14.332,13.435-38.518-2.066-53.986l-47.67-47.684c-3.183-3.186-6.733-5.768-10.5-7.703l-24.167,21.402
		C406.707,514.121,407.94,536.354,405.89,554.256z"/>
	<path fill="#FFFFFF" d="M344.938,532.588c0,0-39.653,30.867-81.321-10.816c-39.902-39.887-22.151-79.787-22.151-79.787
		l36.636-37.236c-12.317-3.334-25.318-5.134-38.686-5.134c-82.221,0-148.907,66.687-148.907,148.942
		c0,82.234,66.687,148.906,148.907,148.906c82.238,0,148.907-66.672,148.907-148.906c0-16.369-2.666-32.121-7.55-46.871
		L344.938,532.588z"/>
</g>
</svg>
