<?xml version="1.0" encoding="utf-8"?>
<!-- Generator: Adobe Illustrator 16.0.0, SVG Export Plug-In . SVG Version: 6.00 Build 0)  -->
<!DOCTYPE svg PUBLIC "-//W3C//DTD SVG 1.1//EN" "http://www.w3.org/Graphics/SVG/1.1/DTD/svg11.dtd">
<svg version="1.1" id="Capa_1" xmlns="http://www.w3.org/2000/svg" xmlns:xlink="http://www.w3.org/1999/xlink" x="0px" y="0px"
	 width="750px" height="750px" viewBox="0 0 750 750" enable-background="new 0 0 750 750" xml:space="preserve">
<g>
	<g>
		<path fill="#B52E2E" d="M729.087,375.405c0,195.541-158.543,354.087-354.087,354.087S20.913,570.946,20.913,375.405
			C20.913,179.877,179.456,21.333,375,21.333S729.087,179.877,729.087,375.405z"/>
	</g>
	<g>
		<path fill-rule="evenodd" clip-rule="evenodd" fill="#FFFFFF" d="M478.702,508.885c18.709,20.09,36.899,39.59,54.987,59.026
			c-100.384,98.436-277.117,80.805-367.78-35.441C99.965,447.858,93.912,329.972,150.873,238.9
			c58.023-92.813,164.789-137.83,272.819-114.969c102.029,21.533,181.389,106.294,196.494,211.813
			c2.461,17.255,8.2,23.076,24.945,22.027c19.467-1.216,39.002-0.262,65.898-0.262c-44.676,51.02-85.266,97.367-124.069,141.666
			c-48.399-45.822-95.387-90.301-142.423-134.797c0.656-2.181,1.313-4.361,2.003-6.494c29.289,0,58.581,0,87.559,0
			c2.444-64.354-50.758-128.955-118.574-148.491c-75.656-21.811-155.524,10.352-195.854,78.871
			c-39.378,66.946-27.7,153.64,28.192,209.551C308.201,558.054,389.496,562.679,478.702,508.885z"/>
	</g>
</g>
</svg>
