<?xml version="1.0" encoding="UTF-8" standalone="no"?>
<!-- Generator: Adobe Illustrator 16.0.0, SVG Export Plug-In . SVG Version: 6.00 Build 0)  -->

<svg
   xmlns:dc="http://purl.org/dc/elements/1.1/"
   xmlns:cc="http://creativecommons.org/ns#"
   xmlns:rdf="http://www.w3.org/1999/02/22-rdf-syntax-ns#"
   xmlns:svg="http://www.w3.org/2000/svg"
   xmlns="http://www.w3.org/2000/svg"
   xmlns:sodipodi="http://sodipodi.sourceforge.net/DTD/sodipodi-0.dtd"
   xmlns:inkscape="http://www.inkscape.org/namespaces/inkscape"
   version="1.1"
   id="Capa_1"
   x="0px"
   y="0px"
   width="750px"
   height="750px"
   viewBox="0 0 750 750"
   enable-background="new 0 0 750 750"
   xml:space="preserve"
   inkscape:version="0.91 r13725"
   sodipodi:docname="refresh.svg"><metadata
     id="metadata4566"><rdf:RDF><cc:Work
         rdf:about=""><dc:format>image/svg+xml</dc:format><dc:type
           rdf:resource="http://purl.org/dc/dcmitype/StillImage" /></cc:Work></rdf:RDF></metadata><defs
     id="defs4564" /><sodipodi:namedview
     pagecolor="#ffffff"
     bordercolor="#666666"
     borderopacity="1"
     objecttolerance="10"
     gridtolerance="10"
     guidetolerance="10"
     inkscape:pageopacity="0"
     inkscape:pageshadow="2"
     inkscape:window-width="640"
     inkscape:window-height="480"
     id="namedview4562"
     showgrid="false"
     inkscape:zoom="0.31466667"
     inkscape:cx="375"
     inkscape:cy="341.1444"
     inkscape:window-x="-2"
     inkscape:window-y="-2"
     inkscape:window-maximized="0"
     inkscape:current-layer="g4558" /><g
     id="g4558"
     style="fill:#d40000"
     transform="translate(-12.711864,0)"><path
       style="clip-rule:evenodd;fill:#ffffff;fill-rule:evenodd"
       inkscape:connector-curvature="0"
       id="path4560"
       d="m 465.99014,505.70704 c 18.709,20.09 36.899,39.59 54.987,59.026 -100.384,98.436 -277.117,80.805 -367.78,-35.441 -65.944005,-84.612 -71.997005,-202.498 -15.036,-293.57 58.023,-92.813 164.789,-137.830006 272.819,-114.969 102.029,21.533 181.389,106.294 196.494,211.813 2.461,17.255 8.2,23.076 24.945,22.027 19.467,-1.216 39.002,-0.262 65.898,-0.262 -44.676,51.02 -85.266,97.367 -124.069,141.666 -48.399,-45.822 -95.387,-90.301 -142.423,-134.797 0.656,-2.181 1.313,-4.361 2.003,-6.494 29.289,0 58.581,0 87.559,0 2.444,-64.354 -50.758,-128.955 -118.574,-148.491 -75.656,-21.811 -155.524,10.352 -195.854,78.871 -39.378,66.946 -27.7,153.64 28.192,209.551 60.338,60.239 141.633,64.864 230.839,11.07 z" /></g></svg>